<svg width="1614" height="1614" viewBox="0 0 1614 1614" fill="#F4F5E4" xmlns="http://www.w3.org/2000/svg">
<g clip-path="url(#clip0_76_3530)">
<path d="M0 0H96V96C42.9807 96 0 53.0193 0 0Z" fill="#F3BB4F"/>
<path d="M101 0C154.019 0 197 42.9807 197 96H101V0Z" fill="#EF8D61"/>
<path d="M202 0C255.019 0 298 42.9807 298 96H202V0Z" fill="#F3BB4F"/>
<path d="M303 96C303 42.9807 345.981 0 399 0V96H303Z" fill="#F3BB4F"/>
<path d="M404 96C404 42.9807 446.981 0 500 0V96H404Z" fill="#F3BB4F"/>
<path d="M505 0C558.019 0 601 42.9807 601 96H505V0Z" fill="#F3BB4F"/>
<path d="M606 0H702V96C648.981 96 606 53.0193 606 0Z" fill="#F3BB4F"/>
<path d="M707 0C760.019 0 803 42.9807 803 96H707V0Z" fill="#F3BB4F"/>
</g>
<g clip-path="url(#clip1_76_3530)">
<path d="M0 197C0 143.981 42.9807 101 96 101V197H0Z" fill="#F3BB4F"/>
<path d="M101 101H197C197 154.019 154.019 197 101 197V101Z" fill="#EF8D61"/>
<path d="M202 101H298V197C244.981 197 202 154.019 202 101Z" fill="#F3BB4F"/>
<path d="M303 101H399C399 154.019 356.019 197 303 197V101Z" fill="#F3BB4F"/>
<path d="M404 101H500C500 154.019 457.019 197 404 197V101Z" fill="#F3BB4F"/>
<path d="M505 101H601V197C547.981 197 505 154.019 505 101Z" fill="#F3BB4F"/>
<path d="M606 197C606 143.981 648.981 101 702 101V197H606Z" fill="#F3BB4F"/>
<path d="M707 101C760.019 101 803 143.981 803 197H707V101Z" fill="#F3BB4F"/>
</g>
<g clip-path="url(#clip2_76_3530)">
<path d="M0 298C0 244.981 42.9807 202 96 202V298H0Z" fill="#F3BB4F"/>
<path d="M101 202H197C197 255.019 154.019 298 101 298V202Z" fill="#F3BB4F"/>
<path d="M202 298V202C255.019 202 298 244.981 298 298H202Z" fill="#A8C7AB"/>
<path d="M399 298H303C303 244.981 345.981 202 399 202V298Z" fill="#A8C7AB"/>
<path d="M500 298H404C404 244.981 446.981 202 500 202V298Z" fill="#F3BB4F"/>
<path d="M505 202H601C601 255.019 558.019 298 505 298V202Z" fill="#F3BB4F"/>
<path d="M606 202H702C702 255.019 659.019 298 606 298V202Z" fill="#F3BB4F"/>
<path d="M803 202V298C749.981 298 707 255.019 707 202H803Z" fill="#F3BB4F"/>
</g>
<g clip-path="url(#clip3_76_3530)">
<path d="M96 303V399C42.9807 399 0 356.019 0 303H96Z" fill="#F3BB4F"/>
<path d="M101 399V303C154.019 303 197 345.981 197 399H101Z" fill="#F3BB4F"/>
<path d="M298 303V399C244.981 399 202 356.019 202 303H298Z" fill="#A8C7AB"/>
<path d="M303 303H399C399 356.019 356.019 399 303 399V303Z" fill="#A8C7AB"/>
<path d="M500 303V399C446.981 399 404 356.019 404 303H500Z" fill="#F3BB4F"/>
<path d="M505 399V303C558.019 303 601 345.981 601 399H505Z" fill="#F3BB4F"/>
<path d="M702 399H606C606 345.981 648.981 303 702 303V399Z" fill="#F3BB4F"/>
<path d="M707 303H803C803 356.019 760.019 399 707 399V303Z" fill="#F3BB4F"/>
</g>
<g clip-path="url(#clip4_76_3530)">
<path d="M96 500H0C0 446.981 42.9807 404 96 404L96 500Z" fill="#F3BB4F"/>
<path d="M101 500V404C154.019 404 197 446.981 197 500H101Z" fill="#F3BB4F"/>
<path d="M298 404V500C244.981 500 202 457.019 202 404H298Z" fill="#F3BB4F"/>
<path d="M303 500V404C356.019 404 399 446.981 399 500H303Z" fill="#F3BB4F"/>
<path d="M500 404V500C446.981 500 404 457.019 404 404H500Z" fill="#EF8D61"/>
<path d="M505 500V404C558.019 404 601 446.981 601 500H505Z" fill="#F3BB4F"/>
<path d="M702 404V500C648.981 500 606 457.019 606 404H702Z" fill="#F3BB4F"/>
<path d="M707 500V404C760.019 404 803 446.981 803 500H707Z" fill="#F3BB4F"/>
</g>
<g clip-path="url(#clip5_76_3530)">
<path d="M0 505H96C96 558.019 53.0193 601 0 601L0 505Z" fill="#F3BB4F"/>
<path d="M197 505V601C143.981 601 101 558.019 101 505H197Z" fill="#F3BB4F"/>
<path d="M298 601H202C202 547.981 244.981 505 298 505V601Z" fill="#F3BB4F"/>
<path d="M303 505H399C399 558.019 356.019 601 303 601V505Z" fill="#F3BB4F"/>
<path d="M500 601H404C404 547.981 446.981 505 500 505V601Z" fill="#EF8D61"/>
<path d="M505 505H601C601 558.019 558.019 601 505 601V505Z" fill="#F3BB4F"/>
<path d="M702 505V601C648.981 601 606 558.019 606 505H702Z" fill="#F3BB4F"/>
<path d="M707 601V505C760.019 505 803 547.981 803 601H707Z" fill="#F3BB4F"/>
</g>
<g clip-path="url(#clip6_76_3530)">
<path d="M96 702H0C0 648.981 42.9807 606 96 606L96 702Z" fill="#F3BB4F"/>
<path d="M101 606H197C197 659.019 154.019 702 101 702V606Z" fill="#F3BB4F"/>
<path d="M202 702V606C255.019 606 298 648.981 298 702H202Z" fill="#F3BB4F"/>
<path d="M399 702H303C303 648.981 345.981 606 399 606V702Z" fill="#F3BB4F"/>
<path d="M500 702H404C404 648.981 446.981 606 500 606V702Z" fill="#F3BB4F"/>
<path d="M505 702V606C558.019 606 601 648.981 601 702H505Z" fill="#F3BB4F"/>
<path d="M702 702H606C606 648.981 648.981 606 702 606V702Z" fill="#F3BB4F"/>
<path d="M707 606H803C803 659.019 760.019 702 707 702V606Z" fill="#F3BB4F"/>
</g>
<g clip-path="url(#clip7_76_3530)">
<path d="M96 707V803C42.9807 803 0 760.019 0 707H96Z" fill="#F3BB4F"/>
<path d="M101 803V707C154.019 707 197 749.981 197 803H101Z" fill="#F3BB4F"/>
<path d="M298 707V803C244.981 803 202 760.019 202 707H298Z" fill="#F3BB4F"/>
<path d="M303 707H399C399 760.019 356.019 803 303 803V707Z" fill="#F3BB4F"/>
<path d="M404 707H500C500 760.019 457.019 803 404 803V707Z" fill="#F3BB4F"/>
<path d="M601 707V803C547.981 803 505 760.019 505 707H601Z" fill="#F3BB4F"/>
<path d="M702 803H606C606 749.981 648.981 707 702 707V803Z" fill="#F3BB4F"/>
<path d="M707 803V707C760.019 707 803 749.981 803 803H707Z" fill="#F3BB4F"/>
</g>
<g clip-path="url(#clip8_76_3530)">
<path d="M0 806H96V902C42.9807 902 0 859.019 0 806Z" fill="#F3BB4F"/>
<path d="M101 806C154.019 806 197 848.981 197 902H101V806Z" fill="#F3BB4F"/>
<path d="M202 806C255.019 806 298 848.981 298 902H202V806Z" fill="#EF8D61"/>
<path d="M303 902C303 848.981 345.981 806 399 806V902H303Z" fill="#EF8D61"/>
<path d="M404 902C404 848.981 446.981 806 500 806V902H404Z" fill="#F3BB4F"/>
<path d="M505 806C558.019 806 601 848.981 601 902H505V806Z" fill="#F3BB4F"/>
<path d="M606 902V806H702C702 859.019 659.019 902 606 902Z" fill="#EF8D61"/>
<path d="M803 902C749.981 902 707 859.019 707 806H803V902Z" fill="#EF8D61"/>
</g>
<g clip-path="url(#clip9_76_3530)">
<path d="M0 1003C0 949.981 42.9807 907 96 907V1003H0Z" fill="#F3BB4F"/>
<path d="M101 907H197C197 960.019 154.019 1003 101 1003V907Z" fill="#F3BB4F"/>
<path d="M202 907H298V1003C244.981 1003 202 960.019 202 907Z" fill="#F3BB4F"/>
<path d="M303 907H399C399 960.019 356.019 1003 303 1003V907Z" fill="#F3BB4F"/>
<path d="M404 907H500C500 960.019 457.019 1003 404 1003V907Z" fill="#F3BB4F"/>
<path d="M505 907H601V1003C547.981 1003 505 960.019 505 907Z" fill="#F3BB4F"/>
<path d="M606 1003C606 949.981 648.981 907 702 907V1003H606Z" fill="#F3BB4F"/>
<path d="M707 907C760.019 907 803 949.981 803 1003H707V907Z" fill="#F3BB4F"/>
</g>
<g clip-path="url(#clip10_76_3530)">
<path d="M0 1104C0 1050.98 42.9807 1008 96 1008V1104H0Z" fill="#F3BB4F"/>
<path d="M101 1008H197C197 1061.02 154.019 1104 101 1104V1008Z" fill="#F3BB4F"/>
<path d="M202 1104V1008C255.019 1008 298 1050.98 298 1104H202Z" fill="#F3BB4F"/>
<path d="M399 1104H303C303 1050.98 345.981 1008 399 1008V1104Z" fill="#F3BB4F"/>
<path d="M500 1104H404C404 1050.98 446.981 1008 500 1008V1104Z" fill="#A8C7AB"/>
<path d="M505 1008H601C601 1061.02 558.019 1104 505 1104V1008Z" fill="#A8C7AB"/>
<path d="M606 1008H702C702 1061.02 659.019 1104 606 1104V1008Z" fill="#F3BB4F"/>
<path d="M803 1008V1104C749.981 1104 707 1061.02 707 1008H803Z" fill="#F3BB4F"/>
</g>
<g clip-path="url(#clip11_76_3530)">
<path d="M96 1109V1205C42.9807 1205 0 1162.02 0 1109H96Z" fill="#F3BB4F"/>
<path d="M101 1205V1109C154.019 1109 197 1151.98 197 1205H101Z" fill="#F3BB4F"/>
<path d="M298 1109V1205C244.981 1205 202 1162.02 202 1109H298Z" fill="#F3BB4F"/>
<path d="M303 1109H399C399 1162.02 356.019 1205 303 1205V1109Z" fill="#F3BB4F"/>
<path d="M500 1109V1205C446.981 1205 404 1162.02 404 1109H500Z" fill="#A8C7AB"/>
<path d="M505 1205V1109C558.019 1109 601 1151.98 601 1205H505Z" fill="#A8C7AB"/>
<path d="M702 1205H606C606 1151.98 648.981 1109 702 1109V1205Z" fill="#F3BB4F"/>
<path d="M707 1109H803C803 1162.02 760.019 1205 707 1205V1109Z" fill="#F3BB4F"/>
</g>
<g clip-path="url(#clip12_76_3530)">
<path d="M96 1306H0C0 1252.98 42.9807 1210 96 1210L96 1306Z" fill="#EF8D61"/>
<path d="M101 1306V1210C154.019 1210 197 1252.98 197 1306H101Z" fill="#EF8D61"/>
<path d="M298 1210V1306C244.981 1306 202 1263.02 202 1210H298Z" fill="#F3BB4F"/>
<path d="M303 1306V1210C356.019 1210 399 1252.98 399 1306H303Z" fill="#F3BB4F"/>
<path d="M500 1210V1306C446.981 1306 404 1263.02 404 1210H500Z" fill="#F3BB4F"/>
<path d="M505 1306V1210C558.019 1210 601 1252.98 601 1306H505Z" fill="#F3BB4F"/>
<path d="M702 1210V1306C648.981 1306 606 1263.02 606 1210H702Z" fill="#F3BB4F"/>
<path d="M707 1306V1210C760.019 1210 803 1252.98 803 1306H707Z" fill="#F3BB4F"/>
</g>
<g clip-path="url(#clip13_76_3530)">
<path d="M0 1311H96C96 1364.02 53.0193 1407 0 1407L0 1311Z" fill="#F3BB4F"/>
<path d="M197 1311V1407C143.981 1407 101 1364.02 101 1311H197Z" fill="#F3BB4F"/>
<path d="M298 1407H202C202 1353.98 244.981 1311 298 1311V1407Z" fill="#F3BB4F"/>
<path d="M303 1311H399C399 1364.02 356.019 1407 303 1407V1311Z" fill="#F3BB4F"/>
<path d="M500 1407H404C404 1353.98 446.981 1311 500 1311V1407Z" fill="#F3BB4F"/>
<path d="M505 1311H601C601 1364.02 558.019 1407 505 1407V1311Z" fill="#F3BB4F"/>
<path d="M606 1407V1311C659.019 1311 702 1353.98 702 1407H606Z" fill="#EF8D61"/>
<path d="M803 1407H707C707 1353.98 749.981 1311 803 1311V1407Z" fill="#EF8D61"/>
</g>
<g clip-path="url(#clip14_76_3530)">
<path d="M96 1508H0C0 1454.98 42.9807 1412 96 1412L96 1508Z" fill="#F3BB4F"/>
<path d="M101 1412H197C197 1465.02 154.019 1508 101 1508V1412Z" fill="#F3BB4F"/>
<path d="M202 1508V1412C255.019 1412 298 1454.98 298 1508H202Z" fill="#EF8D61"/>
<path d="M399 1508H303C303 1454.98 345.981 1412 399 1412V1508Z" fill="#EF8D61"/>
<path d="M500 1508H404C404 1454.98 446.981 1412 500 1412V1508Z" fill="#F3BB4F"/>
<path d="M505 1508V1412C558.019 1412 601 1454.98 601 1508H505Z" fill="#F3BB4F"/>
<path d="M702 1412V1508C648.981 1508 606 1465.02 606 1412H702Z" fill="#F3BB4F"/>
<path d="M707 1412H803C803 1465.02 760.019 1508 707 1508V1412Z" fill="#F3BB4F"/>
</g>
<g clip-path="url(#clip15_76_3530)">
<path d="M96 1513V1609C42.9807 1609 0 1566.02 0 1513H96Z" fill="#F3BB4F"/>
<path d="M101 1609V1513C154.019 1513 197 1555.98 197 1609H101Z" fill="#F3BB4F"/>
<path d="M298 1513V1609C244.981 1609 202 1566.02 202 1513H298Z" fill="#F3BB4F"/>
<path d="M303 1513H399C399 1566.02 356.019 1609 303 1609V1513Z" fill="#F3BB4F"/>
<path d="M404 1513H500C500 1566.02 457.019 1609 404 1609V1513Z" fill="#F3BB4F"/>
<path d="M601 1513V1609C547.981 1609 505 1566.02 505 1513H601Z" fill="#F3BB4F"/>
<path d="M702 1609H606C606 1555.98 648.981 1513 702 1513V1609Z" fill="#F3BB4F"/>
<path d="M707 1513H803C803 1566.02 760.019 1609 707 1609V1513Z" fill="#F3BB4F"/>
</g>
<g clip-path="url(#clip16_76_3530)">
<path d="M902 0V96H806C806 42.9807 848.981 0 902 0Z" fill="#F3BB4F"/>
<path d="M907 0C960.019 0 1003 42.9807 1003 96H907V0Z" fill="#F3BB4F"/>
<path d="M1008 96C1008 42.9807 1050.98 0 1104 0V96H1008Z" fill="#F3BB4F"/>
<path d="M1205 0C1205 53.0193 1162.02 96 1109 96V0L1205 0Z" fill="#EF8D61"/>
<path d="M1210 96C1210 42.9807 1252.98 0 1306 0V96H1210Z" fill="#F3BB4F"/>
<path d="M1407 0C1407 53.0193 1364.02 96 1311 96V0L1407 0Z" fill="#F3BB4F"/>
<path d="M1412 0H1508V96C1454.98 96 1412 53.0193 1412 0Z" fill="#F3BB4F"/>
<path d="M1513 0C1566.02 0 1609 42.9807 1609 96H1513V0Z" fill="#F3BB4F"/>
</g>
<g clip-path="url(#clip17_76_3530)">
<path d="M902 101C902 154.019 859.019 197 806 197V101L902 101Z" fill="#F3BB4F"/>
<path d="M1003 101V197C949.981 197 907 154.019 907 101H1003Z" fill="#F3BB4F"/>
<path d="M1008 101H1104V197C1050.98 197 1008 154.019 1008 101Z" fill="#F3BB4F"/>
<path d="M1109 197V101C1162.02 101 1205 143.981 1205 197H1109Z" fill="#EF8D61"/>
<path d="M1306 101V197C1252.98 197 1210 154.019 1210 101H1306Z" fill="#F3BB4F"/>
<path d="M1407 197H1311V101C1364.02 101 1407 143.981 1407 197Z" fill="#F3BB4F"/>
<path d="M1412 197C1412 143.981 1454.98 101 1508 101V197H1412Z" fill="#F3BB4F"/>
<path d="M1513 101C1566.02 101 1609 143.981 1609 197H1513V101Z" fill="#F3BB4F"/>
</g>
<g clip-path="url(#clip18_76_3530)">
<path d="M806 298C806 244.981 848.981 202 902 202V298H806Z" fill="#EF8D61"/>
<path d="M907 202H1003C1003 255.019 960.019 298 907 298V202Z" fill="#F3BB4F"/>
<path d="M1008 298V202C1061.02 202 1104 244.981 1104 298H1008Z" fill="#F3BB4F"/>
<path d="M1205 298H1109C1109 244.981 1151.98 202 1205 202V298Z" fill="#F3BB4F"/>
<path d="M1306 298H1210C1210 244.981 1252.98 202 1306 202V298Z" fill="#F3BB4F"/>
<path d="M1311 202H1407C1407 255.019 1364.02 298 1311 298V202Z" fill="#F3BB4F"/>
<path d="M1412 202H1508C1508 255.019 1465.02 298 1412 298V202Z" fill="#F3BB4F"/>
<path d="M1609 202V298C1555.98 298 1513 255.019 1513 202H1609Z" fill="#F3BB4F"/>
</g>
<g clip-path="url(#clip19_76_3530)">
<path d="M902 303V399C848.981 399 806 356.019 806 303H902Z" fill="#EF8D61"/>
<path d="M907 399V303C960.019 303 1003 345.981 1003 399H907Z" fill="#F3BB4F"/>
<path d="M1104 303V399C1050.98 399 1008 356.019 1008 303H1104Z" fill="#F3BB4F"/>
<path d="M1109 303H1205C1205 356.019 1162.02 399 1109 399V303Z" fill="#F3BB4F"/>
<path d="M1306 303V399C1252.98 399 1210 356.019 1210 303H1306Z" fill="#F3BB4F"/>
<path d="M1311 399V303C1364.02 303 1407 345.981 1407 399H1311Z" fill="#F3BB4F"/>
<path d="M1508 399H1412C1412 345.981 1454.98 303 1508 303V399Z" fill="#F3BB4F"/>
<path d="M1513 303H1609C1609 356.019 1566.02 399 1513 399V303Z" fill="#EF8D61"/>
</g>
<g clip-path="url(#clip20_76_3530)">
<path d="M902 500H806C806 446.981 848.981 404 902 404V500Z" fill="#F3BB4F"/>
<path d="M907 500V404C960.019 404 1003 446.981 1003 500H907Z" fill="#F3BB4F"/>
<path d="M1104 404V500C1050.98 500 1008 457.019 1008 404H1104Z" fill="#A8C7AB"/>
<path d="M1109 500V404C1162.02 404 1205 446.981 1205 500H1109Z" fill="#A8C7AB"/>
<path d="M1306 404V500C1252.98 500 1210 457.019 1210 404H1306Z" fill="#F3BB4F"/>
<path d="M1311 500V404C1364.02 404 1407 446.981 1407 500H1311Z" fill="#F3BB4F"/>
<path d="M1508 404V500C1454.98 500 1412 457.019 1412 404H1508Z" fill="#F3BB4F"/>
<path d="M1513 500V404C1566.02 404 1609 446.981 1609 500H1513Z" fill="#EF8D61"/>
</g>
<g clip-path="url(#clip21_76_3530)">
<path d="M806 505H902C902 558.019 859.019 601 806 601V505Z" fill="#F3BB4F"/>
<path d="M1003 505V601C949.981 601 907 558.019 907 505H1003Z" fill="#F3BB4F"/>
<path d="M1104 601H1008C1008 547.981 1050.98 505 1104 505V601Z" fill="#A8C7AB"/>
<path d="M1109 505H1205C1205 558.019 1162.02 601 1109 601V505Z" fill="#A8C7AB"/>
<path d="M1306 601H1210C1210 547.981 1252.98 505 1306 505V601Z" fill="#F3BB4F"/>
<path d="M1311 505H1407C1407 558.019 1364.02 601 1311 601V505Z" fill="#F3BB4F"/>
<path d="M1508 505V601C1454.98 601 1412 558.019 1412 505H1508Z" fill="#F3BB4F"/>
<path d="M1513 601V505C1566.02 505 1609 547.981 1609 601H1513Z" fill="#F3BB4F"/>
</g>
<g clip-path="url(#clip22_76_3530)">
<path d="M902 702H806C806 648.981 848.981 606 902 606V702Z" fill="#F3BB4F"/>
<path d="M907 606H1003C1003 659.019 960.019 702 907 702V606Z" fill="#F3BB4F"/>
<path d="M1008 702V606C1061.02 606 1104 648.981 1104 702H1008Z" fill="#F3BB4F"/>
<path d="M1205 702H1109C1109 648.981 1151.98 606 1205 606V702Z" fill="#F3BB4F"/>
<path d="M1306 702H1210C1210 648.981 1252.98 606 1306 606V702Z" fill="#F3BB4F"/>
<path d="M1311 702V606C1364.02 606 1407 648.981 1407 702H1311Z" fill="#F3BB4F"/>
<path d="M1508 702H1412C1412 648.981 1454.98 606 1508 606V702Z" fill="#F3BB4F"/>
<path d="M1513 606H1609C1609 659.019 1566.02 702 1513 702V606Z" fill="#F3BB4F"/>
</g>
<g clip-path="url(#clip23_76_3530)">
<path d="M902 707V803C848.981 803 806 760.019 806 707H902Z" fill="#F3BB4F"/>
<path d="M907 803V707C960.019 707 1003 749.981 1003 803H907Z" fill="#F3BB4F"/>
<path d="M1104 707V803C1050.98 803 1008 760.019 1008 707H1104Z" fill="#F3BB4F"/>
<path d="M1109 707H1205C1205 760.019 1162.02 803 1109 803V707Z" fill="#F3BB4F"/>
<path d="M1210 707H1306C1306 760.019 1263.02 803 1210 803V707Z" fill="#EF8D61"/>
<path d="M1407 707V803C1353.98 803 1311 760.019 1311 707H1407Z" fill="#EF8D61"/>
<path d="M1508 803H1412C1412 749.981 1454.98 707 1508 707V803Z" fill="#F3BB4F"/>
<path d="M1513 803V707C1566.02 707 1609 749.981 1609 803H1513Z" fill="#F3BB4F"/>
</g>
<g clip-path="url(#clip24_76_3530)">
<path d="M806 806H902V902C848.981 902 806 859.019 806 806Z" fill="#F3BB4F"/>
<path d="M907 806C960.019 806 1003 848.981 1003 902H907V806Z" fill="#F3BB4F"/>
<path d="M1008 806C1061.02 806 1104 848.981 1104 902H1008V806Z" fill="#EF8D61"/>
<path d="M1109 902C1109 848.981 1151.98 806 1205 806V902H1109Z" fill="#EF8D61"/>
<path d="M1210 902C1210 848.981 1252.98 806 1306 806V902H1210Z" fill="#F3BB4F"/>
<path d="M1311 806C1364.02 806 1407 848.981 1407 902H1311V806Z" fill="#F3BB4F"/>
<path d="M1412 902V806H1508C1508 859.019 1465.02 902 1412 902Z" fill="#F3BB4F"/>
<path d="M1609 902C1555.98 902 1513 859.019 1513 806H1609V902Z" fill="#F3BB4F"/>
</g>
<g clip-path="url(#clip25_76_3530)">
<path d="M806 1003C806 949.981 848.981 907 902 907V1003H806Z" fill="#F3BB4F"/>
<path d="M907 907H1003C1003 960.019 960.019 1003 907 1003V907Z" fill="#F3BB4F"/>
<path d="M1008 907H1104V1003C1050.98 1003 1008 960.019 1008 907Z" fill="#F3BB4F"/>
<path d="M1109 907H1205C1205 960.019 1162.02 1003 1109 1003V907Z" fill="#F3BB4F"/>
<path d="M1210 907H1306C1306 960.019 1263.02 1003 1210 1003V907Z" fill="#F3BB4F"/>
<path d="M1311 907H1407V1003C1353.98 1003 1311 960.019 1311 907Z" fill="#F3BB4F"/>
<path d="M1412 1003C1412 949.981 1454.98 907 1508 907V1003H1412Z" fill="#F3BB4F"/>
<path d="M1513 907C1566.02 907 1609 949.981 1609 1003H1513V907Z" fill="#F3BB4F"/>
</g>
<g clip-path="url(#clip26_76_3530)">
<path d="M806 1104C806 1050.98 848.981 1008 902 1008V1104H806Z" fill="#F3BB4F"/>
<path d="M907 1008H1003C1003 1061.02 960.019 1104 907 1104V1008Z" fill="#EF8D61"/>
<path d="M1008 1104V1008C1061.02 1008 1104 1050.98 1104 1104H1008Z" fill="#F3BB4F"/>
<path d="M1205 1104H1109C1109 1050.98 1151.98 1008 1205 1008V1104Z" fill="#F3BB4F"/>
<path d="M1306 1104H1210C1210 1050.98 1252.98 1008 1306 1008V1104Z" fill="#F3BB4F"/>
<path d="M1311 1008H1407C1407 1061.02 1364.02 1104 1311 1104V1008Z" fill="#F3BB4F"/>
<path d="M1412 1008H1508C1508 1061.02 1465.02 1104 1412 1104V1008Z" fill="#EF8D61"/>
<path d="M1609 1008V1104C1555.98 1104 1513 1061.02 1513 1008H1609Z" fill="#EF8D61"/>
</g>
<g clip-path="url(#clip27_76_3530)">
<path d="M902 1109V1205C848.981 1205 806 1162.02 806 1109H902Z" fill="#F3BB4F"/>
<path d="M907 1205V1109C960.019 1109 1003 1151.98 1003 1205H907Z" fill="#EF8D61"/>
<path d="M1104 1109V1205C1050.98 1205 1008 1162.02 1008 1109H1104Z" fill="#F3BB4F"/>
<path d="M1109 1109H1205C1205 1162.02 1162.02 1205 1109 1205V1109Z" fill="#F3BB4F"/>
<path d="M1306 1109V1205C1252.98 1205 1210 1162.02 1210 1109H1306Z" fill="#F3BB4F"/>
<path d="M1311 1205V1109C1364.02 1109 1407 1151.98 1407 1205H1311Z" fill="#F3BB4F"/>
<path d="M1508 1205H1412C1412 1151.98 1454.98 1109 1508 1109V1205Z" fill="#F3BB4F"/>
<path d="M1513 1109H1609C1609 1162.02 1566.02 1205 1513 1205V1109Z" fill="#F3BB4F"/>
</g>
<g clip-path="url(#clip28_76_3530)">
<path d="M902 1306H806C806 1252.98 848.981 1210 902 1210V1306Z" fill="#F3BB4F"/>
<path d="M907 1306V1210C960.019 1210 1003 1252.98 1003 1306H907Z" fill="#F3BB4F"/>
<path d="M1104 1210V1306C1050.98 1306 1008 1263.02 1008 1210H1104Z" fill="#EF8D61"/>
<path d="M1109 1306V1210C1162.02 1210 1205 1252.98 1205 1306H1109Z" fill="#F3BB4F"/>
<path d="M1306 1210V1306C1252.98 1306 1210 1263.02 1210 1210H1306Z" fill="#F3BB4F"/>
<path d="M1311 1306V1210C1364.02 1210 1407 1252.98 1407 1306H1311Z" fill="#F3BB4F"/>
<path d="M1508 1210V1306C1454.98 1306 1412 1263.02 1412 1210H1508Z" fill="#F3BB4F"/>
<path d="M1513 1306V1210C1566.02 1210 1609 1252.98 1609 1306H1513Z" fill="#F3BB4F"/>
</g>
<g clip-path="url(#clip29_76_3530)">
<path d="M806 1311H902C902 1364.02 859.019 1407 806 1407V1311Z" fill="#F3BB4F"/>
<path d="M1003 1311V1407C949.981 1407 907 1364.02 907 1311H1003Z" fill="#F3BB4F"/>
<path d="M1104 1407H1008C1008 1353.98 1050.98 1311 1104 1311V1407Z" fill="#EF8D61"/>
<path d="M1109 1311H1205C1205 1364.02 1162.02 1407 1109 1407V1311Z" fill="#F3BB4F"/>
<path d="M1306 1407H1210C1210 1353.98 1252.98 1311 1306 1311V1407Z" fill="#F3BB4F"/>
<path d="M1311 1311H1407C1407 1364.02 1364.02 1407 1311 1407V1311Z" fill="#F3BB4F"/>
<path d="M1412 1407V1311C1465.02 1311 1508 1353.98 1508 1407H1412Z" fill="#F3BB4F"/>
<path d="M1609 1407H1513C1513 1353.98 1555.98 1311 1609 1311V1407Z" fill="#F3BB4F"/>
</g>
<g clip-path="url(#clip30_76_3530)">
<path d="M902 1508H806C806 1454.98 848.981 1412 902 1412V1508Z" fill="#F3BB4F"/>
<path d="M907 1412H1003C1003 1465.02 960.019 1508 907 1508V1412Z" fill="#F3BB4F"/>
<path d="M1008 1508V1412C1061.02 1412 1104 1454.98 1104 1508H1008Z" fill="#F3BB4F"/>
<path d="M1205 1508H1109C1109 1454.98 1151.98 1412 1205 1412V1508Z" fill="#F3BB4F"/>
<path d="M1306 1508H1210C1210 1454.98 1252.98 1412 1306 1412V1508Z" fill="#A8C7AB"/>
<path d="M1311 1508V1412C1364.02 1412 1407 1454.98 1407 1508H1311Z" fill="#A8C7AB"/>
<path d="M1508 1412V1508C1454.98 1508 1412 1465.02 1412 1412H1508Z" fill="#F3BB4F"/>
<path d="M1513 1412H1609C1609 1465.02 1566.02 1508 1513 1508V1412Z" fill="#F3BB4F"/>
</g>
<g clip-path="url(#clip31_76_3530)">
<path d="M902 1513V1609C848.981 1609 806 1566.02 806 1513H902Z" fill="#F3BB4F"/>
<path d="M907 1609V1513C960.019 1513 1003 1555.98 1003 1609H907Z" fill="#F3BB4F"/>
<path d="M1104 1513V1609C1050.98 1609 1008 1566.02 1008 1513H1104Z" fill="#F3BB4F"/>
<path d="M1109 1513H1205C1205 1566.02 1162.02 1609 1109 1609V1513Z" fill="#F3BB4F"/>
<path d="M1210 1513H1306C1306 1566.02 1263.02 1609 1210 1609V1513Z" fill="#A8C7AB"/>
<path d="M1407 1513V1609C1353.98 1609 1311 1566.02 1311 1513H1407Z" fill="#A8C7AB"/>
<path d="M1508 1609H1412C1412 1555.98 1454.98 1513 1508 1513V1609Z" fill="#F3BB4F"/>
<path d="M1513 1513H1609C1609 1566.02 1566.02 1609 1513 1609V1513Z" fill="#F3BB4F"/>
</g>
<defs>
<clipPath id="clip0_76_3530">
<rect width="803" height="96" fill="white"/>
</clipPath>
<clipPath id="clip1_76_3530">
<rect width="803" height="96" fill="white" transform="translate(0 101)"/>
</clipPath>
<clipPath id="clip2_76_3530">
<rect width="803" height="96" fill="white" transform="translate(0 202)"/>
</clipPath>
<clipPath id="clip3_76_3530">
<rect width="803" height="96" fill="white" transform="translate(0 303)"/>
</clipPath>
<clipPath id="clip4_76_3530">
<rect width="803" height="96" fill="white" transform="translate(0 404)"/>
</clipPath>
<clipPath id="clip5_76_3530">
<rect width="803" height="96" fill="white" transform="translate(0 505)"/>
</clipPath>
<clipPath id="clip6_76_3530">
<rect width="803" height="96" fill="white" transform="translate(0 606)"/>
</clipPath>
<clipPath id="clip7_76_3530">
<rect width="803" height="96" fill="white" transform="translate(0 707)"/>
</clipPath>
<clipPath id="clip8_76_3530">
<rect width="803" height="96" fill="white" transform="translate(0 806)"/>
</clipPath>
<clipPath id="clip9_76_3530">
<rect width="803" height="96" fill="white" transform="translate(0 907)"/>
</clipPath>
<clipPath id="clip10_76_3530">
<rect width="803" height="96" fill="white" transform="translate(0 1008)"/>
</clipPath>
<clipPath id="clip11_76_3530">
<rect width="803" height="96" fill="white" transform="translate(0 1109)"/>
</clipPath>
<clipPath id="clip12_76_3530">
<rect width="803" height="96" fill="white" transform="translate(0 1210)"/>
</clipPath>
<clipPath id="clip13_76_3530">
<rect width="803" height="96" fill="white" transform="translate(0 1311)"/>
</clipPath>
<clipPath id="clip14_76_3530">
<rect width="803" height="96" fill="white" transform="translate(0 1412)"/>
</clipPath>
<clipPath id="clip15_76_3530">
<rect width="803" height="96" fill="white" transform="translate(0 1513)"/>
</clipPath>
<clipPath id="clip16_76_3530">
<rect width="803" height="96" fill="white" transform="translate(806)"/>
</clipPath>
<clipPath id="clip17_76_3530">
<rect width="803" height="96" fill="white" transform="translate(806 101)"/>
</clipPath>
<clipPath id="clip18_76_3530">
<rect width="803" height="96" fill="white" transform="translate(806 202)"/>
</clipPath>
<clipPath id="clip19_76_3530">
<rect width="803" height="96" fill="white" transform="translate(806 303)"/>
</clipPath>
<clipPath id="clip20_76_3530">
<rect width="803" height="96" fill="white" transform="translate(806 404)"/>
</clipPath>
<clipPath id="clip21_76_3530">
<rect width="803" height="96" fill="white" transform="translate(806 505)"/>
</clipPath>
<clipPath id="clip22_76_3530">
<rect width="803" height="96" fill="white" transform="translate(806 606)"/>
</clipPath>
<clipPath id="clip23_76_3530">
<rect width="803" height="96" fill="white" transform="translate(806 707)"/>
</clipPath>
<clipPath id="clip24_76_3530">
<rect width="803" height="96" fill="white" transform="translate(806 806)"/>
</clipPath>
<clipPath id="clip25_76_3530">
<rect width="803" height="96" fill="white" transform="translate(806 907)"/>
</clipPath>
<clipPath id="clip26_76_3530">
<rect width="803" height="96" fill="white" transform="translate(806 1008)"/>
</clipPath>
<clipPath id="clip27_76_3530">
<rect width="803" height="96" fill="white" transform="translate(806 1109)"/>
</clipPath>
<clipPath id="clip28_76_3530">
<rect width="803" height="96" fill="white" transform="translate(806 1210)"/>
</clipPath>
<clipPath id="clip29_76_3530">
<rect width="803" height="96" fill="white" transform="translate(806 1311)"/>
</clipPath>
<clipPath id="clip30_76_3530">
<rect width="803" height="96" fill="white" transform="translate(806 1412)"/>
</clipPath>
<clipPath id="clip31_76_3530">
<rect width="803" height="96" fill="white" transform="translate(806 1513)"/>
</clipPath>
</defs>
</svg>
