<svg width="1614" height="1614" viewBox="0 0 1614 1614" fill="none" xmlns="http://www.w3.org/2000/svg">
<rect width="1614" height="1614" fill="#F4F5E4"/>
<g clip-path="url(#clip0_76_3530)">
<path d="M0 0H96V96V96C42.9807 96 0 53.0193 0 0V0Z" fill="#ECBB5D"/>
<path d="M101 0V0C154.019 0 197 42.9807 197 96V96H101V0Z" fill="#E09472"/>
<path d="M202 0V0C255.019 0 298 42.9807 298 96V96H202V0Z" fill="#ECBB5D"/>
<path d="M303 96C303 42.9807 345.981 0 399 0V0V96H303V96Z" fill="#ECBB5D"/>
<path d="M404 96C404 42.9807 446.981 0 500 0V0V96H404V96Z" fill="#ECBB5D"/>
<path d="M505 0V0C558.019 0 601 42.9807 601 96V96H505V0Z" fill="#ECBB5D"/>
<path d="M606 0H702V96V96C648.981 96 606 53.0193 606 0V0Z" fill="#ECBB5D"/>
<path d="M707 0V0C760.019 0 803 42.9807 803 96V96H707V0Z" fill="#ECBB5D"/>
</g>
<g clip-path="url(#clip1_76_3530)">
<path d="M0 197C0 143.981 42.9807 101 96 101V101V197H0V197Z" fill="#ECBB5D"/>
<path d="M101 101H197V101C197 154.019 154.019 197 101 197V197V101Z" fill="#E09472"/>
<path d="M202 101H298V197V197C244.981 197 202 154.019 202 101V101Z" fill="#ECBB5D"/>
<path d="M303 101H399V101C399 154.019 356.019 197 303 197V197V101Z" fill="#ECBB5D"/>
<path d="M404 101H500V101C500 154.019 457.019 197 404 197V197V101Z" fill="#ECBB5D"/>
<path d="M505 101H601V197V197C547.981 197 505 154.019 505 101V101Z" fill="#ECBB5D"/>
<path d="M606 197C606 143.981 648.981 101 702 101V101V197H606V197Z" fill="#ECBB5D"/>
<path d="M707 101V101C760.019 101 803 143.981 803 197V197H707V101Z" fill="#ECBB5D"/>
</g>
<g clip-path="url(#clip2_76_3530)">
<path d="M0 298C0 244.981 42.9807 202 96 202V202V298H0V298Z" fill="#ECBB5D"/>
<path d="M101 202H197V202C197 255.019 154.019 298 101 298V298V202Z" fill="#ECBB5D"/>
<path d="M202 298V202C255.019 202 298 244.981 298 298H202Z" fill="#A8C7AB"/>
<path d="M399 298H303C303 244.981 345.981 202 399 202V298Z" fill="#A8C7AB"/>
<path d="M500 298H404V298C404 244.981 446.981 202 500 202V202V298Z" fill="#ECBB5D"/>
<path d="M505 202H601V202C601 255.019 558.019 298 505 298V298V202Z" fill="#ECBB5D"/>
<path d="M606 202H702V202C702 255.019 659.019 298 606 298V298V202Z" fill="#ECBB5D"/>
<path d="M803 202V298V298C749.981 298 707 255.019 707 202V202H803Z" fill="#ECBB5D"/>
</g>
<g clip-path="url(#clip3_76_3530)">
<path d="M96 303V399V399C42.9807 399 0 356.019 0 303V303H96Z" fill="#ECBB5D"/>
<path d="M101 399V303V303C154.019 303 197 345.981 197 399V399H101Z" fill="#ECBB5D"/>
<path d="M298 303V399C244.981 399 202 356.019 202 303H298Z" fill="#A8C7AB"/>
<path d="M303 303H399C399 356.019 356.019 399 303 399V303Z" fill="#A8C7AB"/>
<path d="M500 303V399V399C446.981 399 404 356.019 404 303V303H500Z" fill="#ECBB5D"/>
<path d="M505 399V303V303C558.019 303 601 345.981 601 399V399H505Z" fill="#ECBB5D"/>
<path d="M702 399H606V399C606 345.981 648.981 303 702 303V303V399Z" fill="#ECBB5D"/>
<path d="M707 303H803V303C803 356.019 760.019 399 707 399V399V303Z" fill="#ECBB5D"/>
</g>
<g clip-path="url(#clip4_76_3530)">
<path d="M96 500H0V500C0 446.981 42.9807 404 96 404V404L96 500Z" fill="#ECBB5D"/>
<path d="M101 500V404V404C154.019 404 197 446.981 197 500V500H101Z" fill="#ECBB5D"/>
<path d="M298 404V500V500C244.981 500 202 457.019 202 404V404H298Z" fill="#ECBB5D"/>
<path d="M303 500V404V404C356.019 404 399 446.981 399 500V500H303Z" fill="#ECBB5D"/>
<path d="M500 404V500V500C446.981 500 404 457.019 404 404V404H500Z" fill="#E09472"/>
<path d="M505 500V404V404C558.019 404 601 446.981 601 500V500H505Z" fill="#ECBB5D"/>
<path d="M702 404V500V500C648.981 500 606 457.019 606 404V404H702Z" fill="#ECBB5D"/>
<path d="M707 500V404V404C760.019 404 803 446.981 803 500V500H707Z" fill="#ECBB5D"/>
</g>
<g clip-path="url(#clip5_76_3530)">
<path d="M0 505H96V505C96 558.019 53.0193 601 0 601V601L0 505Z" fill="#ECBB5D"/>
<path d="M197 505V601V601C143.981 601 101 558.019 101 505V505H197Z" fill="#ECBB5D"/>
<path d="M298 601H202V601C202 547.981 244.981 505 298 505V505V601Z" fill="#ECBB5D"/>
<path d="M303 505H399V505C399 558.019 356.019 601 303 601V601V505Z" fill="#ECBB5D"/>
<path d="M500 601H404V601C404 547.981 446.981 505 500 505V505V601Z" fill="#E09472"/>
<path d="M505 505H601V505C601 558.019 558.019 601 505 601V601V505Z" fill="#ECBB5D"/>
<path d="M702 505V601V601C648.981 601 606 558.019 606 505V505H702Z" fill="#ECBB5D"/>
<path d="M707 601V505V505C760.019 505 803 547.981 803 601V601H707Z" fill="#ECBB5D"/>
</g>
<g clip-path="url(#clip6_76_3530)">
<path d="M96 702H0V702C0 648.981 42.9807 606 96 606V606L96 702Z" fill="#ECBB5D"/>
<path d="M101 606H197V606C197 659.019 154.019 702 101 702V702V606Z" fill="#ECBB5D"/>
<path d="M202 702V606V606C255.019 606 298 648.981 298 702V702H202Z" fill="#ECBB5D"/>
<path d="M399 702H303V702C303 648.981 345.981 606 399 606V606V702Z" fill="#ECBB5D"/>
<path d="M500 702H404V702C404 648.981 446.981 606 500 606V606V702Z" fill="#ECBB5D"/>
<path d="M505 702V606V606C558.019 606 601 648.981 601 702V702H505Z" fill="#ECBB5D"/>
<path d="M702 702H606V702C606 648.981 648.981 606 702 606V606V702Z" fill="#ECBB5D"/>
<path d="M707 606H803V606C803 659.019 760.019 702 707 702V702V606Z" fill="#ECBB5D"/>
</g>
<g clip-path="url(#clip7_76_3530)">
<path d="M96 707V803V803C42.9807 803 0 760.019 0 707V707H96Z" fill="#ECBB5D"/>
<path d="M101 803V707V707C154.019 707 197 749.981 197 803V803H101Z" fill="#ECBB5D"/>
<path d="M298 707V803V803C244.981 803 202 760.019 202 707V707H298Z" fill="#ECBB5D"/>
<path d="M303 707H399V707C399 760.019 356.019 803 303 803V803V707Z" fill="#ECBB5D"/>
<path d="M404 707H500V707C500 760.019 457.019 803 404 803V803V707Z" fill="#ECBB5D"/>
<path d="M601 707V803V803C547.981 803 505 760.019 505 707V707H601Z" fill="#ECBB5D"/>
<path d="M702 803H606V803C606 749.981 648.981 707 702 707V707V803Z" fill="#ECBB5D"/>
<path d="M707 803V707V707C760.019 707 803 749.981 803 803V803H707Z" fill="#ECBB5D"/>
</g>
<g clip-path="url(#clip8_76_3530)">
<path d="M0 806H96V902V902C42.9807 902 0 859.019 0 806V806Z" fill="#ECBB5D"/>
<path d="M101 806V806C154.019 806 197 848.981 197 902V902H101V806Z" fill="#ECBB5D"/>
<path d="M202 806V806C255.019 806 298 848.981 298 902V902H202V806Z" fill="#E09472"/>
<path d="M303 902C303 848.981 345.981 806 399 806V806V902H303V902Z" fill="#E09472"/>
<path d="M404 902C404 848.981 446.981 806 500 806V806V902H404V902Z" fill="#ECBB5D"/>
<path d="M505 806V806C558.019 806 601 848.981 601 902V902H505V806Z" fill="#ECBB5D"/>
<path d="M606 902V806H702V806C702 859.019 659.019 902 606 902V902Z" fill="#E09472"/>
<path d="M803 902V902C749.981 902 707 859.019 707 806V806H803V902Z" fill="#E09472"/>
</g>
<g clip-path="url(#clip9_76_3530)">
<path d="M0 1003C0 949.981 42.9807 907 96 907V907V1003H0V1003Z" fill="#ECBB5D"/>
<path d="M101 907H197V907C197 960.019 154.019 1003 101 1003V1003V907Z" fill="#ECBB5D"/>
<path d="M202 907H298V1003V1003C244.981 1003 202 960.019 202 907V907Z" fill="#ECBB5D"/>
<path d="M303 907H399V907C399 960.019 356.019 1003 303 1003V1003V907Z" fill="#ECBB5D"/>
<path d="M404 907H500V907C500 960.019 457.019 1003 404 1003V1003V907Z" fill="#ECBB5D"/>
<path d="M505 907H601V1003V1003C547.981 1003 505 960.019 505 907V907Z" fill="#ECBB5D"/>
<path d="M606 1003C606 949.981 648.981 907 702 907V907V1003H606V1003Z" fill="#ECBB5D"/>
<path d="M707 907V907C760.019 907 803 949.981 803 1003V1003H707V907Z" fill="#ECBB5D"/>
</g>
<g clip-path="url(#clip10_76_3530)">
<path d="M0 1104C0 1050.98 42.9807 1008 96 1008V1008V1104H0V1104Z" fill="#ECBB5D"/>
<path d="M101 1008H197V1008C197 1061.02 154.019 1104 101 1104V1104V1008Z" fill="#ECBB5D"/>
<path d="M202 1104V1008V1008C255.019 1008 298 1050.98 298 1104V1104H202Z" fill="#ECBB5D"/>
<path d="M399 1104H303V1104C303 1050.98 345.981 1008 399 1008V1008V1104Z" fill="#ECBB5D"/>
<path d="M500 1104H404C404 1050.98 446.981 1008 500 1008V1104Z" fill="#A8C7AB"/>
<path d="M505 1008H601C601 1061.02 558.019 1104 505 1104V1008Z" fill="#A8C7AB"/>
<path d="M606 1008H702V1008C702 1061.02 659.019 1104 606 1104V1104V1008Z" fill="#ECBB5D"/>
<path d="M803 1008V1104V1104C749.981 1104 707 1061.02 707 1008V1008H803Z" fill="#ECBB5D"/>
</g>
<g clip-path="url(#clip11_76_3530)">
<path d="M96 1109V1205V1205C42.9807 1205 0 1162.02 0 1109V1109H96Z" fill="#ECBB5D"/>
<path d="M101 1205V1109V1109C154.019 1109 197 1151.98 197 1205V1205H101Z" fill="#ECBB5D"/>
<path d="M298 1109V1205V1205C244.981 1205 202 1162.02 202 1109V1109H298Z" fill="#ECBB5D"/>
<path d="M303 1109H399V1109C399 1162.02 356.019 1205 303 1205V1205V1109Z" fill="#ECBB5D"/>
<path d="M500 1109V1205C446.981 1205 404 1162.02 404 1109H500Z" fill="#A8C7AB"/>
<path d="M505 1205V1109C558.019 1109 601 1151.98 601 1205H505Z" fill="#A8C7AB"/>
<path d="M702 1205H606V1205C606 1151.98 648.981 1109 702 1109V1109V1205Z" fill="#ECBB5D"/>
<path d="M707 1109H803V1109C803 1162.02 760.019 1205 707 1205V1205V1109Z" fill="#ECBB5D"/>
</g>
<g clip-path="url(#clip12_76_3530)">
<path d="M96 1306H0V1306C0 1252.98 42.9807 1210 96 1210V1210L96 1306Z" fill="#E09472"/>
<path d="M101 1306V1210V1210C154.019 1210 197 1252.98 197 1306V1306H101Z" fill="#E09472"/>
<path d="M298 1210V1306V1306C244.981 1306 202 1263.02 202 1210V1210H298Z" fill="#ECBB5D"/>
<path d="M303 1306V1210V1210C356.019 1210 399 1252.98 399 1306V1306H303Z" fill="#ECBB5D"/>
<path d="M500 1210V1306V1306C446.981 1306 404 1263.02 404 1210V1210H500Z" fill="#ECBB5D"/>
<path d="M505 1306V1210V1210C558.019 1210 601 1252.98 601 1306V1306H505Z" fill="#ECBB5D"/>
<path d="M702 1210V1306V1306C648.981 1306 606 1263.02 606 1210V1210H702Z" fill="#ECBB5D"/>
<path d="M707 1306V1210V1210C760.019 1210 803 1252.98 803 1306V1306H707Z" fill="#ECBB5D"/>
</g>
<g clip-path="url(#clip13_76_3530)">
<path d="M0 1311H96V1311C96 1364.02 53.0193 1407 0 1407V1407L0 1311Z" fill="#ECBB5D"/>
<path d="M197 1311V1407V1407C143.981 1407 101 1364.02 101 1311V1311H197Z" fill="#ECBB5D"/>
<path d="M298 1407H202V1407C202 1353.98 244.981 1311 298 1311V1311V1407Z" fill="#ECBB5D"/>
<path d="M303 1311H399V1311C399 1364.02 356.019 1407 303 1407V1407V1311Z" fill="#ECBB5D"/>
<path d="M500 1407H404V1407C404 1353.98 446.981 1311 500 1311V1311V1407Z" fill="#ECBB5D"/>
<path d="M505 1311H601V1311C601 1364.02 558.019 1407 505 1407V1407V1311Z" fill="#ECBB5D"/>
<path d="M606 1407V1311V1311C659.019 1311 702 1353.98 702 1407V1407H606Z" fill="#E09472"/>
<path d="M803 1407H707V1407C707 1353.98 749.981 1311 803 1311V1311V1407Z" fill="#E09472"/>
</g>
<g clip-path="url(#clip14_76_3530)">
<path d="M96 1508H0V1508C0 1454.98 42.9807 1412 96 1412V1412L96 1508Z" fill="#ECBB5D"/>
<path d="M101 1412H197V1412C197 1465.02 154.019 1508 101 1508V1508V1412Z" fill="#ECBB5D"/>
<path d="M202 1508V1412V1412C255.019 1412 298 1454.98 298 1508V1508H202Z" fill="#E09472"/>
<path d="M399 1508H303V1508C303 1454.98 345.981 1412 399 1412V1412V1508Z" fill="#E09472"/>
<path d="M500 1508H404V1508C404 1454.98 446.981 1412 500 1412V1412V1508Z" fill="#ECBB5D"/>
<path d="M505 1508V1412V1412C558.019 1412 601 1454.98 601 1508V1508H505Z" fill="#ECBB5D"/>
<path d="M702 1412V1508V1508C648.981 1508 606 1465.02 606 1412V1412H702Z" fill="#ECBB5D"/>
<path d="M707 1412H803V1412C803 1465.02 760.019 1508 707 1508V1508V1412Z" fill="#ECBB5D"/>
</g>
<g clip-path="url(#clip15_76_3530)">
<path d="M96 1513V1609V1609C42.9807 1609 0 1566.02 0 1513V1513H96Z" fill="#ECBB5D"/>
<path d="M101 1609V1513V1513C154.019 1513 197 1555.98 197 1609V1609H101Z" fill="#ECBB5D"/>
<path d="M298 1513V1609V1609C244.981 1609 202 1566.02 202 1513V1513H298Z" fill="#ECBB5D"/>
<path d="M303 1513H399V1513C399 1566.02 356.019 1609 303 1609V1609V1513Z" fill="#ECBB5D"/>
<path d="M404 1513H500V1513C500 1566.02 457.019 1609 404 1609V1609V1513Z" fill="#ECBB5D"/>
<path d="M601 1513V1609V1609C547.981 1609 505 1566.02 505 1513V1513H601Z" fill="#ECBB5D"/>
<path d="M702 1609H606V1609C606 1555.98 648.981 1513 702 1513V1513V1609Z" fill="#ECBB5D"/>
<path d="M707 1513H803V1513C803 1566.02 760.019 1609 707 1609V1609V1513Z" fill="#ECBB5D"/>
</g>
<g clip-path="url(#clip16_76_3530)">
<path d="M902 0V96H806V96C806 42.9807 848.981 0 902 0V0Z" fill="#ECBB5D"/>
<path d="M907 0V0C960.019 0 1003 42.9807 1003 96V96H907V0Z" fill="#ECBB5D"/>
<path d="M1008 96V96C1008 42.9807 1050.98 0 1104 0V0V96H1008Z" fill="#ECBB5D"/>
<path d="M1205 0C1205 53.0193 1162.02 96 1109 96V96V0L1205 0V0Z" fill="#E09472"/>
<path d="M1210 96C1210 42.9807 1252.98 0 1306 0V0V96H1210V96Z" fill="#ECBB5D"/>
<path d="M1407 0V0C1407 53.0193 1364.02 96 1311 96V96V0L1407 0Z" fill="#ECBB5D"/>
<path d="M1412 0H1508V96V96C1454.98 96 1412 53.0193 1412 0V0Z" fill="#ECBB5D"/>
<path d="M1513 0V0C1566.02 0 1609 42.9807 1609 96V96H1513V0Z" fill="#ECBB5D"/>
</g>
<g clip-path="url(#clip17_76_3530)">
<path d="M902 101C902 154.019 859.019 197 806 197V197V101L902 101V101Z" fill="#ECBB5D"/>
<path d="M1003 101V197V197C949.981 197 907 154.019 907 101V101H1003Z" fill="#ECBB5D"/>
<path d="M1008 101H1104V197V197C1050.98 197 1008 154.019 1008 101V101Z" fill="#ECBB5D"/>
<path d="M1109 197V101V101C1162.02 101 1205 143.981 1205 197V197H1109Z" fill="#E09472"/>
<path d="M1306 101V197V197C1252.98 197 1210 154.019 1210 101V101H1306Z" fill="#ECBB5D"/>
<path d="M1407 197H1311V101V101C1364.02 101 1407 143.981 1407 197V197Z" fill="#ECBB5D"/>
<path d="M1412 197C1412 143.981 1454.98 101 1508 101V101V197H1412V197Z" fill="#ECBB5D"/>
<path d="M1513 101V101C1566.02 101 1609 143.981 1609 197V197H1513V101Z" fill="#ECBB5D"/>
</g>
<g clip-path="url(#clip18_76_3530)">
<path d="M806 298C806 244.981 848.981 202 902 202V202V298H806V298Z" fill="#E09472"/>
<path d="M907 202H1003V202C1003 255.019 960.019 298 907 298V298V202Z" fill="#ECBB5D"/>
<path d="M1008 298V202V202C1061.02 202 1104 244.981 1104 298V298H1008Z" fill="#ECBB5D"/>
<path d="M1205 298H1109V298C1109 244.981 1151.98 202 1205 202V202V298Z" fill="#ECBB5D"/>
<path d="M1306 298H1210V298C1210 244.981 1252.98 202 1306 202V202V298Z" fill="#ECBB5D"/>
<path d="M1311 202H1407V202C1407 255.019 1364.02 298 1311 298V298V202Z" fill="#ECBB5D"/>
<path d="M1412 202H1508V202C1508 255.019 1465.02 298 1412 298V298V202Z" fill="#ECBB5D"/>
<path d="M1609 202V298V298C1555.98 298 1513 255.019 1513 202V202H1609Z" fill="#ECBB5D"/>
</g>
<g clip-path="url(#clip19_76_3530)">
<path d="M902 303V399V399C848.981 399 806 356.019 806 303V303H902Z" fill="#E09472"/>
<path d="M907 399V303V303C960.019 303 1003 345.981 1003 399V399H907Z" fill="#ECBB5D"/>
<path d="M1104 303V399V399C1050.98 399 1008 356.019 1008 303V303H1104Z" fill="#ECBB5D"/>
<path d="M1109 303H1205V303C1205 356.019 1162.02 399 1109 399V399V303Z" fill="#ECBB5D"/>
<path d="M1306 303V399V399C1252.98 399 1210 356.019 1210 303V303H1306Z" fill="#ECBB5D"/>
<path d="M1311 399V303V303C1364.02 303 1407 345.981 1407 399V399H1311Z" fill="#ECBB5D"/>
<path d="M1508 399H1412V399C1412 345.981 1454.98 303 1508 303V303V399Z" fill="#ECBB5D"/>
<path d="M1513 303H1609V303C1609 356.019 1566.02 399 1513 399V399V303Z" fill="#E09472"/>
</g>
<g clip-path="url(#clip20_76_3530)">
<path d="M902 500H806V500C806 446.981 848.981 404 902 404V404V500Z" fill="#ECBB5D"/>
<path d="M907 500V404V404C960.019 404 1003 446.981 1003 500V500H907Z" fill="#ECBB5D"/>
<path d="M1104 404V500C1050.98 500 1008 457.019 1008 404H1104Z" fill="#A8C7AB"/>
<path d="M1109 500V404C1162.02 404 1205 446.981 1205 500H1109Z" fill="#A8C7AB"/>
<path d="M1306 404V500V500C1252.98 500 1210 457.019 1210 404V404H1306Z" fill="#ECBB5D"/>
<path d="M1311 500V404V404C1364.02 404 1407 446.981 1407 500V500H1311Z" fill="#ECBB5D"/>
<path d="M1508 404V500V500C1454.98 500 1412 457.019 1412 404V404H1508Z" fill="#ECBB5D"/>
<path d="M1513 500V404V404C1566.02 404 1609 446.981 1609 500V500H1513Z" fill="#E09472"/>
</g>
<g clip-path="url(#clip21_76_3530)">
<path d="M806 505H902V505C902 558.019 859.019 601 806 601V601V505Z" fill="#ECBB5D"/>
<path d="M1003 505V601V601C949.981 601 907 558.019 907 505V505H1003Z" fill="#ECBB5D"/>
<path d="M1104 601H1008C1008 547.981 1050.98 505 1104 505V601Z" fill="#A8C7AB"/>
<path d="M1109 505H1205C1205 558.019 1162.02 601 1109 601V505Z" fill="#A8C7AB"/>
<path d="M1306 601H1210V601C1210 547.981 1252.98 505 1306 505V505V601Z" fill="#ECBB5D"/>
<path d="M1311 505H1407V505C1407 558.019 1364.02 601 1311 601V601V505Z" fill="#ECBB5D"/>
<path d="M1508 505V601V601C1454.98 601 1412 558.019 1412 505V505H1508Z" fill="#ECBB5D"/>
<path d="M1513 601V505V505C1566.02 505 1609 547.981 1609 601V601H1513Z" fill="#ECBB5D"/>
</g>
<g clip-path="url(#clip22_76_3530)">
<path d="M902 702H806V702C806 648.981 848.981 606 902 606V606V702Z" fill="#ECBB5D"/>
<path d="M907 606H1003V606C1003 659.019 960.019 702 907 702V702V606Z" fill="#ECBB5D"/>
<path d="M1008 702V606V606C1061.02 606 1104 648.981 1104 702V702H1008Z" fill="#ECBB5D"/>
<path d="M1205 702H1109V702C1109 648.981 1151.98 606 1205 606V606V702Z" fill="#ECBB5D"/>
<path d="M1306 702H1210V702C1210 648.981 1252.98 606 1306 606V606V702Z" fill="#ECBB5D"/>
<path d="M1311 702V606V606C1364.02 606 1407 648.981 1407 702V702H1311Z" fill="#ECBB5D"/>
<path d="M1508 702H1412V702C1412 648.981 1454.98 606 1508 606V606V702Z" fill="#ECBB5D"/>
<path d="M1513 606H1609V606C1609 659.019 1566.02 702 1513 702V702V606Z" fill="#ECBB5D"/>
</g>
<g clip-path="url(#clip23_76_3530)">
<path d="M902 707V803V803C848.981 803 806 760.019 806 707V707H902Z" fill="#ECBB5D"/>
<path d="M907 803V707V707C960.019 707 1003 749.981 1003 803V803H907Z" fill="#ECBB5D"/>
<path d="M1104 707V803V803C1050.98 803 1008 760.019 1008 707V707H1104Z" fill="#ECBB5D"/>
<path d="M1109 707H1205V707C1205 760.019 1162.02 803 1109 803V803V707Z" fill="#ECBB5D"/>
<path d="M1210 707H1306V707C1306 760.019 1263.02 803 1210 803V803V707Z" fill="#E09472"/>
<path d="M1407 707V803V803C1353.98 803 1311 760.019 1311 707V707H1407Z" fill="#E09472"/>
<path d="M1508 803H1412V803C1412 749.981 1454.98 707 1508 707V707V803Z" fill="#ECBB5D"/>
<path d="M1513 803V707V707C1566.02 707 1609 749.981 1609 803V803H1513Z" fill="#ECBB5D"/>
</g>
<g clip-path="url(#clip24_76_3530)">
<path d="M806 806H902V902V902C848.981 902 806 859.019 806 806V806Z" fill="#ECBB5D"/>
<path d="M907 806V806C960.019 806 1003 848.981 1003 902V902H907V806Z" fill="#ECBB5D"/>
<path d="M1008 806V806C1061.02 806 1104 848.981 1104 902V902H1008V806Z" fill="#E09472"/>
<path d="M1109 902C1109 848.981 1151.98 806 1205 806V806V902H1109V902Z" fill="#E09472"/>
<path d="M1210 902C1210 848.981 1252.98 806 1306 806V806V902H1210V902Z" fill="#ECBB5D"/>
<path d="M1311 806V806C1364.02 806 1407 848.981 1407 902V902H1311V806Z" fill="#ECBB5D"/>
<path d="M1412 902V806H1508V806C1508 859.019 1465.02 902 1412 902V902Z" fill="#ECBB5D"/>
<path d="M1609 902V902C1555.98 902 1513 859.019 1513 806V806H1609V902Z" fill="#ECBB5D"/>
</g>
<g clip-path="url(#clip25_76_3530)">
<path d="M806 1003C806 949.981 848.981 907 902 907V907V1003H806V1003Z" fill="#ECBB5D"/>
<path d="M907 907H1003V907C1003 960.019 960.019 1003 907 1003V1003V907Z" fill="#ECBB5D"/>
<path d="M1008 907H1104V1003V1003C1050.98 1003 1008 960.019 1008 907V907Z" fill="#ECBB5D"/>
<path d="M1109 907H1205V907C1205 960.019 1162.02 1003 1109 1003V1003V907Z" fill="#ECBB5D"/>
<path d="M1210 907H1306V907C1306 960.019 1263.02 1003 1210 1003V1003V907Z" fill="#ECBB5D"/>
<path d="M1311 907H1407V1003V1003C1353.98 1003 1311 960.019 1311 907V907Z" fill="#ECBB5D"/>
<path d="M1412 1003C1412 949.981 1454.98 907 1508 907V907V1003H1412V1003Z" fill="#ECBB5D"/>
<path d="M1513 907V907C1566.02 907 1609 949.981 1609 1003V1003H1513V907Z" fill="#ECBB5D"/>
</g>
<g clip-path="url(#clip26_76_3530)">
<path d="M806 1104C806 1050.98 848.981 1008 902 1008V1008V1104H806V1104Z" fill="#ECBB5D"/>
<path d="M907 1008H1003V1008C1003 1061.02 960.019 1104 907 1104V1104V1008Z" fill="#E09472"/>
<path d="M1008 1104V1008V1008C1061.02 1008 1104 1050.98 1104 1104V1104H1008Z" fill="#ECBB5D"/>
<path d="M1205 1104H1109V1104C1109 1050.98 1151.98 1008 1205 1008V1008V1104Z" fill="#ECBB5D"/>
<path d="M1306 1104H1210V1104C1210 1050.98 1252.98 1008 1306 1008V1008V1104Z" fill="#ECBB5D"/>
<path d="M1311 1008H1407V1008C1407 1061.02 1364.02 1104 1311 1104V1104V1008Z" fill="#ECBB5D"/>
<path d="M1412 1008H1508V1008C1508 1061.02 1465.02 1104 1412 1104V1104V1008Z" fill="#E09472"/>
<path d="M1609 1008V1104V1104C1555.98 1104 1513 1061.02 1513 1008V1008H1609Z" fill="#E09472"/>
</g>
<g clip-path="url(#clip27_76_3530)">
<path d="M902 1109V1205V1205C848.981 1205 806 1162.02 806 1109V1109H902Z" fill="#ECBB5D"/>
<path d="M907 1205V1109V1109C960.019 1109 1003 1151.98 1003 1205V1205H907Z" fill="#E09472"/>
<path d="M1104 1109V1205V1205C1050.98 1205 1008 1162.02 1008 1109V1109H1104Z" fill="#ECBB5D"/>
<path d="M1109 1109H1205V1109C1205 1162.02 1162.02 1205 1109 1205V1205V1109Z" fill="#ECBB5D"/>
<path d="M1306 1109V1205V1205C1252.98 1205 1210 1162.02 1210 1109V1109H1306Z" fill="#ECBB5D"/>
<path d="M1311 1205V1109V1109C1364.02 1109 1407 1151.98 1407 1205V1205H1311Z" fill="#ECBB5D"/>
<path d="M1508 1205H1412V1205C1412 1151.98 1454.98 1109 1508 1109V1109V1205Z" fill="#ECBB5D"/>
<path d="M1513 1109H1609V1109C1609 1162.02 1566.02 1205 1513 1205V1205V1109Z" fill="#ECBB5D"/>
</g>
<g clip-path="url(#clip28_76_3530)">
<path d="M902 1306H806V1306C806 1252.98 848.981 1210 902 1210V1210V1306Z" fill="#ECBB5D"/>
<path d="M907 1306V1210V1210C960.019 1210 1003 1252.98 1003 1306V1306H907Z" fill="#ECBB5D"/>
<path d="M1104 1210V1306V1306C1050.98 1306 1008 1263.02 1008 1210V1210H1104Z" fill="#E09472"/>
<path d="M1109 1306V1210V1210C1162.02 1210 1205 1252.98 1205 1306V1306H1109Z" fill="#ECBB5D"/>
<path d="M1306 1210V1306V1306C1252.98 1306 1210 1263.02 1210 1210V1210H1306Z" fill="#ECBB5D"/>
<path d="M1311 1306V1210V1210C1364.02 1210 1407 1252.98 1407 1306V1306H1311Z" fill="#ECBB5D"/>
<path d="M1508 1210V1306V1306C1454.98 1306 1412 1263.02 1412 1210V1210H1508Z" fill="#ECBB5D"/>
<path d="M1513 1306V1210V1210C1566.02 1210 1609 1252.98 1609 1306V1306H1513Z" fill="#ECBB5D"/>
</g>
<g clip-path="url(#clip29_76_3530)">
<path d="M806 1311H902V1311C902 1364.02 859.019 1407 806 1407V1407V1311Z" fill="#ECBB5D"/>
<path d="M1003 1311V1407V1407C949.981 1407 907 1364.02 907 1311V1311H1003Z" fill="#ECBB5D"/>
<path d="M1104 1407H1008V1407C1008 1353.98 1050.98 1311 1104 1311V1311V1407Z" fill="#E09472"/>
<path d="M1109 1311H1205V1311C1205 1364.02 1162.02 1407 1109 1407V1407V1311Z" fill="#ECBB5D"/>
<path d="M1306 1407H1210V1407C1210 1353.98 1252.98 1311 1306 1311V1311V1407Z" fill="#ECBB5D"/>
<path d="M1311 1311H1407V1311C1407 1364.02 1364.02 1407 1311 1407V1407V1311Z" fill="#ECBB5D"/>
<path d="M1412 1407V1311V1311C1465.02 1311 1508 1353.98 1508 1407V1407H1412Z" fill="#ECBB5D"/>
<path d="M1609 1407H1513V1407C1513 1353.98 1555.98 1311 1609 1311V1311V1407Z" fill="#ECBB5D"/>
</g>
<g clip-path="url(#clip30_76_3530)">
<path d="M902 1508H806V1508C806 1454.98 848.981 1412 902 1412V1412V1508Z" fill="#ECBB5D"/>
<path d="M907 1412H1003V1412C1003 1465.02 960.019 1508 907 1508V1508V1412Z" fill="#ECBB5D"/>
<path d="M1008 1508V1412V1412C1061.02 1412 1104 1454.98 1104 1508V1508H1008Z" fill="#ECBB5D"/>
<path d="M1205 1508H1109V1508C1109 1454.98 1151.98 1412 1205 1412V1412V1508Z" fill="#ECBB5D"/>
<path d="M1306 1508H1210C1210 1454.98 1252.98 1412 1306 1412V1508Z" fill="#A8C7AB"/>
<path d="M1311 1508V1412C1364.02 1412 1407 1454.98 1407 1508H1311Z" fill="#A8C7AB"/>
<path d="M1508 1412V1508V1508C1454.98 1508 1412 1465.02 1412 1412V1412H1508Z" fill="#ECBB5D"/>
<path d="M1513 1412H1609V1412C1609 1465.02 1566.02 1508 1513 1508V1508V1412Z" fill="#ECBB5D"/>
</g>
<g clip-path="url(#clip31_76_3530)">
<path d="M902 1513V1609V1609C848.981 1609 806 1566.02 806 1513V1513H902Z" fill="#ECBB5D"/>
<path d="M907 1609V1513V1513C960.019 1513 1003 1555.98 1003 1609V1609H907Z" fill="#ECBB5D"/>
<path d="M1104 1513V1609V1609C1050.98 1609 1008 1566.02 1008 1513V1513H1104Z" fill="#ECBB5D"/>
<path d="M1109 1513H1205V1513C1205 1566.02 1162.02 1609 1109 1609V1609V1513Z" fill="#ECBB5D"/>
<path d="M1210 1513H1306C1306 1566.02 1263.02 1609 1210 1609V1513Z" fill="#A8C7AB"/>
<path d="M1407 1513V1609C1353.98 1609 1311 1566.02 1311 1513H1407Z" fill="#A8C7AB"/>
<path d="M1508 1609H1412V1609C1412 1555.98 1454.98 1513 1508 1513V1513V1609Z" fill="#ECBB5D"/>
<path d="M1513 1513H1609V1513C1609 1566.02 1566.02 1609 1513 1609V1609V1513Z" fill="#ECBB5D"/>
</g>
<defs>
<clipPath id="clip0_76_3530">
<rect width="803" height="96" fill="white"/>
</clipPath>
<clipPath id="clip1_76_3530">
<rect width="803" height="96" fill="white" transform="translate(0 101)"/>
</clipPath>
<clipPath id="clip2_76_3530">
<rect width="803" height="96" fill="white" transform="translate(0 202)"/>
</clipPath>
<clipPath id="clip3_76_3530">
<rect width="803" height="96" fill="white" transform="translate(0 303)"/>
</clipPath>
<clipPath id="clip4_76_3530">
<rect width="803" height="96" fill="white" transform="translate(0 404)"/>
</clipPath>
<clipPath id="clip5_76_3530">
<rect width="803" height="96" fill="white" transform="translate(0 505)"/>
</clipPath>
<clipPath id="clip6_76_3530">
<rect width="803" height="96" fill="white" transform="translate(0 606)"/>
</clipPath>
<clipPath id="clip7_76_3530">
<rect width="803" height="96" fill="white" transform="translate(0 707)"/>
</clipPath>
<clipPath id="clip8_76_3530">
<rect width="803" height="96" fill="white" transform="translate(0 806)"/>
</clipPath>
<clipPath id="clip9_76_3530">
<rect width="803" height="96" fill="white" transform="translate(0 907)"/>
</clipPath>
<clipPath id="clip10_76_3530">
<rect width="803" height="96" fill="white" transform="translate(0 1008)"/>
</clipPath>
<clipPath id="clip11_76_3530">
<rect width="803" height="96" fill="white" transform="translate(0 1109)"/>
</clipPath>
<clipPath id="clip12_76_3530">
<rect width="803" height="96" fill="white" transform="translate(0 1210)"/>
</clipPath>
<clipPath id="clip13_76_3530">
<rect width="803" height="96" fill="white" transform="translate(0 1311)"/>
</clipPath>
<clipPath id="clip14_76_3530">
<rect width="803" height="96" fill="white" transform="translate(0 1412)"/>
</clipPath>
<clipPath id="clip15_76_3530">
<rect width="803" height="96" fill="white" transform="translate(0 1513)"/>
</clipPath>
<clipPath id="clip16_76_3530">
<rect width="803" height="96" fill="white" transform="translate(806)"/>
</clipPath>
<clipPath id="clip17_76_3530">
<rect width="803" height="96" fill="white" transform="translate(806 101)"/>
</clipPath>
<clipPath id="clip18_76_3530">
<rect width="803" height="96" fill="white" transform="translate(806 202)"/>
</clipPath>
<clipPath id="clip19_76_3530">
<rect width="803" height="96" fill="white" transform="translate(806 303)"/>
</clipPath>
<clipPath id="clip20_76_3530">
<rect width="803" height="96" fill="white" transform="translate(806 404)"/>
</clipPath>
<clipPath id="clip21_76_3530">
<rect width="803" height="96" fill="white" transform="translate(806 505)"/>
</clipPath>
<clipPath id="clip22_76_3530">
<rect width="803" height="96" fill="white" transform="translate(806 606)"/>
</clipPath>
<clipPath id="clip23_76_3530">
<rect width="803" height="96" fill="white" transform="translate(806 707)"/>
</clipPath>
<clipPath id="clip24_76_3530">
<rect width="803" height="96" fill="white" transform="translate(806 806)"/>
</clipPath>
<clipPath id="clip25_76_3530">
<rect width="803" height="96" fill="white" transform="translate(806 907)"/>
</clipPath>
<clipPath id="clip26_76_3530">
<rect width="803" height="96" fill="white" transform="translate(806 1008)"/>
</clipPath>
<clipPath id="clip27_76_3530">
<rect width="803" height="96" fill="white" transform="translate(806 1109)"/>
</clipPath>
<clipPath id="clip28_76_3530">
<rect width="803" height="96" fill="white" transform="translate(806 1210)"/>
</clipPath>
<clipPath id="clip29_76_3530">
<rect width="803" height="96" fill="white" transform="translate(806 1311)"/>
</clipPath>
<clipPath id="clip30_76_3530">
<rect width="803" height="96" fill="white" transform="translate(806 1412)"/>
</clipPath>
<clipPath id="clip31_76_3530">
<rect width="803" height="96" fill="white" transform="translate(806 1513)"/>
</clipPath>
</defs>
</svg>
