<?xml version="1.0" encoding="UTF-8" standalone="no"?>
<svg
   width="1616"
   height="1616"
   viewBox="0 0 1616 1616"
   fill="none"
   version="1.1"
   id="svg676"
   sodipodi:docname="flower_pattern_big.svg"
   inkscape:version="1.2.2 (b0a84865, 2022-12-01)"
   xmlns:inkscape="http://www.inkscape.org/namespaces/inkscape"
   xmlns:sodipodi="http://sodipodi.sourceforge.net/DTD/sodipodi-0.dtd"
   xmlns="http://www.w3.org/2000/svg"
   xmlns:svg="http://www.w3.org/2000/svg">
  <sodipodi:namedview
     id="namedview678"
     pagecolor="#ffffff"
     bordercolor="#666666"
     borderopacity="1.0"
     inkscape:showpageshadow="2"
     inkscape:pageopacity="0.0"
     inkscape:pagecheckerboard="0"
     inkscape:deskcolor="#d1d1d1"
     showgrid="false"
     inkscape:lockguides="true"
     inkscape:zoom="9.0943878"
     inkscape:cx="1520.3882"
     inkscape:cy="1628.4219"
     inkscape:window-width="1610"
     inkscape:window-height="1027"
     inkscape:window-x="0"
     inkscape:window-y="25"
     inkscape:window-maximized="0"
     inkscape:current-layer="svg676" />
  <g
     clip-path="url(#clip0_76_3530)"
     id="g18">
    <path
       d="m 0,0 h 96 v 96 0 C 42.9807,96 0,53.0193 0,0 Z"
       fill="#8db8b1"
       fill-opacity="0.5"
       id="path2" />
    <path
       d="m 101,0 v 0 c 53.019,0 96,42.9807 96,96 v 0 h -96 z"
       fill="#9bc9c1"
       id="path4" />
    <path
       d="m 202,0 v 0 c 53.019,0 96,42.9807 96,96 v 0 h -96 z"
       fill="#8db8b1"
       fill-opacity="0.5"
       id="path6" />
    <path
       d="M 303,96 C 303,42.9807 345.981,0 399,0 v 0 96 z"
       fill="#8db8b1"
       fill-opacity="0.5"
       id="path8" />
    <path
       d="M 404,96 C 404,42.9807 446.981,0 500,0 v 0 96 z"
       fill="#8db8b1"
       fill-opacity="0.5"
       id="path10" />
    <path
       d="m 505,0 v 0 c 53.019,0 96,42.9807 96,96 v 0 h -96 z"
       fill="#8db8b1"
       fill-opacity="0.5"
       id="path12" />
    <path
       d="m 606,0 h 96 v 96 0 C 648.981,96 606,53.0193 606,0 Z"
       fill="#8db8b1"
       fill-opacity="0.5"
       id="path14" />
    <path
       d="m 707,0 v 0 c 53.019,0 96,42.9807 96,96 v 0 h -96 z"
       fill="#8db8b1"
       fill-opacity="0.5"
       id="path16" />
  </g>
  <g
     clip-path="url(#clip1_76_3530)"
     id="g36">
    <path
       d="m 0,197 c 0,-53.019 42.9807,-96 96,-96 v 0 96 z"
       fill="#8db8b1"
       fill-opacity="0.5"
       id="path20" />
    <path
       d="m 101,101 h 96 v 0 c 0,53.019 -42.981,96 -96,96 v 0 z"
       fill="#9bc9c1"
       id="path22" />
    <path
       d="m 202,101 h 96 v 96 0 c -53.019,0 -96,-42.981 -96,-96 z"
       fill="#8db8b1"
       fill-opacity="0.5"
       id="path24" />
    <path
       d="m 303,101 h 96 v 0 c 0,53.019 -42.981,96 -96,96 v 0 z"
       fill="#8db8b1"
       fill-opacity="0.5"
       id="path26" />
    <path
       d="m 404,101 h 96 v 0 c 0,53.019 -42.981,96 -96,96 v 0 z"
       fill="#8db8b1"
       fill-opacity="0.5"
       id="path28" />
    <path
       d="m 505,101 h 96 v 96 0 c -53.019,0 -96,-42.981 -96,-96 z"
       fill="#8db8b1"
       fill-opacity="0.5"
       id="path30" />
    <path
       d="m 606,197 c 0,-53.019 42.981,-96 96,-96 v 0 96 z"
       fill="#8db8b1"
       fill-opacity="0.5"
       id="path32" />
    <path
       d="m 707,101 v 0 c 53.019,0 96,42.981 96,96 v 0 h -96 z"
       fill="#8db8b1"
       fill-opacity="0.5"
       id="path34" />
  </g>
  <g
     clip-path="url(#clip2_76_3530)"
     id="g54">
    <path
       d="m 0,298 c 0,-53.019 42.9807,-96 96,-96 v 0 96 z"
       fill="#8db8b1"
       fill-opacity="0.5"
       id="path38" />
    <path
       d="m 101,202 h 96 v 0 c 0,53.019 -42.981,96 -96,96 v 0 z"
       fill="#8db8b1"
       fill-opacity="0.5"
       id="path40" />
    <path
       d="m 202,298 v -96 0 c 53.019,0 96,42.981 96,96 v 0 z"
       fill="#f9c7aa"
       id="path42" />
    <path
       d="m 399,298 h -96 v 0 c 0,-53.019 42.981,-96 96,-96 v 0 z"
       fill="#f9c7aa"
       id="path44" />
    <path
       d="m 500,298 h -96 v 0 c 0,-53.019 42.981,-96 96,-96 v 0 z"
       fill="#8db8b1"
       fill-opacity="0.5"
       id="path46" />
    <path
       d="m 505,202 h 96 v 0 c 0,53.019 -42.981,96 -96,96 v 0 z"
       fill="#8db8b1"
       fill-opacity="0.5"
       id="path48" />
    <path
       d="m 606,202 h 96 v 0 c 0,53.019 -42.981,96 -96,96 v 0 z"
       fill="#8db8b1"
       fill-opacity="0.5"
       id="path50" />
    <path
       d="m 803,202 v 96 0 c -53.019,0 -96,-42.981 -96,-96 v 0 z"
       fill="#8db8b1"
       fill-opacity="0.5"
       id="path52" />
  </g>
  <g
     clip-path="url(#clip3_76_3530)"
     id="g72">
    <path
       d="m 96,303 v 96 0 C 42.9807,399 0,356.019 0,303 v 0 z"
       fill="#8db8b1"
       fill-opacity="0.5"
       id="path56" />
    <path
       d="m 101,399 v -96 0 c 53.019,0 96,42.981 96,96 v 0 z"
       fill="#8db8b1"
       fill-opacity="0.5"
       id="path58" />
    <path
       d="m 298,303 v 96 0 c -53.019,0 -96,-42.981 -96,-96 v 0 z"
       fill="#f9c7aa"
       id="path60" />
    <path
       d="m 303,303 h 96 v 0 c 0,53.019 -42.981,96 -96,96 v 0 z"
       fill="#f9c7aa"
       id="path62" />
    <path
       d="m 500,303 v 96 0 c -53.019,0 -96,-42.981 -96,-96 v 0 z"
       fill="#8db8b1"
       fill-opacity="0.5"
       id="path64" />
    <path
       d="m 505,399 v -96 0 c 53.019,0 96,42.981 96,96 v 0 z"
       fill="#8db8b1"
       fill-opacity="0.5"
       id="path66" />
    <path
       d="m 702,399 h -96 v 0 c 0,-53.019 42.981,-96 96,-96 v 0 z"
       fill="#8db8b1"
       fill-opacity="0.5"
       id="path68" />
    <path
       d="m 707,303 h 96 v 0 c 0,53.019 -42.981,96 -96,96 v 0 z"
       fill="#8db8b1"
       fill-opacity="0.5"
       id="path70" />
  </g>
  <g
     clip-path="url(#clip4_76_3530)"
     id="g90">
    <path
       d="M 96,500 H 0 v 0 c 0,-53.019 42.9807,-96 96,-96 v 0 z"
       fill="#8db8b1"
       fill-opacity="0.5"
       id="path74" />
    <path
       d="m 101,500 v -96 0 c 53.019,0 96,42.981 96,96 v 0 z"
       fill="#8db8b1"
       fill-opacity="0.5"
       id="path76" />
    <path
       d="m 298,404 v 96 0 c -53.019,0 -96,-42.981 -96,-96 v 0 z"
       fill="#8db8b1"
       fill-opacity="0.5"
       id="path78" />
    <path
       d="m 303,500 v -96 0 c 53.019,0 96,42.981 96,96 v 0 z"
       fill="#8db8b1"
       fill-opacity="0.5"
       id="path80" />
    <path
       d="m 500,404 v 96 0 c -53.019,0 -96,-42.981 -96,-96 v 0 z"
       fill="#9bc9c1"
       id="path82" />
    <path
       d="m 505,500 v -96 0 c 53.019,0 96,42.981 96,96 v 0 z"
       fill="#8db8b1"
       fill-opacity="0.5"
       id="path84" />
    <path
       d="m 702,404 v 96 0 c -53.019,0 -96,-42.981 -96,-96 v 0 z"
       fill="#8db8b1"
       fill-opacity="0.5"
       id="path86" />
    <path
       d="m 707,500 v -96 0 c 53.019,0 96,42.981 96,96 v 0 z"
       fill="#8db8b1"
       fill-opacity="0.5"
       id="path88" />
  </g>
  <g
     clip-path="url(#clip5_76_3530)"
     id="g108">
    <path
       d="m 0,505 h 96 v 0 c 0,53.019 -42.9807,96 -96,96 v 0 z"
       fill="#8db8b1"
       fill-opacity="0.5"
       id="path92" />
    <path
       d="m 197,505 v 96 0 c -53.019,0 -96,-42.981 -96,-96 v 0 z"
       fill="#8db8b1"
       fill-opacity="0.5"
       id="path94" />
    <path
       d="m 298,601 h -96 v 0 c 0,-53.019 42.981,-96 96,-96 v 0 z"
       fill="#8db8b1"
       fill-opacity="0.5"
       id="path96" />
    <path
       d="m 303,505 h 96 v 0 c 0,53.019 -42.981,96 -96,96 v 0 z"
       fill="#8db8b1"
       fill-opacity="0.5"
       id="path98" />
    <path
       d="m 500,601 h -96 v 0 c 0,-53.019 42.981,-96 96,-96 v 0 z"
       fill="#9bc9c1"
       id="path100" />
    <path
       d="m 505,505 h 96 v 0 c 0,53.019 -42.981,96 -96,96 v 0 z"
       fill="#8db8b1"
       fill-opacity="0.5"
       id="path102" />
    <path
       d="m 702,505 v 96 0 c -53.019,0 -96,-42.981 -96,-96 v 0 z"
       fill="#8db8b1"
       fill-opacity="0.5"
       id="path104" />
    <path
       d="m 707,601 v -96 0 c 53.019,0 96,42.981 96,96 v 0 z"
       fill="#8db8b1"
       fill-opacity="0.5"
       id="path106" />
  </g>
  <g
     clip-path="url(#clip6_76_3530)"
     id="g126">
    <path
       d="M 96,702 H 0 v 0 c 0,-53.019 42.9807,-96 96,-96 v 0 z"
       fill="#8db8b1"
       fill-opacity="0.5"
       id="path110" />
    <path
       d="m 101,606 h 96 v 0 c 0,53.019 -42.981,96 -96,96 v 0 z"
       fill="#8db8b1"
       fill-opacity="0.5"
       id="path112" />
    <path
       d="m 202,702 v -96 0 c 53.019,0 96,42.981 96,96 v 0 z"
       fill="#8db8b1"
       fill-opacity="0.5"
       id="path114" />
    <path
       d="m 399,702 h -96 v 0 c 0,-53.019 42.981,-96 96,-96 v 0 z"
       fill="#8db8b1"
       fill-opacity="0.5"
       id="path116" />
    <path
       d="m 500,702 h -96 v 0 c 0,-53.019 42.981,-96 96,-96 v 0 z"
       fill="#8db8b1"
       fill-opacity="0.5"
       id="path118" />
    <path
       d="m 505,702 v -96 0 c 53.019,0 96,42.981 96,96 v 0 z"
       fill="#8db8b1"
       fill-opacity="0.5"
       id="path120" />
    <path
       d="m 702,702 h -96 v 0 c 0,-53.019 42.981,-96 96,-96 v 0 z"
       fill="#8db8b1"
       fill-opacity="0.5"
       id="path122" />
    <path
       d="m 707,606 h 96 v 0 c 0,53.019 -42.981,96 -96,96 v 0 z"
       fill="#8db8b1"
       fill-opacity="0.5"
       id="path124" />
  </g>
  <g
     clip-path="url(#clip7_76_3530)"
     id="g144">
    <path
       d="m 96,707 v 96 0 C 42.9807,803 0,760.019 0,707 v 0 z"
       fill="#8db8b1"
       fill-opacity="0.5"
       id="path128" />
    <path
       d="m 101,803 v -96 0 c 53.019,0 96,42.981 96,96 v 0 z"
       fill="#8db8b1"
       fill-opacity="0.5"
       id="path130" />
    <path
       d="m 298,707 v 96 0 c -53.019,0 -96,-42.981 -96,-96 v 0 z"
       fill="#8db8b1"
       fill-opacity="0.5"
       id="path132" />
    <path
       d="m 303,707 h 96 v 0 c 0,53.019 -42.981,96 -96,96 v 0 z"
       fill="#8db8b1"
       fill-opacity="0.5"
       id="path134" />
    <path
       d="m 404,707 h 96 v 0 c 0,53.019 -42.981,96 -96,96 v 0 z"
       fill="#8db8b1"
       fill-opacity="0.5"
       id="path136" />
    <path
       d="m 601,707 v 96 0 c -53.019,0 -96,-42.981 -96,-96 v 0 z"
       fill="#8db8b1"
       fill-opacity="0.5"
       id="path138" />
    <path
       d="m 702,803 h -96 v 0 c 0,-53.019 42.981,-96 96,-96 v 0 z"
       fill="#8db8b1"
       fill-opacity="0.5"
       id="path140" />
    <path
       d="m 707,803 v -96 0 c 53.019,0 96,42.981 96,96 v 0 z"
       fill="#8db8b1"
       fill-opacity="0.5"
       id="path142" />
  </g>
  <g
     clip-path="url(#clip8_76_3530)"
     id="g162">
    <path
       d="m 0,808 h 96 v 96 0 C 42.9807,904 0,861.019 0,808 Z"
       fill="#9bc9c1"
       id="path146" />
    <path
       d="m 101,808 v 0 c 53.019,0 96,42.981 96,96 v 0 h -96 z"
       fill="#8db8b1"
       fill-opacity="0.5"
       id="path148" />
    <path
       d="m 202,808 v 0 c 53.019,0 96,42.981 96,96 v 0 h -96 z"
       fill="#8db8b1"
       fill-opacity="0.5"
       id="path150" />
    <path
       d="m 303,904 c 0,-53.019 42.981,-96 96,-96 v 0 96 z"
       fill="#8db8b1"
       fill-opacity="0.5"
       id="path152" />
    <path
       d="m 404,904 c 0,-53.019 42.981,-96 96,-96 v 0 96 z"
       fill="#8db8b1"
       fill-opacity="0.5"
       id="path154" />
    <path
       d="m 505,808 v 0 c 53.019,0 96,42.981 96,96 v 0 h -96 z"
       fill="#8db8b1"
       fill-opacity="0.5"
       id="path156" />
    <path
       d="m 606,904 v -96 h 96 v 0 c 0,53.019 -42.981,96 -96,96 z"
       fill="#9bc9c1"
       id="path158" />
    <path
       d="m 803,904 v 0 c -53.019,0 -96,-42.981 -96,-96 v 0 h 96 z"
       fill="#9bc9c1"
       id="path160" />
  </g>
  <g
     clip-path="url(#clip9_76_3530)"
     id="g180">
    <path
       d="m 0,1005 c 0,-53.019 42.9807,-96 96,-96 v 0 96 z"
       fill="#9bc9c1"
       id="path164" />
    <path
       d="m 101,909 h 96 v 0 c 0,53.019 -42.981,96 -96,96 v 0 z"
       fill="#8db8b1"
       fill-opacity="0.5"
       id="path166" />
    <path
       d="m 202,909 h 96 v 96 0 c -53.019,0 -96,-42.981 -96,-96 z"
       fill="#8db8b1"
       fill-opacity="0.5"
       id="path168" />
    <path
       d="m 303,909 h 96 v 0 c 0,53.019 -42.981,96 -96,96 v 0 z"
       fill="#8db8b1"
       fill-opacity="0.5"
       id="path170" />
    <path
       d="m 404,909 h 96 v 0 c 0,53.019 -42.981,96 -96,96 v 0 z"
       fill="#8db8b1"
       fill-opacity="0.5"
       id="path172" />
    <path
       d="m 505,909 h 96 v 96 0 c -53.019,0 -96,-42.981 -96,-96 z"
       fill="#8db8b1"
       fill-opacity="0.5"
       id="path174" />
    <path
       d="m 606,1005 c 0,-53.019 42.981,-96 96,-96 v 0 96 z"
       fill="#8db8b1"
       fill-opacity="0.5"
       id="path176" />
    <path
       d="m 707,909 v 0 c 53.019,0 96,42.981 96,96 v 0 h -96 z"
       fill="#8db8b1"
       fill-opacity="0.5"
       id="path178" />
  </g>
  <g
     clip-path="url(#clip10_76_3530)"
     id="g198">
    <path
       d="m 0,1106 c 0,-53.02 42.9807,-96 96,-96 v 0 96 z"
       fill="#8db8b1"
       fill-opacity="0.5"
       id="path182" />
    <path
       d="m 101,1010 h 96 v 0 c 0,53.02 -42.981,96 -96,96 v 0 z"
       fill="#8db8b1"
       fill-opacity="0.5"
       id="path184" />
    <path
       d="m 202,1106 v -96 0 c 53.019,0 96,42.98 96,96 v 0 z"
       fill="#8db8b1"
       fill-opacity="0.5"
       id="path186" />
    <path
       d="m 399,1106 h -96 v 0 c 0,-53.02 42.981,-96 96,-96 v 0 z"
       fill="#8db8b1"
       fill-opacity="0.5"
       id="path188" />
    <path
       d="m 500,1106 h -96 v 0 c 0,-53.02 42.981,-96 96,-96 v 0 z"
       fill="#f9c7aa"
       id="path190" />
    <path
       d="m 505,1010 h 96 v 0 c 0,53.02 -42.981,96 -96,96 v 0 z"
       fill="#f9c7aa"
       id="path192" />
    <path
       d="m 606,1010 h 96 v 0 c 0,53.02 -42.981,96 -96,96 v 0 z"
       fill="#8db8b1"
       fill-opacity="0.5"
       id="path194" />
    <path
       d="m 803,1010 v 96 0 c -53.019,0 -96,-42.98 -96,-96 v 0 z"
       fill="#8db8b1"
       fill-opacity="0.5"
       id="path196" />
  </g>
  <g
     clip-path="url(#clip11_76_3530)"
     id="g216">
    <path
       d="m 96,1111 v 96 0 c -53.0193,0 -96,-42.98 -96,-96 v 0 z"
       fill="#8db8b1"
       fill-opacity="0.5"
       id="path200" />
    <path
       d="m 101,1207 v -96 0 c 53.019,0 96,42.98 96,96 v 0 z"
       fill="#8db8b1"
       fill-opacity="0.5"
       id="path202" />
    <path
       d="m 298,1111 v 96 0 c -53.019,0 -96,-42.98 -96,-96 v 0 z"
       fill="#8db8b1"
       fill-opacity="0.5"
       id="path204" />
    <path
       d="m 303,1111 h 96 v 0 c 0,53.02 -42.981,96 -96,96 v 0 z"
       fill="#8db8b1"
       fill-opacity="0.5"
       id="path206" />
    <path
       d="m 500,1111 v 96 0 c -53.019,0 -96,-42.98 -96,-96 v 0 z"
       fill="#f9c7aa"
       id="path208" />
    <path
       d="m 505,1207 v -96 0 c 53.019,0 96,42.98 96,96 v 0 z"
       fill="#f9c7aa"
       id="path210" />
    <path
       d="m 702,1207 h -96 v 0 c 0,-53.02 42.981,-96 96,-96 v 0 z"
       fill="#8db8b1"
       fill-opacity="0.5"
       id="path212" />
    <path
       d="m 707,1111 h 96 v 0 c 0,53.02 -42.981,96 -96,96 v 0 z"
       fill="#8db8b1"
       fill-opacity="0.5"
       id="path214" />
  </g>
  <g
     clip-path="url(#clip12_76_3530)"
     id="g234">
    <path
       d="M 96,1308 H 0 v 0 c 0,-53.02 42.9807,-96 96,-96 v 0 z"
       fill="#9bc9c1"
       id="path218" />
    <path
       d="m 101,1308 v -96 0 c 53.019,0 96,42.98 96,96 v 0 z"
       fill="#9bc9c1"
       id="path220" />
    <path
       d="m 298,1212 v 96 0 c -53.019,0 -96,-42.98 -96,-96 v 0 z"
       fill="#8db8b1"
       fill-opacity="0.5"
       id="path222" />
    <path
       d="m 303,1308 v -96 0 c 53.019,0 96,42.98 96,96 v 0 z"
       fill="#8db8b1"
       fill-opacity="0.5"
       id="path224" />
    <path
       d="m 500,1212 v 96 0 c -53.019,0 -96,-42.98 -96,-96 v 0 z"
       fill="#8db8b1"
       fill-opacity="0.5"
       id="path226" />
    <path
       d="m 505,1308 v -96 0 c 53.019,0 96,42.98 96,96 v 0 z"
       fill="#8db8b1"
       fill-opacity="0.5"
       id="path228" />
    <path
       d="m 702,1212 v 96 0 c -53.019,0 -96,-42.98 -96,-96 v 0 z"
       fill="#8db8b1"
       fill-opacity="0.5"
       id="path230" />
    <path
       d="m 707,1308 v -96 0 c 53.019,0 96,42.98 96,96 v 0 z"
       fill="#8db8b1"
       fill-opacity="0.5"
       id="path232" />
  </g>
  <g
     clip-path="url(#clip13_76_3530)"
     id="g252">
    <path
       d="m 0,1313 h 96 v 0 c 0,53.02 -42.9807,96 -96,96 v 0 z"
       fill="#8db8b1"
       fill-opacity="0.5"
       id="path236" />
    <path
       d="m 197,1313 v 96 0 c -53.019,0 -96,-42.98 -96,-96 v 0 z"
       fill="#8db8b1"
       fill-opacity="0.5"
       id="path238" />
    <path
       d="m 298,1409 h -96 v 0 c 0,-53.02 42.981,-96 96,-96 v 0 z"
       fill="#8db8b1"
       fill-opacity="0.5"
       id="path240" />
    <path
       d="m 303,1313 h 96 v 0 c 0,53.02 -42.981,96 -96,96 v 0 z"
       fill="#8db8b1"
       fill-opacity="0.5"
       id="path242" />
    <path
       d="m 500,1409 h -96 v 0 c 0,-53.02 42.981,-96 96,-96 v 0 z"
       fill="#8db8b1"
       fill-opacity="0.5"
       id="path244" />
    <path
       d="m 505,1313 h 96 v 0 c 0,53.02 -42.981,96 -96,96 v 0 z"
       fill="#8db8b1"
       fill-opacity="0.5"
       id="path246" />
    <path
       d="m 606,1409 v -96 0 c 53.019,0 96,42.98 96,96 v 0 z"
       fill="#9bc9c1"
       id="path248" />
    <path
       d="m 803,1409 h -96 v 0 c 0,-53.02 42.981,-96 96,-96 v 0 z"
       fill="#9bc9c1"
       id="path250" />
  </g>
  <g
     clip-path="url(#clip14_76_3530)"
     id="g270">
    <path
       d="M 96,1510 H 0 v 0 c 0,-53.02 42.9807,-96 96,-96 v 0 z"
       fill="#8db8b1"
       fill-opacity="0.5"
       id="path254" />
    <path
       d="m 101,1414 h 96 v 0 c 0,53.02 -42.981,96 -96,96 v 0 z"
       fill="#8db8b1"
       fill-opacity="0.5"
       id="path256" />
    <path
       d="m 202,1510 v -96 0 c 53.019,0 96,42.98 96,96 v 0 z"
       fill="#9bc9c1"
       id="path258" />
    <path
       d="m 399,1510 h -96 v 0 c 0,-53.02 42.981,-96 96,-96 v 0 z"
       fill="#9bc9c1"
       id="path260" />
    <path
       d="m 500,1510 h -96 v 0 c 0,-53.02 42.981,-96 96,-96 v 0 z"
       fill="#8db8b1"
       fill-opacity="0.5"
       id="path262" />
    <path
       d="m 505,1510 v -96 0 c 53.019,0 96,42.98 96,96 v 0 z"
       fill="#8db8b1"
       fill-opacity="0.5"
       id="path264" />
    <path
       d="m 702,1414 v 96 0 c -53.019,0 -96,-42.98 -96,-96 v 0 z"
       fill="#8db8b1"
       fill-opacity="0.5"
       id="path266" />
    <path
       d="m 707,1414 h 96 v 0 c 0,53.02 -42.981,96 -96,96 v 0 z"
       fill="#8db8b1"
       fill-opacity="0.5"
       id="path268" />
  </g>
  <g
     clip-path="url(#clip15_76_3530)"
     id="g288">
    <path
       d="m 96,1515 v 96 0 c -53.0193,0 -96,-42.98 -96,-96 v 0 z"
       fill="#8db8b1"
       fill-opacity="0.5"
       id="path272" />
    <path
       d="m 101,1611 v -96 0 c 53.019,0 96,42.98 96,96 v 0 z"
       fill="#8db8b1"
       fill-opacity="0.5"
       id="path274" />
    <path
       d="m 298,1515 v 96 0 c -53.019,0 -96,-42.98 -96,-96 v 0 z"
       fill="#8db8b1"
       fill-opacity="0.5"
       id="path276" />
    <path
       d="m 303,1515 h 96 v 0 c 0,53.02 -42.981,96 -96,96 v 0 z"
       fill="#8db8b1"
       fill-opacity="0.5"
       id="path278" />
    <path
       d="m 404,1515 h 96 v 0 c 0,53.02 -42.981,96 -96,96 v 0 z"
       fill="#8db8b1"
       fill-opacity="0.5"
       id="path280" />
    <path
       d="m 601,1515 v 96 0 c -53.019,0 -96,-42.98 -96,-96 v 0 z"
       fill="#8db8b1"
       fill-opacity="0.5"
       id="path282" />
    <path
       d="m 702,1611 h -96 v 0 c 0,-53.02 42.981,-96 96,-96 v 0 z"
       fill="#8db8b1"
       fill-opacity="0.5"
       id="path284" />
    <path
       d="m 707,1515 h 96 v 0 c 0,53.02 -42.981,96 -96,96 v 0 z"
       fill="#8db8b1"
       fill-opacity="0.5"
       id="path286" />
  </g>
  <g
     clip-path="url(#clip16_76_3530)"
     id="g306">
    <path
       d="m 904,0 v 96 h -96 v 0 C 808,42.9807 850.981,0 904,0 Z"
       fill="#8db8b1"
       fill-opacity="0.5"
       id="path290" />
    <path
       d="m 909,0 v 0 c 53.019,0 96,42.9807 96,96 v 0 h -96 z"
       fill="#8db8b1"
       fill-opacity="0.5"
       id="path292" />
    <path
       d="m 1010,96 v 0 c 0,-53.0193 42.98,-96 96,-96 v 0 96 z"
       fill="#8db8b1"
       fill-opacity="0.5"
       id="path294" />
    <path
       d="m 1207,0 c 0,53.0193 -42.98,96 -96,96 V 96 0 Z"
       fill="#9bc9c1"
       id="path296" />
    <path
       d="m 1212,96 c 0,-53.0193 42.98,-96 96,-96 v 0 96 z"
       fill="#8db8b1"
       fill-opacity="0.5"
       id="path298" />
    <path
       d="m 1409,0 v 0 c 0,53.0193 -42.98,96 -96,96 V 96 0 Z"
       fill="#8db8b1"
       fill-opacity="0.5"
       id="path300" />
    <path
       d="m 1414,0 h 96 v 96 0 c -53.02,0 -96,-42.9807 -96,-96 z"
       fill="#8db8b1"
       fill-opacity="0.5"
       id="path302" />
    <path
       d="m 1515,0 v 0 c 53.02,0 96,42.9807 96,96 v 0 h -96 z"
       fill="#8db8b1"
       fill-opacity="0.5"
       id="path304" />
  </g>
  <g
     clip-path="url(#clip17_76_3530)"
     id="g324">
    <path
       d="m 904,101 c 0,53.019 -42.981,96 -96,96 v 0 -96 z"
       fill="#8db8b1"
       fill-opacity="0.5"
       id="path308" />
    <path
       d="m 1005,101 v 96 0 c -53.019,0 -96,-42.981 -96,-96 v 0 z"
       fill="#8db8b1"
       fill-opacity="0.5"
       id="path310" />
    <path
       d="m 1010,101 h 96 v 96 0 c -53.02,0 -96,-42.981 -96,-96 z"
       fill="#8db8b1"
       fill-opacity="0.5"
       id="path312" />
    <path
       d="m 1111,197 v -96 0 c 53.02,0 96,42.981 96,96 v 0 z"
       fill="#9bc9c1"
       id="path314" />
    <path
       d="m 1308,101 v 96 0 c -53.02,0 -96,-42.981 -96,-96 v 0 z"
       fill="#8db8b1"
       fill-opacity="0.5"
       id="path316" />
    <path
       d="m 1409,197 h -96 v -96 0 c 53.02,0 96,42.981 96,96 z"
       fill="#8db8b1"
       fill-opacity="0.5"
       id="path318" />
    <path
       d="m 1414,197 c 0,-53.019 42.98,-96 96,-96 v 0 96 z"
       fill="#8db8b1"
       fill-opacity="0.5"
       id="path320" />
    <path
       d="m 1515,101 v 0 c 53.02,0 96,42.981 96,96 v 0 h -96 z"
       fill="#8db8b1"
       fill-opacity="0.5"
       id="path322" />
  </g>
  <g
     clip-path="url(#clip18_76_3530)"
     id="g342">
    <path
       d="m 808,298 c 0,-53.019 42.981,-96 96,-96 v 0 96 z"
       fill="#9bc9c1"
       id="path326" />
    <path
       d="m 909,202 h 96 v 0 c 0,53.019 -42.981,96 -96,96 v 0 z"
       fill="#8db8b1"
       fill-opacity="0.5"
       id="path328" />
    <path
       d="m 1010,298 v -96 0 c 53.02,0 96,42.981 96,96 v 0 z"
       fill="#8db8b1"
       fill-opacity="0.5"
       id="path330" />
    <path
       d="m 1207,298 h -96 v 0 c 0,-53.019 42.98,-96 96,-96 v 0 z"
       fill="#8db8b1"
       fill-opacity="0.5"
       id="path332" />
    <path
       d="m 1308,298 h -96 v 0 c 0,-53.019 42.98,-96 96,-96 v 0 z"
       fill="#8db8b1"
       fill-opacity="0.5"
       id="path334" />
    <path
       d="m 1313,202 h 96 v 0 c 0,53.019 -42.98,96 -96,96 v 0 z"
       fill="#8db8b1"
       fill-opacity="0.5"
       id="path336" />
    <path
       d="m 1414,202 h 96 v 0 c 0,53.019 -42.98,96 -96,96 v 0 z"
       fill="#8db8b1"
       fill-opacity="0.5"
       id="path338" />
    <path
       d="m 1611,202 v 96 0 c -53.02,0 -96,-42.981 -96,-96 v 0 z"
       fill="#8db8b1"
       fill-opacity="0.5"
       id="path340" />
  </g>
  <g
     clip-path="url(#clip19_76_3530)"
     id="g360">
    <path
       d="m 904,303 v 96 0 c -53.019,0 -96,-42.981 -96,-96 v 0 z"
       fill="#9bc9c1"
       id="path344" />
    <path
       d="m 909,399 v -96 0 c 53.019,0 96,42.981 96,96 v 0 z"
       fill="#8db8b1"
       fill-opacity="0.5"
       id="path346" />
    <path
       d="m 1106,303 v 96 0 c -53.02,0 -96,-42.981 -96,-96 v 0 z"
       fill="#8db8b1"
       fill-opacity="0.5"
       id="path348" />
    <path
       d="m 1111,303 h 96 v 0 c 0,53.019 -42.98,96 -96,96 v 0 z"
       fill="#8db8b1"
       fill-opacity="0.5"
       id="path350" />
    <path
       d="m 1308,303 v 96 0 c -53.02,0 -96,-42.981 -96,-96 v 0 z"
       fill="#8db8b1"
       fill-opacity="0.5"
       id="path352" />
    <path
       d="m 1313,399 v -96 0 c 53.02,0 96,42.981 96,96 v 0 z"
       fill="#8db8b1"
       fill-opacity="0.5"
       id="path354" />
    <path
       d="m 1510,399 h -96 v 0 c 0,-53.019 42.98,-96 96,-96 v 0 z"
       fill="#8db8b1"
       fill-opacity="0.5"
       id="path356" />
    <path
       d="m 1515,303 h 96 v 0 c 0,53.019 -42.98,96 -96,96 v 0 z"
       fill="#9bc9c1"
       id="path358" />
  </g>
  <g
     clip-path="url(#clip20_76_3530)"
     id="g378">
    <path
       d="m 904,500 h -96 v 0 c 0,-53.019 42.981,-96 96,-96 v 0 z"
       fill="#8db8b1"
       fill-opacity="0.5"
       id="path362" />
    <path
       d="m 909,500 v -96 0 c 53.019,0 96,42.981 96,96 v 0 z"
       fill="#8db8b1"
       fill-opacity="0.5"
       id="path364" />
    <path
       d="m 1106,404 v 96 0 c -53.02,0 -96,-42.981 -96,-96 v 0 z"
       fill="#f9c7aa"
       id="path366" />
    <path
       d="m 1111,500 v -96 0 c 53.02,0 96,42.981 96,96 v 0 z"
       fill="#f9c7aa"
       id="path368" />
    <path
       d="m 1308,404 v 96 0 c -53.02,0 -96,-42.981 -96,-96 v 0 z"
       fill="#8db8b1"
       fill-opacity="0.5"
       id="path370" />
    <path
       d="m 1313,500 v -96 0 c 53.02,0 96,42.981 96,96 v 0 z"
       fill="#8db8b1"
       fill-opacity="0.5"
       id="path372" />
    <path
       d="m 1510,404 v 96 0 c -53.02,0 -96,-42.981 -96,-96 v 0 z"
       fill="#8db8b1"
       fill-opacity="0.5"
       id="path374" />
    <path
       d="m 1515,500 v -96 0 c 53.02,0 96,42.981 96,96 v 0 z"
       fill="#9bc9c1"
       id="path376" />
  </g>
  <g
     clip-path="url(#clip21_76_3530)"
     id="g396">
    <path
       d="m 808,505 h 96 v 0 c 0,53.019 -42.981,96 -96,96 v 0 z"
       fill="#8db8b1"
       fill-opacity="0.5"
       id="path380" />
    <path
       d="m 1005,505 v 96 0 c -53.019,0 -96,-42.981 -96,-96 v 0 z"
       fill="#8db8b1"
       fill-opacity="0.5"
       id="path382" />
    <path
       d="m 1106,601 h -96 v 0 c 0,-53.019 42.98,-96 96,-96 v 0 z"
       fill="#f9c7aa"
       id="path384" />
    <path
       d="m 1111,505 h 96 v 0 c 0,53.019 -42.98,96 -96,96 v 0 z"
       fill="#f9c7aa"
       id="path386" />
    <path
       d="m 1308,601 h -96 v 0 c 0,-53.019 42.98,-96 96,-96 v 0 z"
       fill="#8db8b1"
       fill-opacity="0.5"
       id="path388" />
    <path
       d="m 1313,505 h 96 v 0 c 0,53.019 -42.98,96 -96,96 v 0 z"
       fill="#8db8b1"
       fill-opacity="0.5"
       id="path390" />
    <path
       d="m 1510,505 v 96 0 c -53.02,0 -96,-42.981 -96,-96 v 0 z"
       fill="#8db8b1"
       fill-opacity="0.5"
       id="path392" />
    <path
       d="m 1515,601 v -96 0 c 53.02,0 96,42.981 96,96 v 0 z"
       fill="#8db8b1"
       fill-opacity="0.5"
       id="path394" />
  </g>
  <g
     clip-path="url(#clip22_76_3530)"
     id="g414">
    <path
       d="m 904,702 h -96 v 0 c 0,-53.019 42.981,-96 96,-96 v 0 z"
       fill="#8db8b1"
       fill-opacity="0.5"
       id="path398" />
    <path
       d="m 909,606 h 96 v 0 c 0,53.019 -42.981,96 -96,96 v 0 z"
       fill="#8db8b1"
       fill-opacity="0.5"
       id="path400" />
    <path
       d="m 1010,702 v -96 0 c 53.02,0 96,42.981 96,96 v 0 z"
       fill="#8db8b1"
       fill-opacity="0.5"
       id="path402" />
    <path
       d="m 1207,702 h -96 v 0 c 0,-53.019 42.98,-96 96,-96 v 0 z"
       fill="#8db8b1"
       fill-opacity="0.5"
       id="path404" />
    <path
       d="m 1308,702 h -96 v 0 c 0,-53.019 42.98,-96 96,-96 v 0 z"
       fill="#8db8b1"
       fill-opacity="0.5"
       id="path406" />
    <path
       d="m 1313,702 v -96 0 c 53.02,0 96,42.981 96,96 v 0 z"
       fill="#8db8b1"
       fill-opacity="0.5"
       id="path408" />
    <path
       d="m 1510,702 h -96 v 0 c 0,-53.019 42.98,-96 96,-96 v 0 z"
       fill="#8db8b1"
       fill-opacity="0.5"
       id="path410" />
    <path
       d="m 1515,606 h 96 v 0 c 0,53.019 -42.98,96 -96,96 v 0 z"
       fill="#8db8b1"
       fill-opacity="0.5"
       id="path412" />
  </g>
  <g
     clip-path="url(#clip23_76_3530)"
     id="g432">
    <path
       d="m 904,707 v 96 0 c -53.019,0 -96,-42.981 -96,-96 v 0 z"
       fill="#8db8b1"
       fill-opacity="0.5"
       id="path416" />
    <path
       d="m 909,803 v -96 0 c 53.019,0 96,42.981 96,96 v 0 z"
       fill="#8db8b1"
       fill-opacity="0.5"
       id="path418" />
    <path
       d="m 1106,707 v 96 0 c -53.02,0 -96,-42.981 -96,-96 v 0 z"
       fill="#8db8b1"
       fill-opacity="0.5"
       id="path420" />
    <path
       d="m 1111,707 h 96 v 0 c 0,53.019 -42.98,96 -96,96 v 0 z"
       fill="#8db8b1"
       fill-opacity="0.5"
       id="path422" />
    <path
       d="m 1212,707 h 96 v 0 c 0,53.019 -42.98,96 -96,96 v 0 z"
       fill="#9bc9c1"
       id="path424" />
    <path
       d="m 1409,707 v 96 0 c -53.02,0 -96,-42.981 -96,-96 v 0 z"
       fill="#9bc9c1"
       id="path426" />
    <path
       d="m 1510,803 h -96 v 0 c 0,-53.019 42.98,-96 96,-96 v 0 z"
       fill="#8db8b1"
       fill-opacity="0.5"
       id="path428" />
    <path
       d="m 1515,803 v -96 0 c 53.02,0 96,42.981 96,96 v 0 z"
       fill="#8db8b1"
       fill-opacity="0.5"
       id="path430" />
  </g>
  <g
     clip-path="url(#clip24_76_3530)"
     id="g450">
    <path
       d="m 808,808 h 96 v 96 0 c -53.019,0 -96,-42.981 -96,-96 z"
       fill="#8db8b1"
       fill-opacity="0.5"
       id="path434" />
    <path
       d="m 909,808 v 0 c 53.019,0 96,42.981 96,96 v 0 h -96 z"
       fill="#8db8b1"
       fill-opacity="0.5"
       id="path436" />
    <path
       d="m 1010,808 v 0 c 53.02,0 96,42.981 96,96 v 0 h -96 z"
       fill="#9bc9c1"
       id="path438" />
    <path
       d="m 1111,904 c 0,-53.019 42.98,-96 96,-96 v 0 96 z"
       fill="#9bc9c1"
       id="path440" />
    <path
       d="m 1212,904 c 0,-53.019 42.98,-96 96,-96 v 0 96 z"
       fill="#8db8b1"
       fill-opacity="0.5"
       id="path442" />
    <path
       d="m 1313,808 v 0 c 53.02,0 96,42.981 96,96 v 0 h -96 z"
       fill="#8db8b1"
       fill-opacity="0.5"
       id="path444" />
    <path
       d="m 1414,904 v -96 h 96 v 0 c 0,53.019 -42.98,96 -96,96 z"
       fill="#8db8b1"
       fill-opacity="0.5"
       id="path446" />
    <path
       d="m 1611,904 v 0 c -53.02,0 -96,-42.981 -96,-96 v 0 h 96 z"
       fill="#8db8b1"
       fill-opacity="0.5"
       id="path448" />
  </g>
  <g
     clip-path="url(#clip25_76_3530)"
     id="g468">
    <path
       d="m 808,1005 c 0,-53.019 42.981,-96 96,-96 v 0 96 z"
       fill="#8db8b1"
       fill-opacity="0.5"
       id="path452" />
    <path
       d="m 909,909 h 96 v 0 c 0,53.019 -42.981,96 -96,96 v 0 z"
       fill="#8db8b1"
       fill-opacity="0.5"
       id="path454" />
    <path
       d="m 1010,909 h 96 v 96 0 c -53.02,0 -96,-42.981 -96,-96 z"
       fill="#8db8b1"
       fill-opacity="0.5"
       id="path456" />
    <path
       d="m 1111,909 h 96 v 0 c 0,53.019 -42.98,96 -96,96 v 0 z"
       fill="#8db8b1"
       fill-opacity="0.5"
       id="path458" />
    <path
       d="m 1212,909 h 96 v 0 c 0,53.019 -42.98,96 -96,96 v 0 z"
       fill="#8db8b1"
       fill-opacity="0.5"
       id="path460" />
    <path
       d="m 1313,909 h 96 v 96 0 c -53.02,0 -96,-42.981 -96,-96 z"
       fill="#8db8b1"
       fill-opacity="0.5"
       id="path462" />
    <path
       d="m 1414,1005 c 0,-53.019 42.98,-96 96,-96 v 0 96 z"
       fill="#8db8b1"
       fill-opacity="0.5"
       id="path464" />
    <path
       d="m 1515,909 v 0 c 53.02,0 96,42.981 96,96 v 0 h -96 z"
       fill="#8db8b1"
       fill-opacity="0.5"
       id="path466" />
  </g>
  <g
     clip-path="url(#clip26_76_3530)"
     id="g486">
    <path
       d="m 808,1106 c 0,-53.02 42.981,-96 96,-96 v 0 96 z"
       fill="#8db8b1"
       fill-opacity="0.5"
       id="path470" />
    <path
       d="m 909,1010 h 96 v 0 c 0,53.02 -42.981,96 -96,96 v 0 z"
       fill="#9bc9c1"
       id="path472" />
    <path
       d="m 1010,1106 v -96 0 c 53.02,0 96,42.98 96,96 v 0 z"
       fill="#8db8b1"
       fill-opacity="0.5"
       id="path474" />
    <path
       d="m 1207,1106 h -96 v 0 c 0,-53.02 42.98,-96 96,-96 v 0 z"
       fill="#8db8b1"
       fill-opacity="0.5"
       id="path476" />
    <path
       d="m 1308,1106 h -96 v 0 c 0,-53.02 42.98,-96 96,-96 v 0 z"
       fill="#8db8b1"
       fill-opacity="0.5"
       id="path478" />
    <path
       d="m 1313,1010 h 96 v 0 c 0,53.02 -42.98,96 -96,96 v 0 z"
       fill="#8db8b1"
       fill-opacity="0.5"
       id="path480" />
    <path
       d="m 1414,1010 h 96 v 0 c 0,53.02 -42.98,96 -96,96 v 0 z"
       fill="#8db8b1"
       fill-opacity="0.5"
       id="path482" />
    <path
       d="m 1611,1010 v 96 0 c -53.02,0 -96,-42.98 -96,-96 v 0 z"
       fill="#8db8b1"
       fill-opacity="0.5"
       id="path484" />
  </g>
  <g
     clip-path="url(#clip27_76_3530)"
     id="g504">
    <path
       d="m 904,1111 v 96 0 c -53.019,0 -96,-42.98 -96,-96 v 0 z"
       fill="#8db8b1"
       fill-opacity="0.5"
       id="path488" />
    <path
       d="m 909,1207 v -96 0 c 53.019,0 96,42.98 96,96 v 0 z"
       fill="#9bc9c1"
       id="path490" />
    <path
       d="m 1106,1111 v 96 0 c -53.02,0 -96,-42.98 -96,-96 v 0 z"
       fill="#8db8b1"
       fill-opacity="0.5"
       id="path492" />
    <path
       d="m 1111,1111 h 96 v 0 c 0,53.02 -42.98,96 -96,96 v 0 z"
       fill="#8db8b1"
       fill-opacity="0.5"
       id="path494" />
    <path
       d="m 1308,1111 v 96 0 c -53.02,0 -96,-42.98 -96,-96 v 0 z"
       fill="#8db8b1"
       fill-opacity="0.5"
       id="path496" />
    <path
       d="m 1313,1207 v -96 0 c 53.02,0 96,42.98 96,96 v 0 z"
       fill="#8db8b1"
       fill-opacity="0.5"
       id="path498" />
    <path
       d="m 1510,1207 h -96 v 0 c 0,-53.02 42.98,-96 96,-96 v 0 z"
       fill="#8db8b1"
       fill-opacity="0.5"
       id="path500" />
    <path
       d="m 1515,1111 h 96 v 0 c 0,53.02 -42.98,96 -96,96 v 0 z"
       fill="#8db8b1"
       fill-opacity="0.5"
       id="path502" />
  </g>
  <g
     clip-path="url(#clip28_76_3530)"
     id="g522">
    <path
       d="m 904,1308 h -96 v 0 c 0,-53.02 42.981,-96 96,-96 v 0 z"
       fill="#8db8b1"
       fill-opacity="0.5"
       id="path506" />
    <path
       d="m 909,1308 v -96 0 c 53.019,0 96,42.98 96,96 v 0 z"
       fill="#8db8b1"
       fill-opacity="0.5"
       id="path508" />
    <path
       d="m 1106,1212 v 96 0 c -53.02,0 -96,-42.98 -96,-96 v 0 z"
       fill="#9bc9c1"
       id="path510" />
    <path
       d="m 1111,1308 v -96 0 c 53.02,0 96,42.98 96,96 v 0 z"
       fill="#8db8b1"
       fill-opacity="0.5"
       id="path512" />
    <path
       d="m 1308,1212 v 96 0 c -53.02,0 -96,-42.98 -96,-96 v 0 z"
       fill="#8db8b1"
       fill-opacity="0.5"
       id="path514" />
    <path
       d="m 1313,1308 v -96 0 c 53.02,0 96,42.98 96,96 v 0 z"
       fill="#8db8b1"
       fill-opacity="0.5"
       id="path516" />
    <path
       d="m 1510,1212 v 96 0 c -53.02,0 -96,-42.98 -96,-96 v 0 z"
       fill="#8db8b1"
       fill-opacity="0.5"
       id="path518" />
    <path
       d="m 1515,1308 v -96 0 c 53.02,0 96,42.98 96,96 v 0 z"
       fill="#8db8b1"
       fill-opacity="0.5"
       id="path520" />
  </g>
  <g
     clip-path="url(#clip29_76_3530)"
     id="g540">
    <path
       d="m 808,1313 h 96 v 0 c 0,53.02 -42.981,96 -96,96 v 0 z"
       fill="#8db8b1"
       fill-opacity="0.5"
       id="path524" />
    <path
       d="m 1005,1313 v 96 0 c -53.019,0 -96,-42.98 -96,-96 v 0 z"
       fill="#8db8b1"
       fill-opacity="0.5"
       id="path526" />
    <path
       d="m 1106,1409 h -96 v 0 c 0,-53.02 42.98,-96 96,-96 v 0 z"
       fill="#9bc9c1"
       id="path528" />
    <path
       d="m 1111,1313 h 96 v 0 c 0,53.02 -42.98,96 -96,96 v 0 z"
       fill="#8db8b1"
       fill-opacity="0.5"
       id="path530" />
    <path
       d="m 1308,1409 h -96 v 0 c 0,-53.02 42.98,-96 96,-96 v 0 z"
       fill="#8db8b1"
       fill-opacity="0.5"
       id="path532" />
    <path
       d="m 1313,1313 h 96 v 0 c 0,53.02 -42.98,96 -96,96 v 0 z"
       fill="#8db8b1"
       fill-opacity="0.5"
       id="path534" />
    <path
       d="m 1414,1409 v -96 0 c 53.02,0 96,42.98 96,96 v 0 z"
       fill="#8db8b1"
       fill-opacity="0.5"
       id="path536" />
    <path
       d="m 1611,1409 h -96 v 0 c 0,-53.02 42.98,-96 96,-96 v 0 z"
       fill="#8db8b1"
       fill-opacity="0.5"
       id="path538" />
  </g>
  <g
     clip-path="url(#clip30_76_3530)"
     id="g558">
    <path
       d="m 904,1510 h -96 v 0 c 0,-53.02 42.981,-96 96,-96 v 0 z"
       fill="#8db8b1"
       fill-opacity="0.5"
       id="path542" />
    <path
       d="m 909,1414 h 96 v 0 c 0,53.02 -42.981,96 -96,96 v 0 z"
       fill="#8db8b1"
       fill-opacity="0.5"
       id="path544" />
    <path
       d="m 1010,1510 v -96 0 c 53.02,0 96,42.98 96,96 v 0 z"
       fill="#8db8b1"
       fill-opacity="0.5"
       id="path546" />
    <path
       d="m 1207,1510 h -96 v 0 c 0,-53.02 42.98,-96 96,-96 v 0 z"
       fill="#8db8b1"
       fill-opacity="0.5"
       id="path548" />
    <path
       d="m 1308,1510 h -96 v 0 c 0,-53.02 42.98,-96 96,-96 v 0 z"
       fill="#f9c7aa"
       id="path550" />
    <path
       d="m 1313,1510 v -96 0 c 53.02,0 96,42.98 96,96 v 0 z"
       fill="#f9c7aa"
       id="path552" />
    <path
       d="m 1510,1414 v 96 0 c -53.02,0 -96,-42.98 -96,-96 v 0 z"
       fill="#8db8b1"
       fill-opacity="0.5"
       id="path554" />
    <path
       d="m 1515,1414 h 96 v 0 c 0,53.02 -42.98,96 -96,96 v 0 z"
       fill="#8db8b1"
       fill-opacity="0.5"
       id="path556" />
  </g>
  <g
     clip-path="url(#clip31_76_3530)"
     id="g576">
    <path
       d="m 904,1515 v 96 0 c -53.019,0 -96,-42.98 -96,-96 v 0 z"
       fill="#8db8b1"
       fill-opacity="0.5"
       id="path560" />
    <path
       d="m 909,1611 v -96 0 c 53.019,0 96,42.98 96,96 v 0 z"
       fill="#8db8b1"
       fill-opacity="0.5"
       id="path562" />
    <path
       d="m 1106,1515 v 96 0 c -53.02,0 -96,-42.98 -96,-96 v 0 z"
       fill="#8db8b1"
       fill-opacity="0.5"
       id="path564" />
    <path
       d="m 1111,1515 h 96 v 0 c 0,53.02 -42.98,96 -96,96 v 0 z"
       fill="#8db8b1"
       fill-opacity="0.5"
       id="path566" />
    <path
       d="m 1212,1515 h 96 v 0 c 0,53.02 -42.98,96 -96,96 v 0 z"
       fill="#f9c7aa"
       id="path568" />
    <path
       d="m 1409,1515 v 96 0 c -53.02,0 -96,-42.98 -96,-96 v 0 z"
       fill="#f9c7aa"
       id="path570" />
    <path
       d="m 1510,1611 h -96 v 0 c 0,-53.02 42.98,-96 96,-96 v 0 z"
       fill="#8db8b1"
       fill-opacity="0.5"
       id="path572" />
    <path
       d="m 1515,1515 h 96 v 0 c 0,53.02 -42.98,96 -96,96 v 0 z"
       fill="#8db8b1"
       fill-opacity="0.5"
       id="path574" />
  </g>
  <defs
     id="defs674">
    <clipPath
       id="clip0_76_3530">
      <rect
         width="803"
         height="96"
         fill="#ffffff"
         id="rect578"
         x="0"
         y="0" />
    </clipPath>
    <clipPath
       id="clip1_76_3530">
      <rect
         width="803"
         height="96"
         fill="#ffffff"
         transform="translate(0,101)"
         id="rect581"
         x="0"
         y="0" />
    </clipPath>
    <clipPath
       id="clip2_76_3530">
      <rect
         width="803"
         height="96"
         fill="#ffffff"
         transform="translate(0,202)"
         id="rect584"
         x="0"
         y="0" />
    </clipPath>
    <clipPath
       id="clip3_76_3530">
      <rect
         width="803"
         height="96"
         fill="#ffffff"
         transform="translate(0,303)"
         id="rect587"
         x="0"
         y="0" />
    </clipPath>
    <clipPath
       id="clip4_76_3530">
      <rect
         width="803"
         height="96"
         fill="#ffffff"
         transform="translate(0,404)"
         id="rect590"
         x="0"
         y="0" />
    </clipPath>
    <clipPath
       id="clip5_76_3530">
      <rect
         width="803"
         height="96"
         fill="#ffffff"
         transform="translate(0,505)"
         id="rect593"
         x="0"
         y="0" />
    </clipPath>
    <clipPath
       id="clip6_76_3530">
      <rect
         width="803"
         height="96"
         fill="#ffffff"
         transform="translate(0,606)"
         id="rect596"
         x="0"
         y="0" />
    </clipPath>
    <clipPath
       id="clip7_76_3530">
      <rect
         width="803"
         height="96"
         fill="#ffffff"
         transform="translate(0,707)"
         id="rect599"
         x="0"
         y="0" />
    </clipPath>
    <clipPath
       id="clip8_76_3530">
      <rect
         width="803"
         height="96"
         fill="#ffffff"
         transform="translate(0,808)"
         id="rect602"
         x="0"
         y="0" />
    </clipPath>
    <clipPath
       id="clip9_76_3530">
      <rect
         width="803"
         height="96"
         fill="#ffffff"
         transform="translate(0,909)"
         id="rect605"
         x="0"
         y="0" />
    </clipPath>
    <clipPath
       id="clip10_76_3530">
      <rect
         width="803"
         height="96"
         fill="#ffffff"
         transform="translate(0,1010)"
         id="rect608"
         x="0"
         y="0" />
    </clipPath>
    <clipPath
       id="clip11_76_3530">
      <rect
         width="803"
         height="96"
         fill="#ffffff"
         transform="translate(0,1111)"
         id="rect611"
         x="0"
         y="0" />
    </clipPath>
    <clipPath
       id="clip12_76_3530">
      <rect
         width="803"
         height="96"
         fill="#ffffff"
         transform="translate(0,1212)"
         id="rect614"
         x="0"
         y="0" />
    </clipPath>
    <clipPath
       id="clip13_76_3530">
      <rect
         width="803"
         height="96"
         fill="#ffffff"
         transform="translate(0,1313)"
         id="rect617"
         x="0"
         y="0" />
    </clipPath>
    <clipPath
       id="clip14_76_3530">
      <rect
         width="803"
         height="96"
         fill="#ffffff"
         transform="translate(0,1414)"
         id="rect620"
         x="0"
         y="0" />
    </clipPath>
    <clipPath
       id="clip15_76_3530">
      <rect
         width="803"
         height="96"
         fill="#ffffff"
         transform="translate(0,1515)"
         id="rect623"
         x="0"
         y="0" />
    </clipPath>
    <clipPath
       id="clip16_76_3530">
      <rect
         width="803"
         height="96"
         fill="#ffffff"
         transform="translate(808)"
         id="rect626"
         x="0"
         y="0" />
    </clipPath>
    <clipPath
       id="clip17_76_3530">
      <rect
         width="803"
         height="96"
         fill="#ffffff"
         transform="translate(808,101)"
         id="rect629"
         x="0"
         y="0" />
    </clipPath>
    <clipPath
       id="clip18_76_3530">
      <rect
         width="803"
         height="96"
         fill="#ffffff"
         transform="translate(808,202)"
         id="rect632"
         x="0"
         y="0" />
    </clipPath>
    <clipPath
       id="clip19_76_3530">
      <rect
         width="803"
         height="96"
         fill="#ffffff"
         transform="translate(808,303)"
         id="rect635"
         x="0"
         y="0" />
    </clipPath>
    <clipPath
       id="clip20_76_3530">
      <rect
         width="803"
         height="96"
         fill="#ffffff"
         transform="translate(808,404)"
         id="rect638"
         x="0"
         y="0" />
    </clipPath>
    <clipPath
       id="clip21_76_3530">
      <rect
         width="803"
         height="96"
         fill="#ffffff"
         transform="translate(808,505)"
         id="rect641"
         x="0"
         y="0" />
    </clipPath>
    <clipPath
       id="clip22_76_3530">
      <rect
         width="803"
         height="96"
         fill="#ffffff"
         transform="translate(808,606)"
         id="rect644"
         x="0"
         y="0" />
    </clipPath>
    <clipPath
       id="clip23_76_3530">
      <rect
         width="803"
         height="96"
         fill="#ffffff"
         transform="translate(808,707)"
         id="rect647"
         x="0"
         y="0" />
    </clipPath>
    <clipPath
       id="clip24_76_3530">
      <rect
         width="803"
         height="96"
         fill="#ffffff"
         transform="translate(808,808)"
         id="rect650"
         x="0"
         y="0" />
    </clipPath>
    <clipPath
       id="clip25_76_3530">
      <rect
         width="803"
         height="96"
         fill="#ffffff"
         transform="translate(808,909)"
         id="rect653"
         x="0"
         y="0" />
    </clipPath>
    <clipPath
       id="clip26_76_3530">
      <rect
         width="803"
         height="96"
         fill="#ffffff"
         transform="translate(808,1010)"
         id="rect656"
         x="0"
         y="0" />
    </clipPath>
    <clipPath
       id="clip27_76_3530">
      <rect
         width="803"
         height="96"
         fill="#ffffff"
         transform="translate(808,1111)"
         id="rect659"
         x="0"
         y="0" />
    </clipPath>
    <clipPath
       id="clip28_76_3530">
      <rect
         width="803"
         height="96"
         fill="#ffffff"
         transform="translate(808,1212)"
         id="rect662"
         x="0"
         y="0" />
    </clipPath>
    <clipPath
       id="clip29_76_3530">
      <rect
         width="803"
         height="96"
         fill="#ffffff"
         transform="translate(808,1313)"
         id="rect665"
         x="0"
         y="0" />
    </clipPath>
    <clipPath
       id="clip30_76_3530">
      <rect
         width="803"
         height="96"
         fill="#ffffff"
         transform="translate(808,1414)"
         id="rect668"
         x="0"
         y="0" />
    </clipPath>
    <clipPath
       id="clip31_76_3530">
      <rect
         width="803"
         height="96"
         fill="#ffffff"
         transform="translate(808,1515)"
         id="rect671"
         x="0"
         y="0" />
    </clipPath>
  </defs>
</svg>
