<?xml version="1.0" encoding="UTF-8" standalone="no"?>
<svg
   width="1614"
   height="1614"
   viewBox="0 0 1614 1614"
   fill="none"
   version="1.1"
   id="svg678"
   sodipodi:docname="flower_pattern_big2_right.svg"
   inkscape:export-filename="flower_pattern_big2_right.png"
   inkscape:export-xdpi="201"
   inkscape:export-ydpi="201"
   inkscape:version="1.2.2 (b0a84865, 2022-12-01)"
   xmlns:inkscape="http://www.inkscape.org/namespaces/inkscape"
   xmlns:sodipodi="http://sodipodi.sourceforge.net/DTD/sodipodi-0.dtd"
   xmlns="http://www.w3.org/2000/svg"
   xmlns:svg="http://www.w3.org/2000/svg">
  <sodipodi:namedview
     id="namedview680"
     pagecolor="#ffffff"
     bordercolor="#666666"
     borderopacity="1.0"
     inkscape:showpageshadow="2"
     inkscape:pageopacity="0.0"
     inkscape:pagecheckerboard="0"
     inkscape:deskcolor="#d1d1d1"
     showgrid="false"
     inkscape:zoom="3.0737678"
     inkscape:cx="64.090724"
     inkscape:cy="118.25877"
     inkscape:window-width="1673"
     inkscape:window-height="939"
     inkscape:window-x="40"
     inkscape:window-y="51"
     inkscape:window-maximized="0"
     inkscape:current-layer="svg678" />
  <rect
     width="1614"
     height="1614"
     fill="#f4f5e4"
     id="rect2"
     x="0"
     y="0" />
  <g
     clip-path="url(#clip0_76_3530)"
     id="g20"
     transform="translate(5)">
    <path
       d="m 0,0 h 96 v 96 0 C 42.9807,96 0,53.0193 0,0 Z"
       fill="#ffab64"
       id="path4" />
    <path
       d="m 101,0 v 0 c 53.019,0 96,42.9807 96,96 v 0 h -96 z"
       fill="#c39c85"
       id="path6" />
    <path
       d="m 202,0 v 0 c 53.019,0 96,42.9807 96,96 v 0 h -96 z"
       fill="#ffab64"
       id="path8" />
    <path
       d="M 303,96 C 303,42.9807 345.981,0 399,0 v 0 96 h -96 z"
       fill="#ffab64"
       id="path10" />
    <path
       d="M 404,96 C 404,42.9807 446.981,0 500,0 v 0 96 h -96 z"
       fill="#ffab64"
       id="path12" />
    <path
       d="m 505,0 v 0 c 53.019,0 96,42.9807 96,96 v 0 h -96 z"
       fill="#ffab64"
       id="path14" />
    <path
       d="m 606,0 h 96 v 96 0 C 648.981,96 606,53.0193 606,0 Z"
       fill="#ffab64"
       id="path16" />
    <path
       d="m 707,0 v 0 c 53.019,0 96,42.9807 96,96 v 0 h -96 z"
       fill="#ffab64"
       id="path18" />
  </g>
  <g
     clip-path="url(#clip1_76_3530)"
     id="g38"
     transform="translate(5)">
    <path
       d="m 0,197 c 0,-53.019 42.9807,-96 96,-96 v 0 96 H 0 Z"
       fill="#ffab64"
       id="path22" />
    <path
       d="m 101,101 h 96 v 0 c 0,53.019 -42.981,96 -96,96 v 0 z"
       fill="#c39c85"
       id="path24" />
    <path
       d="m 202,101 h 96 v 96 0 c -53.019,0 -96,-42.981 -96,-96 z"
       fill="#ffab64"
       id="path26" />
    <path
       d="m 303,101 h 96 v 0 c 0,53.019 -42.981,96 -96,96 v 0 z"
       fill="#ffab64"
       id="path28" />
    <path
       d="m 404,101 h 96 v 0 c 0,53.019 -42.981,96 -96,96 v 0 z"
       fill="#ffab64"
       id="path30" />
    <path
       d="m 505,101 h 96 v 96 0 c -53.019,0 -96,-42.981 -96,-96 z"
       fill="#ffab64"
       id="path32" />
    <path
       d="m 606,197 c 0,-53.019 42.981,-96 96,-96 v 0 96 h -96 z"
       fill="#ffab64"
       id="path34" />
    <path
       d="m 707,101 v 0 c 53.019,0 96,42.981 96,96 v 0 h -96 z"
       fill="#ffab64"
       id="path36" />
  </g>
  <g
     clip-path="url(#clip2_76_3530)"
     id="g56"
     transform="translate(5)">
    <path
       d="m 0,298 c 0,-53.019 42.9807,-96 96,-96 v 0 96 H 0 Z"
       fill="#ffab64"
       id="path40" />
    <path
       d="m 101,202 h 96 v 0 c 0,53.019 -42.981,96 -96,96 v 0 z"
       fill="#ffab64"
       id="path42" />
    <path
       d="m 202,298 v -96 0 c 53.019,0 96,42.981 96,96 v 0 z"
       fill="#8db8b1"
       id="path44" />
    <path
       d="m 399,298 h -96 v 0 c 0,-53.019 42.981,-96 96,-96 v 0 z"
       fill="#8db8b1"
       id="path46" />
    <path
       d="m 500,298 h -96 v 0 c 0,-53.019 42.981,-96 96,-96 v 0 z"
       fill="#ffab64"
       id="path48" />
    <path
       d="m 505,202 h 96 v 0 c 0,53.019 -42.981,96 -96,96 v 0 z"
       fill="#ffab64"
       id="path50" />
    <path
       d="m 606,202 h 96 v 0 c 0,53.019 -42.981,96 -96,96 v 0 z"
       fill="#ffab64"
       id="path52" />
    <path
       d="m 803,202 v 96 0 c -53.019,0 -96,-42.981 -96,-96 v 0 z"
       fill="#ffab64"
       id="path54" />
  </g>
  <g
     clip-path="url(#clip3_76_3530)"
     id="g74"
     transform="translate(5)">
    <path
       d="m 96,303 v 96 0 C 42.9807,399 0,356.019 0,303 v 0 z"
       fill="#ffab64"
       id="path58" />
    <path
       d="m 101,399 v -96 0 c 53.019,0 96,42.981 96,96 v 0 z"
       fill="#ffab64"
       id="path60" />
    <path
       d="m 298,303 v 96 0 c -53.019,0 -96,-42.981 -96,-96 v 0 z"
       fill="#8db8b1"
       id="path62" />
    <path
       d="m 303,303 h 96 v 0 c 0,53.019 -42.981,96 -96,96 v 0 z"
       fill="#8db8b1"
       id="path64" />
    <path
       d="m 500,303 v 96 0 c -53.019,0 -96,-42.981 -96,-96 v 0 z"
       fill="#ffab64"
       id="path66" />
    <path
       d="m 505,399 v -96 0 c 53.019,0 96,42.981 96,96 v 0 z"
       fill="#ffab64"
       id="path68" />
    <path
       d="m 702,399 h -96 v 0 c 0,-53.019 42.981,-96 96,-96 v 0 z"
       fill="#ffab64"
       id="path70" />
    <path
       d="m 707,303 h 96 v 0 c 0,53.019 -42.981,96 -96,96 v 0 z"
       fill="#ffab64"
       id="path72" />
  </g>
  <g
     clip-path="url(#clip4_76_3530)"
     id="g92"
     transform="translate(5)">
    <path
       d="M 96,500 H 0 v 0 c 0,-53.019 42.9807,-96 96,-96 v 0 z"
       fill="#ffab64"
       id="path76" />
    <path
       d="m 101,500 v -96 0 c 53.019,0 96,42.981 96,96 v 0 z"
       fill="#ffab64"
       id="path78" />
    <path
       d="m 298,404 v 96 0 c -53.019,0 -96,-42.981 -96,-96 v 0 z"
       fill="#ffab64"
       id="path80" />
    <path
       d="m 303,500 v -96 0 c 53.019,0 96,42.981 96,96 v 0 z"
       fill="#ffab64"
       id="path82" />
    <path
       d="m 500,404 v 96 0 c -53.019,0 -96,-42.981 -96,-96 v 0 z"
       fill="#c39c85"
       id="path84" />
    <path
       d="m 505,500 v -96 0 c 53.019,0 96,42.981 96,96 v 0 z"
       fill="#ffab64"
       id="path86" />
    <path
       d="m 702,404 v 96 0 c -53.019,0 -96,-42.981 -96,-96 v 0 z"
       fill="#ffab64"
       id="path88" />
    <path
       d="m 707,500 v -96 0 c 53.019,0 96,42.981 96,96 v 0 z"
       fill="#ffab64"
       id="path90" />
  </g>
  <g
     clip-path="url(#clip5_76_3530)"
     id="g110"
     transform="translate(5)">
    <path
       d="m 0,505 h 96 v 0 c 0,53.019 -42.9807,96 -96,96 v 0 z"
       fill="#ffab64"
       id="path94" />
    <path
       d="m 197,505 v 96 0 c -53.019,0 -96,-42.981 -96,-96 v 0 z"
       fill="#ffab64"
       id="path96" />
    <path
       d="m 298,601 h -96 v 0 c 0,-53.019 42.981,-96 96,-96 v 0 z"
       fill="#ffab64"
       id="path98" />
    <path
       d="m 303,505 h 96 v 0 c 0,53.019 -42.981,96 -96,96 v 0 z"
       fill="#ffab64"
       id="path100" />
    <path
       d="m 500,601 h -96 v 0 c 0,-53.019 42.981,-96 96,-96 v 0 z"
       fill="#c39c85"
       id="path102" />
    <path
       d="m 505,505 h 96 v 0 c 0,53.019 -42.981,96 -96,96 v 0 z"
       fill="#ffab64"
       id="path104" />
    <path
       d="m 702,505 v 96 0 c -53.019,0 -96,-42.981 -96,-96 v 0 z"
       fill="#ffab64"
       id="path106" />
    <path
       d="m 707,601 v -96 0 c 53.019,0 96,42.981 96,96 v 0 z"
       fill="#ffab64"
       id="path108" />
  </g>
  <g
     clip-path="url(#clip6_76_3530)"
     id="g128"
     transform="translate(5)">
    <path
       d="M 96,702 H 0 v 0 c 0,-53.019 42.9807,-96 96,-96 v 0 z"
       fill="#ffab64"
       id="path112" />
    <path
       d="m 101,606 h 96 v 0 c 0,53.019 -42.981,96 -96,96 v 0 z"
       fill="#ffab64"
       id="path114" />
    <path
       d="m 202,702 v -96 0 c 53.019,0 96,42.981 96,96 v 0 z"
       fill="#ffab64"
       id="path116" />
    <path
       d="m 399,702 h -96 v 0 c 0,-53.019 42.981,-96 96,-96 v 0 z"
       fill="#ffab64"
       id="path118" />
    <path
       d="m 500,702 h -96 v 0 c 0,-53.019 42.981,-96 96,-96 v 0 z"
       fill="#ffab64"
       id="path120" />
    <path
       d="m 505,702 v -96 0 c 53.019,0 96,42.981 96,96 v 0 z"
       fill="#ffab64"
       id="path122" />
    <path
       d="m 702,702 h -96 v 0 c 0,-53.019 42.981,-96 96,-96 v 0 z"
       fill="#ffab64"
       id="path124" />
    <path
       d="m 707,606 h 96 v 0 c 0,53.019 -42.981,96 -96,96 v 0 z"
       fill="#ffab64"
       id="path126" />
  </g>
  <g
     clip-path="url(#clip7_76_3530)"
     id="g146"
     transform="translate(5)">
    <path
       d="m 96,707 v 96 0 C 42.9807,803 0,760.019 0,707 v 0 z"
       fill="#ffab64"
       id="path130" />
    <path
       d="m 101,803 v -96 0 c 53.019,0 96,42.981 96,96 v 0 z"
       fill="#ffab64"
       id="path132" />
    <path
       d="m 298,707 v 96 0 c -53.019,0 -96,-42.981 -96,-96 v 0 z"
       fill="#ffab64"
       id="path134" />
    <path
       d="m 303,707 h 96 v 0 c 0,53.019 -42.981,96 -96,96 v 0 z"
       fill="#ffab64"
       id="path136" />
    <path
       d="m 404,707 h 96 v 0 c 0,53.019 -42.981,96 -96,96 v 0 z"
       fill="#ffab64"
       id="path138" />
    <path
       d="m 601,707 v 96 0 c -53.019,0 -96,-42.981 -96,-96 v 0 z"
       fill="#ffab64"
       id="path140" />
    <path
       d="m 702,803 h -96 v 0 c 0,-53.019 42.981,-96 96,-96 v 0 z"
       fill="#ffab64"
       id="path142" />
    <path
       d="m 707,803 v -96 0 c 53.019,0 96,42.981 96,96 v 0 z"
       fill="#ffab64"
       id="path144" />
  </g>
  <g
     clip-path="url(#clip8_76_3530)"
     id="g164"
     transform="translate(5)">
    <path
       d="m 0,806 h 96 v 96 0 C 42.9807,902 0,859.019 0,806 Z"
       fill="#ffab64"
       id="path148" />
    <path
       d="m 101,806 v 0 c 53.019,0 96,42.981 96,96 v 0 h -96 z"
       fill="#ffab64"
       id="path150" />
    <path
       d="m 202,806 v 0 c 53.019,0 96,42.981 96,96 v 0 h -96 z"
       fill="#c39c85"
       id="path152" />
    <path
       d="m 303,902 c 0,-53.019 42.981,-96 96,-96 v 0 96 h -96 z"
       fill="#c39c85"
       id="path154" />
    <path
       d="m 404,902 c 0,-53.019 42.981,-96 96,-96 v 0 96 h -96 z"
       fill="#ffab64"
       id="path156" />
    <path
       d="m 505,806 v 0 c 53.019,0 96,42.981 96,96 v 0 h -96 z"
       fill="#ffab64"
       id="path158" />
    <path
       d="m 606,902 v -96 h 96 v 0 c 0,53.019 -42.981,96 -96,96 z"
       fill="#c39c85"
       id="path160" />
    <path
       d="m 803,902 v 0 c -53.019,0 -96,-42.981 -96,-96 v 0 h 96 z"
       fill="#c39c85"
       id="path162" />
  </g>
  <g
     clip-path="url(#clip9_76_3530)"
     id="g182"
     transform="translate(5)">
    <path
       d="m 0,1003 c 0,-53.019 42.9807,-96 96,-96 v 0 96 H 0 Z"
       fill="#ffab64"
       id="path166" />
    <path
       d="m 101,907 h 96 v 0 c 0,53.019 -42.981,96 -96,96 v 0 z"
       fill="#ffab64"
       id="path168" />
    <path
       d="m 202,907 h 96 v 96 0 c -53.019,0 -96,-42.981 -96,-96 z"
       fill="#ffab64"
       id="path170" />
    <path
       d="m 303,907 h 96 v 0 c 0,53.019 -42.981,96 -96,96 v 0 z"
       fill="#ffab64"
       id="path172" />
    <path
       d="m 404,907 h 96 v 0 c 0,53.019 -42.981,96 -96,96 v 0 z"
       fill="#ffab64"
       id="path174" />
    <path
       d="m 505,907 h 96 v 96 0 c -53.019,0 -96,-42.981 -96,-96 z"
       fill="#ffab64"
       id="path176" />
    <path
       d="m 606,1003 c 0,-53.019 42.981,-96 96,-96 v 0 96 h -96 z"
       fill="#ffab64"
       id="path178" />
    <path
       d="m 707,907 v 0 c 53.019,0 96,42.981 96,96 v 0 h -96 z"
       fill="#ffab64"
       id="path180" />
  </g>
  <g
     clip-path="url(#clip10_76_3530)"
     id="g200"
     transform="translate(5)">
    <path
       d="m 0,1104 c 0,-53.02 42.9807,-96 96,-96 v 0 96 H 0 Z"
       fill="#ffab64"
       id="path184" />
    <path
       d="m 101,1008 h 96 v 0 c 0,53.02 -42.981,96 -96,96 v 0 z"
       fill="#ffab64"
       id="path186" />
    <path
       d="m 202,1104 v -96 0 c 53.019,0 96,42.98 96,96 v 0 z"
       fill="#ffab64"
       id="path188" />
    <path
       d="m 399,1104 h -96 v 0 c 0,-53.02 42.981,-96 96,-96 v 0 z"
       fill="#ffab64"
       id="path190" />
    <path
       d="m 500,1104 h -96 v 0 c 0,-53.02 42.981,-96 96,-96 v 0 z"
       fill="#8db8b1"
       id="path192" />
    <path
       d="m 505,1008 h 96 v 0 c 0,53.02 -42.981,96 -96,96 v 0 z"
       fill="#8db8b1"
       id="path194" />
    <path
       d="m 606,1008 h 96 v 0 c 0,53.02 -42.981,96 -96,96 v 0 z"
       fill="#ffab64"
       id="path196" />
    <path
       d="m 803,1008 v 96 0 c -53.019,0 -96,-42.98 -96,-96 v 0 z"
       fill="#ffab64"
       id="path198" />
  </g>
  <g
     clip-path="url(#clip11_76_3530)"
     id="g218"
     transform="translate(5)">
    <path
       d="m 96,1109 v 96 0 c -53.0193,0 -96,-42.98 -96,-96 v 0 z"
       fill="#ffab64"
       id="path202" />
    <path
       d="m 101,1205 v -96 0 c 53.019,0 96,42.98 96,96 v 0 z"
       fill="#ffab64"
       id="path204" />
    <path
       d="m 298,1109 v 96 0 c -53.019,0 -96,-42.98 -96,-96 v 0 z"
       fill="#ffab64"
       id="path206" />
    <path
       d="m 303,1109 h 96 v 0 c 0,53.02 -42.981,96 -96,96 v 0 z"
       fill="#ffab64"
       id="path208" />
    <path
       d="m 500,1109 v 96 0 c -53.019,0 -96,-42.98 -96,-96 v 0 z"
       fill="#8db8b1"
       id="path210" />
    <path
       d="m 505,1205 v -96 0 c 53.019,0 96,42.98 96,96 v 0 z"
       fill="#8db8b1"
       id="path212" />
    <path
       d="m 702,1205 h -96 v 0 c 0,-53.02 42.981,-96 96,-96 v 0 z"
       fill="#ffab64"
       id="path214" />
    <path
       d="m 707,1109 h 96 v 0 c 0,53.02 -42.981,96 -96,96 v 0 z"
       fill="#ffab64"
       id="path216" />
  </g>
  <g
     clip-path="url(#clip12_76_3530)"
     id="g236"
     transform="translate(5)">
    <path
       d="M 96,1306 H 0 v 0 c 0,-53.02 42.9807,-96 96,-96 v 0 z"
       fill="#c39c85"
       id="path220" />
    <path
       d="m 101,1306 v -96 0 c 53.019,0 96,42.98 96,96 v 0 z"
       fill="#c39c85"
       id="path222" />
    <path
       d="m 298,1210 v 96 0 c -53.019,0 -96,-42.98 -96,-96 v 0 z"
       fill="#ffab64"
       id="path224" />
    <path
       d="m 303,1306 v -96 0 c 53.019,0 96,42.98 96,96 v 0 z"
       fill="#ffab64"
       id="path226" />
    <path
       d="m 500,1210 v 96 0 c -53.019,0 -96,-42.98 -96,-96 v 0 z"
       fill="#ffab64"
       id="path228" />
    <path
       d="m 505,1306 v -96 0 c 53.019,0 96,42.98 96,96 v 0 z"
       fill="#ffab64"
       id="path230" />
    <path
       d="m 702,1210 v 96 0 c -53.019,0 -96,-42.98 -96,-96 v 0 z"
       fill="#ffab64"
       id="path232" />
    <path
       d="m 707,1306 v -96 0 c 53.019,0 96,42.98 96,96 v 0 z"
       fill="#ffab64"
       id="path234" />
  </g>
  <g
     clip-path="url(#clip13_76_3530)"
     id="g254"
     transform="translate(5)">
    <path
       d="m 0,1311 h 96 v 0 c 0,53.02 -42.9807,96 -96,96 v 0 z"
       fill="#ffab64"
       id="path238" />
    <path
       d="m 197,1311 v 96 0 c -53.019,0 -96,-42.98 -96,-96 v 0 z"
       fill="#ffab64"
       id="path240" />
    <path
       d="m 298,1407 h -96 v 0 c 0,-53.02 42.981,-96 96,-96 v 0 z"
       fill="#ffab64"
       id="path242" />
    <path
       d="m 303,1311 h 96 v 0 c 0,53.02 -42.981,96 -96,96 v 0 z"
       fill="#ffab64"
       id="path244" />
    <path
       d="m 500,1407 h -96 v 0 c 0,-53.02 42.981,-96 96,-96 v 0 z"
       fill="#ffab64"
       id="path246" />
    <path
       d="m 505,1311 h 96 v 0 c 0,53.02 -42.981,96 -96,96 v 0 z"
       fill="#ffab64"
       id="path248" />
    <path
       d="m 606,1407 v -96 0 c 53.019,0 96,42.98 96,96 v 0 z"
       fill="#c39c85"
       id="path250" />
    <path
       d="m 803,1407 h -96 v 0 c 0,-53.02 42.981,-96 96,-96 v 0 z"
       fill="#c39c85"
       id="path252" />
  </g>
  <g
     clip-path="url(#clip14_76_3530)"
     id="g272"
     transform="translate(5)">
    <path
       d="M 96,1508 H 0 v 0 c 0,-53.02 42.9807,-96 96,-96 v 0 z"
       fill="#ffab64"
       id="path256" />
    <path
       d="m 101,1412 h 96 v 0 c 0,53.02 -42.981,96 -96,96 v 0 z"
       fill="#ffab64"
       id="path258" />
    <path
       d="m 202,1508 v -96 0 c 53.019,0 96,42.98 96,96 v 0 z"
       fill="#c39c85"
       id="path260" />
    <path
       d="m 399,1508 h -96 v 0 c 0,-53.02 42.981,-96 96,-96 v 0 z"
       fill="#c39c85"
       id="path262" />
    <path
       d="m 500,1508 h -96 v 0 c 0,-53.02 42.981,-96 96,-96 v 0 z"
       fill="#ffab64"
       id="path264" />
    <path
       d="m 505,1508 v -96 0 c 53.019,0 96,42.98 96,96 v 0 z"
       fill="#ffab64"
       id="path266" />
    <path
       d="m 702,1412 v 96 0 c -53.019,0 -96,-42.98 -96,-96 v 0 z"
       fill="#ffab64"
       id="path268" />
    <path
       d="m 707,1412 h 96 v 0 c 0,53.02 -42.981,96 -96,96 v 0 z"
       fill="#ffab64"
       id="path270" />
  </g>
  <g
     clip-path="url(#clip15_76_3530)"
     id="g290"
     transform="translate(5)">
    <path
       d="m 96,1513 v 96 0 c -53.0193,0 -96,-42.98 -96,-96 v 0 z"
       fill="#ffab64"
       id="path274" />
    <path
       d="m 101,1609 v -96 0 c 53.019,0 96,42.98 96,96 v 0 z"
       fill="#ffab64"
       id="path276" />
    <path
       d="m 298,1513 v 96 0 c -53.019,0 -96,-42.98 -96,-96 v 0 z"
       fill="#ffab64"
       id="path278" />
    <path
       d="m 303,1513 h 96 v 0 c 0,53.02 -42.981,96 -96,96 v 0 z"
       fill="#ffab64"
       id="path280" />
    <path
       d="m 404,1513 h 96 v 0 c 0,53.02 -42.981,96 -96,96 v 0 z"
       fill="#ffab64"
       id="path282" />
    <path
       d="m 601,1513 v 96 0 c -53.019,0 -96,-42.98 -96,-96 v 0 z"
       fill="#ffab64"
       id="path284" />
    <path
       d="m 702,1609 h -96 v 0 c 0,-53.02 42.981,-96 96,-96 v 0 z"
       fill="#ffab64"
       id="path286" />
    <path
       d="m 707,1513 h 96 v 0 c 0,53.02 -42.981,96 -96,96 v 0 z"
       fill="#ffab64"
       id="path288" />
  </g>
  <g
     clip-path="url(#clip16_76_3530)"
     id="g308"
     transform="translate(5)">
    <path
       d="m 902,0 v 96 h -96 v 0 C 806,42.9807 848.981,0 902,0 Z"
       fill="#ffab64"
       id="path292" />
    <path
       d="m 907,0 v 0 c 53.019,0 96,42.9807 96,96 v 0 h -96 z"
       fill="#ffab64"
       id="path294" />
    <path
       d="m 1008,96 v 0 c 0,-53.0193 42.98,-96 96,-96 v 0 96 z"
       fill="#ffab64"
       id="path296" />
    <path
       d="m 1205,0 c 0,53.0193 -42.98,96 -96,96 V 96 0 h 96 z"
       fill="#c39c85"
       id="path298" />
    <path
       d="m 1210,96 c 0,-53.0193 42.98,-96 96,-96 v 0 96 h -96 z"
       fill="#ffab64"
       id="path300" />
    <path
       d="m 1407,0 v 0 c 0,53.0193 -42.98,96 -96,96 V 96 0 Z"
       fill="#ffab64"
       id="path302" />
    <path
       d="m 1412,0 h 96 v 96 0 c -53.02,0 -96,-42.9807 -96,-96 z"
       fill="#ffab64"
       id="path304" />
    <path
       d="m 1513,0 v 0 c 53.02,0 96,42.9807 96,96 v 0 h -96 z"
       fill="#ffab64"
       id="path306" />
  </g>
  <g
     clip-path="url(#clip17_76_3530)"
     id="g326"
     transform="translate(5)">
    <path
       d="m 902,101 c 0,53.019 -42.981,96 -96,96 v 0 -96 h 96 z"
       fill="#ffab64"
       id="path310" />
    <path
       d="m 1003,101 v 96 0 c -53.019,0 -96,-42.981 -96,-96 v 0 z"
       fill="#ffab64"
       id="path312" />
    <path
       d="m 1008,101 h 96 v 96 0 c -53.02,0 -96,-42.981 -96,-96 z"
       fill="#ffab64"
       id="path314" />
    <path
       d="m 1109,197 v -96 0 c 53.02,0 96,42.981 96,96 v 0 z"
       fill="#c39c85"
       id="path316" />
    <path
       d="m 1306,101 v 96 0 c -53.02,0 -96,-42.981 -96,-96 v 0 z"
       fill="#ffab64"
       id="path318" />
    <path
       d="m 1407,197 h -96 v -96 0 c 53.02,0 96,42.981 96,96 z"
       fill="#ffab64"
       id="path320" />
    <path
       d="m 1412,197 c 0,-53.019 42.98,-96 96,-96 v 0 96 h -96 z"
       fill="#ffab64"
       id="path322" />
    <path
       d="m 1513,101 v 0 c 53.02,0 96,42.981 96,96 v 0 h -96 z"
       fill="#ffab64"
       id="path324" />
  </g>
  <g
     clip-path="url(#clip18_76_3530)"
     id="g344"
     transform="translate(5)">
    <path
       d="m 806,298 c 0,-53.019 42.981,-96 96,-96 v 0 96 h -96 z"
       fill="#c39c85"
       id="path328" />
    <path
       d="m 907,202 h 96 v 0 c 0,53.019 -42.981,96 -96,96 v 0 z"
       fill="#ffab64"
       id="path330" />
    <path
       d="m 1008,298 v -96 0 c 53.02,0 96,42.981 96,96 v 0 z"
       fill="#ffab64"
       id="path332" />
    <path
       d="m 1205,298 h -96 v 0 c 0,-53.019 42.98,-96 96,-96 v 0 z"
       fill="#ffab64"
       id="path334" />
    <path
       d="m 1306,298 h -96 v 0 c 0,-53.019 42.98,-96 96,-96 v 0 z"
       fill="#ffab64"
       id="path336" />
    <path
       d="m 1311,202 h 96 v 0 c 0,53.019 -42.98,96 -96,96 v 0 z"
       fill="#ffab64"
       id="path338" />
    <path
       d="m 1412,202 h 96 v 0 c 0,53.019 -42.98,96 -96,96 v 0 z"
       fill="#ffab64"
       id="path340" />
    <path
       d="m 1609,202 v 96 0 c -53.02,0 -96,-42.981 -96,-96 v 0 z"
       fill="#ffab64"
       id="path342" />
  </g>
  <g
     clip-path="url(#clip19_76_3530)"
     id="g362"
     transform="translate(5)">
    <path
       d="m 902,303 v 96 0 c -53.019,0 -96,-42.981 -96,-96 v 0 z"
       fill="#c39c85"
       id="path346" />
    <path
       d="m 907,399 v -96 0 c 53.019,0 96,42.981 96,96 v 0 z"
       fill="#ffab64"
       id="path348" />
    <path
       d="m 1104,303 v 96 0 c -53.02,0 -96,-42.981 -96,-96 v 0 z"
       fill="#ffab64"
       id="path350" />
    <path
       d="m 1109,303 h 96 v 0 c 0,53.019 -42.98,96 -96,96 v 0 z"
       fill="#ffab64"
       id="path352" />
    <path
       d="m 1306,303 v 96 0 c -53.02,0 -96,-42.981 -96,-96 v 0 z"
       fill="#ffab64"
       id="path354" />
    <path
       d="m 1311,399 v -96 0 c 53.02,0 96,42.981 96,96 v 0 z"
       fill="#ffab64"
       id="path356" />
    <path
       d="m 1508,399 h -96 v 0 c 0,-53.019 42.98,-96 96,-96 v 0 z"
       fill="#ffab64"
       id="path358" />
    <path
       d="m 1513,303 h 96 v 0 c 0,53.019 -42.98,96 -96,96 v 0 z"
       fill="#c39c85"
       id="path360" />
  </g>
  <g
     clip-path="url(#clip20_76_3530)"
     id="g380"
     transform="translate(5)">
    <path
       d="m 902,500 h -96 v 0 c 0,-53.019 42.981,-96 96,-96 v 0 z"
       fill="#ffab64"
       id="path364" />
    <path
       d="m 907,500 v -96 0 c 53.019,0 96,42.981 96,96 v 0 z"
       fill="#ffab64"
       id="path366" />
    <path
       d="m 1104,404 v 96 0 c -53.02,0 -96,-42.981 -96,-96 v 0 z"
       fill="#8db8b1"
       id="path368" />
    <path
       d="m 1109,500 v -96 0 c 53.02,0 96,42.981 96,96 v 0 z"
       fill="#8db8b1"
       id="path370" />
    <path
       d="m 1306,404 v 96 0 c -53.02,0 -96,-42.981 -96,-96 v 0 z"
       fill="#ffab64"
       id="path372" />
    <path
       d="m 1311,500 v -96 0 c 53.02,0 96,42.981 96,96 v 0 z"
       fill="#ffab64"
       id="path374" />
    <path
       d="m 1508,404 v 96 0 c -53.02,0 -96,-42.981 -96,-96 v 0 z"
       fill="#ffab64"
       id="path376" />
    <path
       d="m 1513,500 v -96 0 c 53.02,0 96,42.981 96,96 v 0 z"
       fill="#c39c85"
       id="path378" />
  </g>
  <g
     clip-path="url(#clip21_76_3530)"
     id="g398"
     transform="translate(5)">
    <path
       d="m 806,505 h 96 v 0 c 0,53.019 -42.981,96 -96,96 v 0 z"
       fill="#ffab64"
       id="path382" />
    <path
       d="m 1003,505 v 96 0 c -53.019,0 -96,-42.981 -96,-96 v 0 z"
       fill="#ffab64"
       id="path384" />
    <path
       d="m 1104,601 h -96 v 0 c 0,-53.019 42.98,-96 96,-96 v 0 z"
       fill="#8db8b1"
       id="path386" />
    <path
       d="m 1109,505 h 96 v 0 c 0,53.019 -42.98,96 -96,96 v 0 z"
       fill="#8db8b1"
       id="path388" />
    <path
       d="m 1306,601 h -96 v 0 c 0,-53.019 42.98,-96 96,-96 v 0 z"
       fill="#ffab64"
       id="path390" />
    <path
       d="m 1311,505 h 96 v 0 c 0,53.019 -42.98,96 -96,96 v 0 z"
       fill="#ffab64"
       id="path392" />
    <path
       d="m 1508,505 v 96 0 c -53.02,0 -96,-42.981 -96,-96 v 0 z"
       fill="#ffab64"
       id="path394" />
    <path
       d="m 1513,601 v -96 0 c 53.02,0 96,42.981 96,96 v 0 z"
       fill="#ffab64"
       id="path396" />
  </g>
  <g
     clip-path="url(#clip22_76_3530)"
     id="g416"
     transform="translate(5)">
    <path
       d="m 902,702 h -96 v 0 c 0,-53.019 42.981,-96 96,-96 v 0 z"
       fill="#ffab64"
       id="path400" />
    <path
       d="m 907,606 h 96 v 0 c 0,53.019 -42.981,96 -96,96 v 0 z"
       fill="#ffab64"
       id="path402" />
    <path
       d="m 1008,702 v -96 0 c 53.02,0 96,42.981 96,96 v 0 z"
       fill="#ffab64"
       id="path404" />
    <path
       d="m 1205,702 h -96 v 0 c 0,-53.019 42.98,-96 96,-96 v 0 z"
       fill="#ffab64"
       id="path406" />
    <path
       d="m 1306,702 h -96 v 0 c 0,-53.019 42.98,-96 96,-96 v 0 z"
       fill="#ffab64"
       id="path408" />
    <path
       d="m 1311,702 v -96 0 c 53.02,0 96,42.981 96,96 v 0 z"
       fill="#ffab64"
       id="path410" />
    <path
       d="m 1508,702 h -96 v 0 c 0,-53.019 42.98,-96 96,-96 v 0 z"
       fill="#ffab64"
       id="path412" />
    <path
       d="m 1513,606 h 96 v 0 c 0,53.019 -42.98,96 -96,96 v 0 z"
       fill="#ffab64"
       id="path414" />
  </g>
  <g
     clip-path="url(#clip23_76_3530)"
     id="g434"
     transform="translate(5)">
    <path
       d="m 902,707 v 96 0 c -53.019,0 -96,-42.981 -96,-96 v 0 z"
       fill="#ffab64"
       id="path418" />
    <path
       d="m 907,803 v -96 0 c 53.019,0 96,42.981 96,96 v 0 z"
       fill="#ffab64"
       id="path420" />
    <path
       d="m 1104,707 v 96 0 c -53.02,0 -96,-42.981 -96,-96 v 0 z"
       fill="#ffab64"
       id="path422" />
    <path
       d="m 1109,707 h 96 v 0 c 0,53.019 -42.98,96 -96,96 v 0 z"
       fill="#ffab64"
       id="path424" />
    <path
       d="m 1210,707 h 96 v 0 c 0,53.019 -42.98,96 -96,96 v 0 z"
       fill="#c39c85"
       id="path426" />
    <path
       d="m 1407,707 v 96 0 c -53.02,0 -96,-42.981 -96,-96 v 0 z"
       fill="#c39c85"
       id="path428" />
    <path
       d="m 1508,803 h -96 v 0 c 0,-53.019 42.98,-96 96,-96 v 0 z"
       fill="#ffab64"
       id="path430" />
    <path
       d="m 1513,803 v -96 0 c 53.02,0 96,42.981 96,96 v 0 z"
       fill="#ffab64"
       id="path432" />
  </g>
  <g
     clip-path="url(#clip24_76_3530)"
     id="g452"
     transform="translate(5)">
    <path
       d="m 806,806 h 96 v 96 0 c -53.019,0 -96,-42.981 -96,-96 z"
       fill="#ffab64"
       id="path436" />
    <path
       d="m 907,806 v 0 c 53.019,0 96,42.981 96,96 v 0 h -96 z"
       fill="#ffab64"
       id="path438" />
    <path
       d="m 1008,806 v 0 c 53.02,0 96,42.981 96,96 v 0 h -96 z"
       fill="#c39c85"
       id="path440" />
    <path
       d="m 1109,902 c 0,-53.019 42.98,-96 96,-96 v 0 96 h -96 z"
       fill="#c39c85"
       id="path442" />
    <path
       d="m 1210,902 c 0,-53.019 42.98,-96 96,-96 v 0 96 h -96 z"
       fill="#ffab64"
       id="path444" />
    <path
       d="m 1311,806 v 0 c 53.02,0 96,42.981 96,96 v 0 h -96 z"
       fill="#ffab64"
       id="path446" />
    <path
       d="m 1412,902 v -96 h 96 v 0 c 0,53.019 -42.98,96 -96,96 z"
       fill="#ffab64"
       id="path448" />
    <path
       d="m 1609,902 v 0 c -53.02,0 -96,-42.981 -96,-96 v 0 h 96 z"
       fill="#ffab64"
       id="path450" />
  </g>
  <g
     clip-path="url(#clip25_76_3530)"
     id="g470"
     transform="translate(5)">
    <path
       d="m 806,1003 c 0,-53.019 42.981,-96 96,-96 v 0 96 h -96 z"
       fill="#ffab64"
       id="path454" />
    <path
       d="m 907,907 h 96 v 0 c 0,53.019 -42.981,96 -96,96 v 0 z"
       fill="#ffab64"
       id="path456" />
    <path
       d="m 1008,907 h 96 v 96 0 c -53.02,0 -96,-42.981 -96,-96 z"
       fill="#ffab64"
       id="path458" />
    <path
       d="m 1109,907 h 96 v 0 c 0,53.019 -42.98,96 -96,96 v 0 z"
       fill="#ffab64"
       id="path460" />
    <path
       d="m 1210,907 h 96 v 0 c 0,53.019 -42.98,96 -96,96 v 0 z"
       fill="#ffab64"
       id="path462" />
    <path
       d="m 1311,907 h 96 v 96 0 c -53.02,0 -96,-42.981 -96,-96 z"
       fill="#ffab64"
       id="path464" />
    <path
       d="m 1412,1003 c 0,-53.019 42.98,-96 96,-96 v 0 96 h -96 z"
       fill="#ffab64"
       id="path466" />
    <path
       d="m 1513,907 v 0 c 53.02,0 96,42.981 96,96 v 0 h -96 z"
       fill="#ffab64"
       id="path468" />
  </g>
  <g
     clip-path="url(#clip26_76_3530)"
     id="g488"
     transform="translate(5)">
    <path
       d="m 806,1104 c 0,-53.02 42.981,-96 96,-96 v 0 96 h -96 z"
       fill="#ffab64"
       id="path472" />
    <path
       d="m 907,1008 h 96 v 0 c 0,53.02 -42.981,96 -96,96 v 0 z"
       fill="#c39c85"
       id="path474" />
    <path
       d="m 1008,1104 v -96 0 c 53.02,0 96,42.98 96,96 v 0 z"
       fill="#ffab64"
       id="path476" />
    <path
       d="m 1205,1104 h -96 v 0 c 0,-53.02 42.98,-96 96,-96 v 0 z"
       fill="#ffab64"
       id="path478" />
    <path
       d="m 1306,1104 h -96 v 0 c 0,-53.02 42.98,-96 96,-96 v 0 z"
       fill="#ffab64"
       id="path480" />
    <path
       d="m 1311,1008 h 96 v 0 c 0,53.02 -42.98,96 -96,96 v 0 z"
       fill="#ffab64"
       id="path482" />
    <path
       d="m 1412,1008 h 96 v 0 c 0,53.02 -42.98,96 -96,96 v 0 z"
       fill="#c39c85"
       id="path484" />
    <path
       d="m 1609,1008 v 96 0 c -53.02,0 -96,-42.98 -96,-96 v 0 z"
       fill="#c39c85"
       id="path486" />
  </g>
  <g
     clip-path="url(#clip27_76_3530)"
     id="g506"
     transform="translate(5)">
    <path
       d="m 902,1109 v 96 0 c -53.019,0 -96,-42.98 -96,-96 v 0 z"
       fill="#ffab64"
       id="path490" />
    <path
       d="m 907,1205 v -96 0 c 53.019,0 96,42.98 96,96 v 0 z"
       fill="#c39c85"
       id="path492" />
    <path
       d="m 1104,1109 v 96 0 c -53.02,0 -96,-42.98 -96,-96 v 0 z"
       fill="#ffab64"
       id="path494" />
    <path
       d="m 1109,1109 h 96 v 0 c 0,53.02 -42.98,96 -96,96 v 0 z"
       fill="#ffab64"
       id="path496" />
    <path
       d="m 1306,1109 v 96 0 c -53.02,0 -96,-42.98 -96,-96 v 0 z"
       fill="#ffab64"
       id="path498" />
    <path
       d="m 1311,1205 v -96 0 c 53.02,0 96,42.98 96,96 v 0 z"
       fill="#ffab64"
       id="path500" />
    <path
       d="m 1508,1205 h -96 v 0 c 0,-53.02 42.98,-96 96,-96 v 0 z"
       fill="#ffab64"
       id="path502" />
    <path
       d="m 1513,1109 h 96 v 0 c 0,53.02 -42.98,96 -96,96 v 0 z"
       fill="#ffab64"
       id="path504" />
  </g>
  <g
     clip-path="url(#clip28_76_3530)"
     id="g524"
     transform="translate(5)">
    <path
       d="m 902,1306 h -96 v 0 c 0,-53.02 42.981,-96 96,-96 v 0 z"
       fill="#ffab64"
       id="path508" />
    <path
       d="m 907,1306 v -96 0 c 53.019,0 96,42.98 96,96 v 0 z"
       fill="#ffab64"
       id="path510" />
    <path
       d="m 1104,1210 v 96 0 c -53.02,0 -96,-42.98 -96,-96 v 0 z"
       fill="#c39c85"
       id="path512" />
    <path
       d="m 1109,1306 v -96 0 c 53.02,0 96,42.98 96,96 v 0 z"
       fill="#ffab64"
       id="path514" />
    <path
       d="m 1306,1210 v 96 0 c -53.02,0 -96,-42.98 -96,-96 v 0 z"
       fill="#ffab64"
       id="path516" />
    <path
       d="m 1311,1306 v -96 0 c 53.02,0 96,42.98 96,96 v 0 z"
       fill="#ffab64"
       id="path518" />
    <path
       d="m 1508,1210 v 96 0 c -53.02,0 -96,-42.98 -96,-96 v 0 z"
       fill="#ffab64"
       id="path520" />
    <path
       d="m 1513,1306 v -96 0 c 53.02,0 96,42.98 96,96 v 0 z"
       fill="#ffab64"
       id="path522" />
  </g>
  <g
     clip-path="url(#clip29_76_3530)"
     id="g542"
     transform="translate(5)">
    <path
       d="m 806,1311 h 96 v 0 c 0,53.02 -42.981,96 -96,96 v 0 z"
       fill="#ffab64"
       id="path526" />
    <path
       d="m 1003,1311 v 96 0 c -53.019,0 -96,-42.98 -96,-96 v 0 z"
       fill="#ffab64"
       id="path528" />
    <path
       d="m 1104,1407 h -96 v 0 c 0,-53.02 42.98,-96 96,-96 v 0 z"
       fill="#c39c85"
       id="path530" />
    <path
       d="m 1109,1311 h 96 v 0 c 0,53.02 -42.98,96 -96,96 v 0 z"
       fill="#ffab64"
       id="path532" />
    <path
       d="m 1306,1407 h -96 v 0 c 0,-53.02 42.98,-96 96,-96 v 0 z"
       fill="#ffab64"
       id="path534" />
    <path
       d="m 1311,1311 h 96 v 0 c 0,53.02 -42.98,96 -96,96 v 0 z"
       fill="#ffab64"
       id="path536" />
    <path
       d="m 1412,1407 v -96 0 c 53.02,0 96,42.98 96,96 v 0 z"
       fill="#ffab64"
       id="path538" />
    <path
       d="m 1609,1407 h -96 v 0 c 0,-53.02 42.98,-96 96,-96 v 0 z"
       fill="#ffab64"
       id="path540" />
  </g>
  <g
     clip-path="url(#clip30_76_3530)"
     id="g560"
     transform="translate(5)">
    <path
       d="m 902,1508 h -96 v 0 c 0,-53.02 42.981,-96 96,-96 v 0 z"
       fill="#ffab64"
       id="path544" />
    <path
       d="m 907,1412 h 96 v 0 c 0,53.02 -42.981,96 -96,96 v 0 z"
       fill="#ffab64"
       id="path546" />
    <path
       d="m 1008,1508 v -96 0 c 53.02,0 96,42.98 96,96 v 0 z"
       fill="#ffab64"
       id="path548" />
    <path
       d="m 1205,1508 h -96 v 0 c 0,-53.02 42.98,-96 96,-96 v 0 z"
       fill="#ffab64"
       id="path550" />
    <path
       d="m 1306,1508 h -96 v 0 c 0,-53.02 42.98,-96 96,-96 v 0 z"
       fill="#8db8b1"
       id="path552" />
    <path
       d="m 1311,1508 v -96 0 c 53.02,0 96,42.98 96,96 v 0 z"
       fill="#8db8b1"
       id="path554" />
    <path
       d="m 1508,1412 v 96 0 c -53.02,0 -96,-42.98 -96,-96 v 0 z"
       fill="#ffab64"
       id="path556" />
    <path
       d="m 1513,1412 h 96 v 0 c 0,53.02 -42.98,96 -96,96 v 0 z"
       fill="#ffab64"
       id="path558" />
  </g>
  <g
     clip-path="url(#clip31_76_3530)"
     id="g578"
     transform="translate(5)">
    <path
       d="m 902,1513 v 96 0 c -53.019,0 -96,-42.98 -96,-96 v 0 z"
       fill="#ffab64"
       id="path562" />
    <path
       d="m 907,1609 v -96 0 c 53.019,0 96,42.98 96,96 v 0 z"
       fill="#ffab64"
       id="path564" />
    <path
       d="m 1104,1513 v 96 0 c -53.02,0 -96,-42.98 -96,-96 v 0 z"
       fill="#ffab64"
       id="path566" />
    <path
       d="m 1109,1513 h 96 v 0 c 0,53.02 -42.98,96 -96,96 v 0 z"
       fill="#ffab64"
       id="path568" />
    <path
       d="m 1210,1513 h 96 v 0 c 0,53.02 -42.98,96 -96,96 v 0 z"
       fill="#8db8b1"
       id="path570" />
    <path
       d="m 1407,1513 v 96 0 c -53.02,0 -96,-42.98 -96,-96 v 0 z"
       fill="#8db8b1"
       id="path572" />
    <path
       d="m 1508,1609 h -96 v 0 c 0,-53.02 42.98,-96 96,-96 v 0 z"
       fill="#ffab64"
       id="path574" />
    <path
       d="m 1513,1513 h 96 v 0 c 0,53.02 -42.98,96 -96,96 v 0 z"
       fill="#ffab64"
       id="path576" />
  </g>
  <defs
     id="defs676">
    <clipPath
       id="clip0_76_3530">
      <rect
         width="803"
         height="96"
         fill="white"
         id="rect580" />
    </clipPath>
    <clipPath
       id="clip1_76_3530">
      <rect
         width="803"
         height="96"
         fill="white"
         transform="translate(0 101)"
         id="rect583" />
    </clipPath>
    <clipPath
       id="clip2_76_3530">
      <rect
         width="803"
         height="96"
         fill="white"
         transform="translate(0 202)"
         id="rect586" />
    </clipPath>
    <clipPath
       id="clip3_76_3530">
      <rect
         width="803"
         height="96"
         fill="white"
         transform="translate(0 303)"
         id="rect589" />
    </clipPath>
    <clipPath
       id="clip4_76_3530">
      <rect
         width="803"
         height="96"
         fill="white"
         transform="translate(0 404)"
         id="rect592" />
    </clipPath>
    <clipPath
       id="clip5_76_3530">
      <rect
         width="803"
         height="96"
         fill="white"
         transform="translate(0 505)"
         id="rect595" />
    </clipPath>
    <clipPath
       id="clip6_76_3530">
      <rect
         width="803"
         height="96"
         fill="white"
         transform="translate(0 606)"
         id="rect598" />
    </clipPath>
    <clipPath
       id="clip7_76_3530">
      <rect
         width="803"
         height="96"
         fill="white"
         transform="translate(0 707)"
         id="rect601" />
    </clipPath>
    <clipPath
       id="clip8_76_3530">
      <rect
         width="803"
         height="96"
         fill="white"
         transform="translate(0 806)"
         id="rect604" />
    </clipPath>
    <clipPath
       id="clip9_76_3530">
      <rect
         width="803"
         height="96"
         fill="white"
         transform="translate(0 907)"
         id="rect607" />
    </clipPath>
    <clipPath
       id="clip10_76_3530">
      <rect
         width="803"
         height="96"
         fill="white"
         transform="translate(0 1008)"
         id="rect610" />
    </clipPath>
    <clipPath
       id="clip11_76_3530">
      <rect
         width="803"
         height="96"
         fill="white"
         transform="translate(0 1109)"
         id="rect613" />
    </clipPath>
    <clipPath
       id="clip12_76_3530">
      <rect
         width="803"
         height="96"
         fill="white"
         transform="translate(0 1210)"
         id="rect616" />
    </clipPath>
    <clipPath
       id="clip13_76_3530">
      <rect
         width="803"
         height="96"
         fill="white"
         transform="translate(0 1311)"
         id="rect619" />
    </clipPath>
    <clipPath
       id="clip14_76_3530">
      <rect
         width="803"
         height="96"
         fill="white"
         transform="translate(0 1412)"
         id="rect622" />
    </clipPath>
    <clipPath
       id="clip15_76_3530">
      <rect
         width="803"
         height="96"
         fill="white"
         transform="translate(0 1513)"
         id="rect625" />
    </clipPath>
    <clipPath
       id="clip16_76_3530">
      <rect
         width="803"
         height="96"
         fill="white"
         transform="translate(806)"
         id="rect628" />
    </clipPath>
    <clipPath
       id="clip17_76_3530">
      <rect
         width="803"
         height="96"
         fill="white"
         transform="translate(806 101)"
         id="rect631" />
    </clipPath>
    <clipPath
       id="clip18_76_3530">
      <rect
         width="803"
         height="96"
         fill="white"
         transform="translate(806 202)"
         id="rect634" />
    </clipPath>
    <clipPath
       id="clip19_76_3530">
      <rect
         width="803"
         height="96"
         fill="white"
         transform="translate(806 303)"
         id="rect637" />
    </clipPath>
    <clipPath
       id="clip20_76_3530">
      <rect
         width="803"
         height="96"
         fill="white"
         transform="translate(806 404)"
         id="rect640" />
    </clipPath>
    <clipPath
       id="clip21_76_3530">
      <rect
         width="803"
         height="96"
         fill="white"
         transform="translate(806 505)"
         id="rect643" />
    </clipPath>
    <clipPath
       id="clip22_76_3530">
      <rect
         width="803"
         height="96"
         fill="white"
         transform="translate(806 606)"
         id="rect646" />
    </clipPath>
    <clipPath
       id="clip23_76_3530">
      <rect
         width="803"
         height="96"
         fill="white"
         transform="translate(806 707)"
         id="rect649" />
    </clipPath>
    <clipPath
       id="clip24_76_3530">
      <rect
         width="803"
         height="96"
         fill="white"
         transform="translate(806 806)"
         id="rect652" />
    </clipPath>
    <clipPath
       id="clip25_76_3530">
      <rect
         width="803"
         height="96"
         fill="white"
         transform="translate(806 907)"
         id="rect655" />
    </clipPath>
    <clipPath
       id="clip26_76_3530">
      <rect
         width="803"
         height="96"
         fill="white"
         transform="translate(806 1008)"
         id="rect658" />
    </clipPath>
    <clipPath
       id="clip27_76_3530">
      <rect
         width="803"
         height="96"
         fill="white"
         transform="translate(806 1109)"
         id="rect661" />
    </clipPath>
    <clipPath
       id="clip28_76_3530">
      <rect
         width="803"
         height="96"
         fill="white"
         transform="translate(806 1210)"
         id="rect664" />
    </clipPath>
    <clipPath
       id="clip29_76_3530">
      <rect
         width="803"
         height="96"
         fill="white"
         transform="translate(806 1311)"
         id="rect667" />
    </clipPath>
    <clipPath
       id="clip30_76_3530">
      <rect
         width="803"
         height="96"
         fill="white"
         transform="translate(806 1412)"
         id="rect670" />
    </clipPath>
    <clipPath
       id="clip31_76_3530">
      <rect
         width="803"
         height="96"
         fill="white"
         transform="translate(806 1513)"
         id="rect673" />
    </clipPath>
  </defs>
</svg>
