<?xml version="1.0" encoding="UTF-8" standalone="no"?>
<!-- Created with Inkscape (http://www.inkscape.org/) -->

<svg
   width="145.77963mm"
   height="31.628511mm"
   viewBox="0 0 145.77963 31.628511"
   version="1.1"
   id="svg815"
   inkscape:version="1.2.2 (b0a84865, 2022-12-01)"
   sodipodi:docname="logo.svg"
   xmlns:inkscape="http://www.inkscape.org/namespaces/inkscape"
   xmlns:sodipodi="http://sodipodi.sourceforge.net/DTD/sodipodi-0.dtd"
   xmlns="http://www.w3.org/2000/svg"
   xmlns:svg="http://www.w3.org/2000/svg">
  <sodipodi:namedview
     id="namedview817"
     pagecolor="#ffffff"
     bordercolor="#666666"
     borderopacity="1.0"
     inkscape:showpageshadow="2"
     inkscape:pageopacity="0.0"
     inkscape:pagecheckerboard="0"
     inkscape:deskcolor="#d1d1d1"
     inkscape:document-units="mm"
     showgrid="false"
     inkscape:zoom="0.78127806"
     inkscape:cx="298.22929"
     inkscape:cy="-33.918782"
     inkscape:window-width="1457"
     inkscape:window-height="945"
     inkscape:window-x="0"
     inkscape:window-y="25"
     inkscape:window-maximized="0"
     inkscape:current-layer="layer1" />
  <defs
     id="defs812">
    <clipPath
       clipPathUnits="userSpaceOnUse"
       id="clipPath222">
      <path
         d="M 0,595.276 H 841.89 V 0 H 0 Z"
         id="path220" />
    </clipPath>
  </defs>
  <g
     inkscape:label="Layer 1"
     inkscape:groupmode="layer"
     id="layer1"
     transform="translate(-27.013264,-152.15838)">
    <g
       id="g216"
       transform="matrix(0.35277777,0,0,-0.35277777,-50.469434,344.8355)">
      <g
         id="g218"
         clip-path="url(#clipPath222)">
        <g
           id="g224"
           transform="translate(289.248,490.9182)">
          <path
             d="m 0,0 v -30.635 c -3.991,-1.733 -8.206,-2.755 -12.587,-3.329 -3.631,-0.477 -9.588,-0.565 -12.285,-0.263 -24.56,2.755 -44.74,20.034 -44.74,44.74 0,24.716 20.024,44.809 44.74,44.74 6.639,-0.019 11.36,-0.797 14.719,-1.83 0.496,-0.126 1.645,-0.554 1.733,-0.593 4.293,-1.84 7.301,-6.094 7.301,-11.059 0,-4.341 -2.298,-8.138 -5.744,-10.26 -0.019,-0.01 -0.039,-0.03 -0.058,-0.039 -0.263,-0.146 -0.536,-0.292 -0.798,-0.438 -0.127,-0.068 -0.254,-0.127 -0.38,-0.185 -4.021,-2.015 -8.07,-2.628 -12.82,-4.293 -9.959,-3.485 -10.611,-8.693 -10.582,-10.192 0.048,-2.56 1.577,-4.751 3.806,-5.676 0.224,-0.058 0.448,-0.126 0.672,-0.224 1.811,-0.739 3.183,-2.317 3.631,-4.254 0.117,-0.457 0.175,-0.924 0.175,-1.411 0,-3.378 -2.745,-6.123 -6.133,-6.123 -0.973,0 -1.898,0.224 -2.716,0.642 -0.087,0.03 -0.156,0.069 -0.233,0.117 -5.121,2.482 -5.802,8.528 -5.9,11.439 -0.029,0.915 0.117,2.043 0.361,3.183 0.067,0.389 0.146,0.778 0.243,1.187 0.565,2.376 2.122,6.123 5.189,8.508 4.701,3.651 9.598,5.461 13.862,7.252 3.621,1.51 6.785,3.009 8.994,5.598 0.546,0.535 0.993,1.168 1.315,1.869 0.38,0.798 0.584,1.694 0.584,2.638 0,2.945 -2.021,5.394 -4.75,6.104 -0.203,0.052 -0.819,0.136 -1.218,0.175 -1.907,0.234 -3.845,0.263 -5.071,0.263 -1.743,0 -3.466,-0.117 -5.15,-0.351 -18.846,-2.511 -33.39,-18.641 -33.39,-38.179 0,-21.28 17.26,-38.539 38.54,-38.539 2.073,0 4.117,0.165 6.103,0.496 V -3.845 L -16.267,0 Z"
             style="fill:#1d1d1b;fill-opacity:1;fill-rule:nonzero;stroke:none"
             id="path226" />
        </g>
        <g
           id="g228"
           transform="translate(327.395,497.2507)">
          <path
             d="m 0,0 c -0.063,-1.888 -0.499,-5.804 -3.821,-7.415 -0.05,-0.031 -0.101,-0.056 -0.151,-0.075 -0.531,-0.272 -1.131,-0.417 -1.762,-0.417 -2.198,0 -3.979,1.781 -3.979,3.972 0,0.316 0.038,0.619 0.113,0.916 0.291,1.257 1.175,2.299 2.356,2.76 0.044,0.019 0.642,0.272 0.91,0.461 1.07,0.756 1.8,1.977 1.8,3.392 0,1.547 -0.865,2.898 -2.135,3.587 -0.44,0.231 -1.308,0.492 -1.945,0.492 h -0.215 c -1.32,0 -2.602,-0.297 -3.84,-0.884 -1.244,-0.594 -2.45,-1.25 -3.625,-1.964 -1.168,-0.72 -2.292,-1.32 -3.36,-1.794 -0.802,-0.297 -1.528,-0.448 -2.191,-0.448 -0.884,0 -1.522,0.252 -1.907,0.751 V -26.38 l 2.387,-2.495 h -13.048 l 2.393,2.495 V 7.604 l -2.393,2.495 h 13.048 l -2.387,-2.495 c 0,-1.112 0.164,-1.901 0.492,-2.356 0.328,-0.455 0.777,-0.682 1.351,-0.682 0.638,0 1.409,0.221 2.318,0.669 0.916,0.443 1.895,0.973 2.944,1.586 1.269,0.751 2.583,1.44 3.928,2.065 1.339,0.625 2.602,0.941 3.789,0.941 1.73,0 3.152,-0.322 4.269,-0.973 1.118,-0.65 2.002,-1.478 2.665,-2.475 C -1.339,5.375 -0.846,4.333 -0.53,3.252 -0.208,2.172 0.032,0.922 0,0"
             style="fill:#1d1d1b;fill-opacity:1;fill-rule:nonzero;stroke:none"
             id="path230" />
        </g>
        <g
           id="g232"
           transform="translate(343.7207,466.8977)">
          <path
             d="m 0,0 c -0.892,-0.378 -1.82,-0.565 -2.795,-0.565 -0.99,0 -1.944,0.197 -2.872,0.591 C -6.59,0.42 -7.348,1 -7.938,1.778 -8.53,2.556 -8.82,3.542 -8.82,4.739 c 0,1.12 0.296,2.1 0.897,2.946 0.596,0.839 1.348,1.602 2.256,2.281 0.907,0.684 1.856,1.322 2.846,1.924 0.877,0.539 1.691,1.083 2.442,1.622 0.747,0.545 1.354,1.126 1.82,1.742 0.467,0.618 0.7,1.297 0.7,2.049 V 1.654 C 1.602,0.923 0.887,0.374 0,0 m 0.181,-2.639 h 10.713 l -1.965,2.048 v 22.856 c 0,1.4 -0.524,2.654 -1.572,3.759 C 6.31,27.124 4.9,28 3.126,28.643 c -1.778,0.648 -3.759,0.938 -5.921,0.969 -0.845,0.016 -3.064,0 -4.428,-0.223 -1.4,-0.228 -2.447,-0.539 -3.365,-1.073 -0.918,-0.534 -1.644,-1.213 -2.188,-2.033 -0.539,-0.824 -0.944,-1.679 -1.203,-2.566 -0.265,-0.887 -0.462,-1.914 -0.436,-2.671 0.052,-1.55 0.41,-4.765 3.137,-6.087 0.042,-0.026 0.083,-0.046 0.125,-0.062 0.435,-0.223 0.928,-0.342 1.446,-0.342 1.805,0 3.267,1.462 3.267,3.261 0,0.259 -0.031,0.508 -0.093,0.752 -0.146,0.633 -0.477,1.193 -0.934,1.623 -0.269,0.254 -0.565,0.456 -0.923,0.606 -0.117,0.05 -0.503,0.244 -0.518,0.255 -0.175,0.099 -0.377,0.25 -0.42,0.29 -0.752,0.622 -1.229,1.566 -1.229,2.613 0,1.286 0.716,2.401 1.773,2.971 0.073,0.042 0.145,0.078 0.223,0.109 0.062,0.031 0.124,0.057 0.192,0.083 0.062,0.026 0.124,0.047 0.192,0.068 1.462,0.497 5.455,1.026 8.073,-0.701 C 0,26.423 0.104,26.351 0.207,26.268 0.586,25.978 0.933,25.635 1.234,25.236 1.841,24.432 2.141,23.369 2.141,22.042 v -1.514 c 0,-2.375 -0.907,-4.179 -2.717,-5.413 -0.845,-0.56 -1.783,-1.032 -2.82,-1.406 -1.038,-0.373 -2.116,-0.72 -3.241,-1.037 -1.457,-0.409 -2.847,-0.886 -4.174,-1.431 -1.328,-0.539 -2.453,-1.285 -3.365,-2.24 -1.032,-1.084 -1.613,-2.639 -1.742,-4.656 0,-1.457 0.43,-2.769 1.291,-3.925 0.86,-1.162 2.001,-2.074 3.422,-2.738 1.42,-0.663 2.96,-0.995 4.625,-0.995 1.462,0 2.94,0.3 4.449,0.896 1.504,0.602 2.929,1.556 4.272,2.863 v -1.037 z"
             style="fill:#1d1d1b;fill-opacity:1;fill-rule:nonzero;stroke:none"
             id="path234" />
        </g>
        <g
           id="g236"
           transform="translate(376.7622,472.7336)">
          <path
             d="M 0,0 C -0.129,-0.752 -0.618,-2.262 -1.591,-3.342 -2.747,-4.604 -4.34,-5.957 -8.684,-5.843 h -0.007 c -2.259,0.183 -4.06,0.654 -5.421,1.406 -1.825,1.004 -3.072,2.296 -3.763,3.87 -0.677,1.574 -1.019,3.224 -1.019,4.957 v 45.478 l 6.424,8.149 h 2.942 V 1.722 c 0,-0.722 0.107,-1.308 0.327,-1.749 0.221,-0.433 0.487,-0.783 0.813,-1.041 0.327,-0.259 0.646,-0.444 0.966,-0.54 0.691,-0.208 2.395,-0.562 4.41,0.346 2.814,1.267 2.744,5.538 2.888,8.07 C 0.028,9.438 0.35,1.969 0,0"
             style="fill:#1d1d1b;fill-opacity:1;fill-rule:nonzero;stroke:none"
             id="path238" />
        </g>
        <g
           id="g240"
           transform="translate(391.9375,465.8908)">
          <path
             d="M 0,0 C -0.129,-0.753 -0.618,-2.262 -1.591,-3.342 -2.746,-4.604 -4.34,-5.957 -8.684,-5.843 h -0.007 c -2.258,0.182 -4.06,0.654 -5.421,1.406 -1.825,1.004 -3.071,2.296 -3.763,3.87 -0.677,1.574 -1.019,3.224 -1.019,4.957 v 45.478 l 6.424,8.149 h 2.943 V 1.722 c 0,-0.723 0.106,-1.308 0.326,-1.749 0.221,-0.433 0.487,-0.783 0.814,-1.041 0.327,-0.259 0.645,-0.444 0.966,-0.54 0.69,-0.208 2.395,-0.562 4.41,0.346 2.813,1.267 2.743,5.538 2.887,8.07 C 0.029,9.438 0.35,1.969 0,0"
             style="fill:#1d1d1b;fill-opacity:1;fill-rule:nonzero;stroke:none"
             id="path242" />
        </g>
        <g
           id="g244"
           transform="translate(590.8721,510.3557)">
          <path
             d="m 0,0 c -0.215,-1.366 -0.528,-3.08 -0.95,-3.868 -0.498,-0.929 -1.264,-1.853 -2.276,-2.384 -0.244,-0.131 -1.045,-0.405 -1.555,-0.405 -0.846,0 -1.616,0.329 -2.189,0.878 -0.634,0.594 -1.032,1.44 -1.032,2.388 0,0.259 0.031,0.505 0.093,0.751 0.031,0.139 0.075,0.278 0.118,0.411 0.062,0.145 0.125,0.29 0.205,0.429 0.324,0.594 0.84,1.08 1.462,1.364 0.1,0.051 0.305,0.102 0.473,0.177 0.615,0.291 1.14,0.737 1.466,1.32 0.753,1.344 1.007,3.993 0.958,5.495 -0.385,11.888 -9.487,29.087 -52.435,25.318 -15.107,-1.325 -51.048,-11.449 -57.949,-13.571 -28.006,-8.615 -74.307,-24.116 -115.648,-23.072 -58.275,1.472 -41.498,21.78 -41.498,21.78 l 8.94,-0.093 c 0,0 -27.482,-17.861 32.117,-19.48 47.526,-1.291 93.861,22.3 133.182,31.566 C -9.403,49.533 2.798,17.747 0,0"
             style="fill:#1d1d1b;fill-opacity:1;fill-rule:nonzero;stroke:none"
             id="path246" />
        </g>
        <g
           id="g248"
           transform="translate(408.9331,463.947)">
          <path
             d="m 0,0 c -1.181,-0.501 -2.41,-0.748 -3.701,-0.748 -1.311,0 -2.575,0.261 -3.804,0.783 -1.222,0.521 -2.224,1.29 -3.007,2.32 -0.783,1.03 -1.168,2.335 -1.168,3.921 0,1.483 0.392,2.781 1.188,3.9 0.79,1.112 1.785,2.121 2.987,3.021 1.202,0.907 2.458,1.751 3.77,2.547 1.16,0.714 2.238,1.435 3.234,2.15 0.988,0.72 1.792,1.489 2.41,2.307 0.618,0.817 0.926,1.716 0.926,2.712 V 2.19 C 2.122,1.222 1.174,0.495 0,0 m 0.24,-3.495 h 14.186 l -2.602,2.712 v 30.266 c 0,1.854 -0.694,3.516 -2.081,4.978 -1.387,1.456 -3.255,2.617 -5.603,3.468 -2.355,0.859 -4.978,1.243 -7.841,1.284 -1.119,0.021 -4.058,0 -5.863,-0.295 -1.854,-0.302 -3.242,-0.714 -4.457,-1.421 -1.215,-0.708 -2.176,-1.607 -2.897,-2.692 -0.714,-1.092 -1.25,-2.225 -1.593,-3.399 -0.35,-1.174 -0.612,-2.533 -0.577,-3.536 0.068,-2.053 0.542,-6.31 4.154,-8.061 0.055,-0.034 0.11,-0.061 0.165,-0.082 0.577,-0.295 1.229,-0.454 1.915,-0.454 2.39,0 4.326,1.937 4.326,4.319 0,0.344 -0.041,0.673 -0.123,0.996 -0.193,0.838 -0.632,1.579 -1.236,2.149 -0.358,0.337 -0.749,0.604 -1.222,0.804 -0.156,0.065 -0.666,0.322 -0.687,0.336 -0.231,0.131 -0.499,0.332 -0.557,0.385 -0.995,0.823 -1.626,2.073 -1.626,3.46 0,1.703 0.947,3.179 2.348,3.934 0.096,0.055 0.192,0.103 0.295,0.145 0.082,0.041 0.165,0.075 0.254,0.11 0.082,0.034 0.165,0.061 0.254,0.089 1.936,0.659 7.223,1.359 10.691,-0.927 C 0,34.99 0.137,34.894 0.274,34.784 0.776,34.4 1.236,33.947 1.634,33.418 2.438,32.354 2.835,30.946 2.835,29.188 v -2.004 c 0,-3.145 -1.201,-5.535 -3.597,-7.169 -1.119,-0.742 -2.362,-1.366 -3.736,-1.861 -1.373,-0.494 -2.801,-0.954 -4.291,-1.373 -1.929,-0.542 -3.769,-1.174 -5.527,-1.895 -1.758,-0.714 -3.248,-1.703 -4.456,-2.966 -1.367,-1.435 -2.136,-3.495 -2.307,-6.166 0,-1.929 0.57,-3.667 1.709,-5.198 1.14,-1.538 2.651,-2.746 4.532,-3.625 1.881,-0.879 3.921,-1.318 6.125,-1.318 1.936,0 3.893,0.398 5.891,1.187 1.991,0.797 3.879,2.06 5.657,3.791 v -1.374 z"
             style="fill:#1d1d1b;fill-opacity:1;fill-rule:nonzero;stroke:none"
             id="path250" />
        </g>
        <g
           id="g252"
           transform="translate(466.3447,495.8615)">
          <path
             d="m 0,0 c -3.191,-21.472 -15.111,-23.827 -19.686,-23.778 -3.846,0.041 -7.351,0.89 -10.522,2.684 -3.164,1.781 -5.684,4.187 -7.565,7.206 -1.876,3.013 -2.818,6.354 -2.818,10.023 0,3.669 0.942,7.01 2.818,10.023 1.881,3.019 4.401,5.425 7.565,7.225 3.171,1.8 6.676,2.671 10.522,2.703 2.438,0.018 4.99,-0.581 6.726,-1.56 2.084,-1.181 2.969,-2.242 2.981,-2.249 1.629,-1.793 2.615,-4.161 2.615,-6.77 0,-1.686 -0.461,-3.429 -1.137,-4.686 -0.55,-1.017 -0.834,-1.333 -1.074,-1.592 -0.48,-0.523 -1.067,-0.985 -1.793,-1.338 -0.051,-0.032 -0.102,-0.057 -0.152,-0.076 -0.531,-0.272 -1.13,-0.417 -1.762,-0.417 -2.197,0 -3.979,1.781 -3.979,3.973 0,0.316 0.038,0.618 0.114,0.915 0.082,0.366 0.214,0.708 0.398,1.024 0.404,0.726 1.035,1.319 1.806,1.667 0.127,0.057 0.373,0.12 0.588,0.214 1.439,0.67 2.406,2.059 2.406,3.72 0,0.979 -0.348,1.882 -0.922,2.583 -0.013,0.013 -0.557,0.708 -1.074,1.106 -0.594,0.454 -1.32,0.884 -2.255,1.212 -0.935,0.329 -2.097,0.493 -3.486,0.493 -0.12,0 -0.234,0 -0.347,-0.013 -1.554,-0.063 -3.013,-0.575 -4.377,-1.541 -0.372,-0.272 -0.739,-0.568 -1.099,-0.903 -0.322,-0.303 -0.637,-0.625 -0.941,-0.966 -0.751,-0.853 -1.427,-1.819 -2.028,-2.905 -0.466,-0.834 -0.877,-1.731 -1.25,-2.704 -1.048,-2.747 -1.572,-5.791 -1.572,-9.138 0,-3.347 0.524,-6.391 1.572,-9.139 1.048,-2.741 2.457,-4.926 4.219,-6.555 1.762,-1.629 4.1,-2.368 5.762,-2.337 11.478,0.221 16.924,12.29 19.128,21.063 C -0.531,-0.486 -0.284,-0.196 0,0"
             style="fill:#1d1d1b;fill-opacity:1;fill-rule:nonzero;stroke:none"
             id="path254" />
        </g>
        <g
           id="g256"
           transform="translate(491.9854,470.656)">
          <path
             d="m 0,0 v 17.216 c 0,2.621 -0.372,4.813 -1.111,6.575 -0.74,1.762 -1.705,3.227 -2.906,4.389 -1.193,1.162 -2.494,2.116 -3.909,2.867 -1.415,0.752 -2.804,1.428 -4.168,2.015 -1.932,0.802 -3.568,1.674 -4.901,2.615 -1.332,0.947 -2.046,2.261 -2.135,3.947 V 0 l 2.426,-2.495 h -13.08 L -27.396,0 v 55.337 l -2.388,2.489 h 13.08 l -2.426,-2.489 v -9.6 c 0.069,-2.753 0.701,-4.925 1.895,-6.505 1.194,-1.585 2.754,-2.823 4.661,-3.726 1.914,-0.897 3.966,-1.68 6.151,-2.337 0.588,-0.189 1.175,-0.391 1.756,-0.606 1.213,-0.423 2.406,-0.884 3.574,-1.376 C 0.638,30.46 2.204,29.525 3.6,28.389 5.002,27.246 6.133,25.761 6.985,23.93 7.838,22.092 8.268,19.768 8.268,16.945 V 0 l 2.386,-2.495 H -2.394 Z"
             style="fill:#1d1d1b;fill-opacity:1;fill-rule:nonzero;stroke:none"
             id="path258" />
        </g>
        <g
           id="g260"
           transform="translate(513.1553,488.466)">
          <path
             d="m 0,0 c 0,2.747 0.436,5.248 1.295,7.503 0.858,2.248 2.008,4.048 3.448,5.381 1.44,1.339 3.037,2.008 4.793,2.008 1.668,0 3.069,-0.297 4.206,-0.884 1.144,-0.588 2.009,-1.364 2.609,-2.33 0.6,-0.96 0.897,-2.003 0.897,-3.127 0,-0.934 -0.215,-1.875 -0.644,-2.829 C 16.041,4.636 14.937,3.726 13.281,3 11.627,2.273 9.82,1.598 7.856,0.979 6.17,0.474 4.629,-0.069 3.228,-0.644 1.825,-1.225 0.796,-1.907 0.146,-2.69 0.051,-1.812 0,-0.916 0,0 M 27.372,6.309 C 23.724,-4.843 18.5,-15.217 9.536,-14.917 c -2.089,0.07 -3.953,0.935 -5.576,2.816 -1.63,1.876 -2.779,4.314 -3.455,7.308 0.486,0.966 1.446,1.755 2.88,2.368 1.427,0.606 3.051,1.168 4.863,1.693 2.128,0.581 4.143,1.294 6.044,2.147 1.895,0.852 3.259,2.052 4.08,3.606 0.581,1.25 0.871,2.457 0.871,3.612 0,1.403 -0.385,2.691 -1.149,3.859 -0.771,1.169 -1.875,2.103 -3.328,2.804 -1.447,0.702 -3.19,1.055 -5.23,1.055 -3.157,0 -6.044,-0.739 -8.652,-2.204 C -1.725,12.682 -3.796,10.705 -5.337,8.229 -6.884,5.753 -7.654,3.006 -7.654,0 c 0,-3.013 0.77,-5.76 2.317,-8.248 1.541,-2.482 3.612,-4.459 6.221,-5.93 2.608,-1.466 5.495,-2.135 8.652,-2.198 8.265,-0.166 14.408,7.891 18.404,23.487 C 27.675,6.909 27.475,6.625 27.372,6.309"
             style="fill:#1d1d1b;fill-opacity:1;fill-rule:nonzero;stroke:none"
             id="path262" />
        </g>
        <g
           id="g264"
           transform="translate(578.2686,488.0681)">
          <path
             d="m 0,0 c -2.652,-14.665 -11.7,-23.723 -20.185,-23.911 -4.179,-0.092 -7.995,0.973 -11.437,2.918 -3.441,1.939 -6.183,4.554 -8.23,7.838 -2.039,3.278 -3.062,6.909 -3.062,10.894 0,3.991 1.023,7.623 3.062,10.901 2.047,3.277 4.789,5.899 8.23,7.85 3.442,1.958 7.257,2.905 11.437,2.943 2.653,0.019 5.425,-0.632 7.314,-1.699 2.267,-1.282 3.227,-2.438 3.24,-2.444 1.769,-1.952 2.842,-4.522 2.842,-7.357 0,-1.838 -0.499,-3.733 -1.232,-5.097 -0.6,-1.112 -0.909,-1.453 -1.168,-1.731 -0.524,-0.568 -1.163,-1.073 -1.952,-1.452 -0.056,-0.038 -0.113,-0.064 -0.164,-0.089 -0.581,-0.29 -1.231,-0.448 -1.92,-0.448 -2.387,0 -4.326,1.932 -4.326,4.32 0,0.341 0.044,0.669 0.126,0.991 0.089,0.398 0.235,0.771 0.437,1.112 0.435,0.789 1.124,1.44 1.957,1.813 0.139,0.063 0.411,0.126 0.644,0.233 1.567,0.727 2.615,2.242 2.615,4.048 0,1.061 -0.379,2.047 -1.004,2.805 -0.013,0.019 -0.6,0.77 -1.168,1.206 -0.645,0.486 -1.434,0.96 -2.452,1.314 -1.016,0.359 -2.279,0.536 -3.789,0.536 -0.132,0 -0.252,0 -0.378,-0.013 -1.687,-0.069 -3.272,-0.625 -4.756,-1.673 -0.405,-0.297 -0.802,-0.619 -1.194,-0.985 -0.353,-0.329 -0.694,-0.676 -1.023,-1.049 -0.82,-0.928 -1.554,-1.977 -2.204,-3.157 -0.511,-0.91 -0.96,-1.883 -1.364,-2.944 -1.137,-2.981 -1.706,-6.296 -1.706,-9.934 0,-3.637 0.569,-6.947 1.706,-9.934 1.143,-2.981 2.671,-5.356 4.591,-7.124 1.914,-1.775 4.274,-2.72 6.573,-2.674 11.183,0.221 17.502,14.313 19.201,21.077 C -0.638,-0.524 -0.335,-0.202 0,0"
             style="fill:#1d1d1b;fill-opacity:1;fill-rule:nonzero;stroke:none"
             id="path266" />
        </g>
        <g
           id="g268"
           transform="translate(604.2871,476.1457)">
          <path
             d="m 0,0 c -3.267,-8.773 -7.685,-12.903 -10.898,-14.486 -1.794,-0.883 -3.829,-1.241 -5.249,-1.241 -3.158,0 -6.038,0.732 -8.64,2.204 -2.596,1.465 -4.667,3.436 -6.208,5.918 -1.541,2.469 -2.312,5.216 -2.312,8.229 0,3.012 0.771,5.753 2.312,8.229 1.541,2.476 3.612,4.453 6.208,5.93 2.602,1.478 5.482,2.192 8.64,2.217 2.001,0.019 4.098,-0.474 5.519,-1.275 1.719,-0.973 2.439,-1.845 2.451,-1.851 1.339,-1.472 2.148,-3.417 2.148,-5.558 C -6.029,6.933 -6.408,5.5 -6.965,4.47 -7.413,3.63 -7.646,3.377 -7.843,3.163 -8.24,2.733 -8.72,2.354 -9.32,2.064 -9.358,2.039 -9.402,2.02 -9.44,2 -9.876,1.78 -10.368,1.66 -10.887,1.66 c -1.805,0 -3.271,1.465 -3.271,3.258 0,0.259 0.032,0.512 0.095,0.752 0.07,0.303 0.176,0.581 0.329,0.84 0.328,0.6 0.852,1.086 1.483,1.37 0.102,0.051 0.31,0.095 0.48,0.177 1.181,0.55 1.977,1.693 1.977,3.057 0,0.802 -0.284,1.541 -0.758,2.116 -0.012,0.012 -0.455,0.581 -0.884,0.909 -0.48,0.373 -1.08,0.727 -1.85,0.998 -0.765,0.265 -1.718,0.405 -2.861,0.405 -0.095,0 -0.19,0 -0.285,-0.013 -1.275,-0.051 -2.475,-0.474 -3.593,-1.263 -0.303,-0.222 -0.606,-0.468 -0.903,-0.745 -0.265,-0.247 -0.524,-0.512 -0.77,-0.79 -0.619,-0.701 -1.175,-1.497 -1.668,-2.387 -0.379,-0.682 -0.72,-1.422 -1.023,-2.217 -0.865,-2.255 -1.295,-4.756 -1.295,-7.503 0,-2.748 0.43,-5.249 1.295,-7.503 0.859,-2.255 2.015,-4.048 3.461,-5.381 1.447,-1.339 3.044,-1.988 4.781,-2.008 2.103,-0.024 4.806,0.527 7.841,3.011 3.052,2.496 5.785,6.192 7.897,11.559 C 0.316,2.146 0.796,2.139 0,0"
             style="fill:#1d1d1b;fill-opacity:1;fill-rule:nonzero;stroke:none"
             id="path270" />
        </g>
        <g
           id="g272"
           transform="translate(619.5996,467.6418)">
          <path
             d="m 0,0 c -1.086,-0.461 -2.217,-0.688 -3.403,-0.688 -1.207,0 -2.369,0.24 -3.499,0.72 -1.124,0.48 -2.047,1.187 -2.767,2.134 -0.72,0.948 -1.073,2.147 -1.073,3.606 0,1.365 0.359,2.558 1.093,3.588 0.725,1.023 1.641,1.951 2.747,2.779 1.105,0.833 2.26,1.61 3.466,2.342 1.068,0.657 2.06,1.321 2.975,1.977 0.91,0.664 1.648,1.371 2.217,2.123 0.568,0.751 0.852,1.578 0.852,2.494 V 2.015 C 1.952,1.124 1.08,0.455 0,0 M 0.222,-3.215 H 13.27 l -2.394,2.495 v 27.839 c 0,1.705 -0.638,3.234 -1.914,4.579 -1.275,1.339 -2.993,2.406 -5.153,3.189 -2.166,0.79 -4.58,1.143 -7.212,1.181 -1.031,0.019 -3.734,0 -5.394,-0.272 -1.705,-0.277 -2.981,-0.656 -4.099,-1.307 -1.118,-0.65 -2.002,-1.478 -2.666,-2.475 -0.656,-1.005 -1.149,-2.047 -1.464,-3.127 -0.323,-1.079 -0.563,-2.33 -0.531,-3.252 0.063,-1.888 0.499,-5.804 3.821,-7.415 0.05,-0.031 0.101,-0.056 0.152,-0.075 0.53,-0.272 1.13,-0.417 1.762,-0.417 2.197,0 3.978,1.781 3.978,3.972 0,0.316 -0.038,0.619 -0.113,0.916 -0.177,0.771 -0.581,1.452 -1.137,1.977 -0.329,0.309 -0.688,0.555 -1.124,0.739 -0.143,0.06 -0.613,0.296 -0.632,0.309 -0.213,0.121 -0.459,0.305 -0.511,0.354 -0.916,0.758 -1.497,1.907 -1.497,3.183 0,1.566 0.872,2.924 2.16,3.619 0.089,0.05 0.177,0.095 0.271,0.132 0.076,0.038 0.152,0.07 0.234,0.101 0.076,0.032 0.152,0.057 0.234,0.082 1.78,0.607 6.644,1.251 9.833,-0.852 C 0,32.184 0.127,32.096 0.253,31.995 0.714,31.641 1.137,31.224 1.504,30.738 2.242,29.759 2.608,28.464 2.608,26.848 v -1.845 c 0,-2.892 -1.104,-5.09 -3.309,-6.593 -1.029,-0.682 -2.172,-1.257 -3.436,-1.712 -1.262,-0.454 -2.576,-0.878 -3.947,-1.263 -1.774,-0.498 -3.467,-1.08 -5.084,-1.743 -1.616,-0.657 -2.987,-1.566 -4.099,-2.728 -1.256,-1.32 -1.963,-3.215 -2.122,-5.672 0,-1.774 0.525,-3.372 1.574,-4.78 1.047,-1.415 2.437,-2.527 4.168,-3.335 1.73,-0.808 3.606,-1.213 5.633,-1.213 1.781,0 3.58,0.367 5.418,1.093 1.832,0.733 3.569,1.895 5.204,3.486 V -0.72 Z"
             style="fill:#1d1d1b;fill-opacity:1;fill-rule:nonzero;stroke:none"
             id="path274" />
        </g>
        <g
           id="g276"
           transform="translate(595.2363,525.8674)">
          <path
             d="M 0,0 V -21.327 C 13.48,-21.321 21.574,-10.505 21.526,0 Z"
             style="fill:#a8c6ab;fill-opacity:1;fill-rule:nonzero;stroke:none"
             id="path278" />
        </g>
        <g
           id="g280"
           transform="translate(560.7861,515.0173)">
          <path
             d="M 0,0 H 21.327 C 21.321,13.481 10.505,21.575 0,21.526 Z"
             style="fill:#a8c6ab;fill-opacity:1;fill-rule:nonzero;stroke:none"
             id="path282" />
        </g>
        <g
           id="g284"
           transform="translate(559.1377,536.5436)">
          <path
             d="M 0,0 H -21.327 C -21.32,-13.48 -10.505,-21.574 0,-21.526 Z"
             style="fill:#a8c6ab;fill-opacity:1;fill-rule:nonzero;stroke:none"
             id="path286" />
        </g>
      </g>
    </g>
  </g>
</svg>
