<?xml version="1.0" encoding="UTF-8" standalone="no"?>
<!-- Created with Inkscape (http://www.inkscape.org/) -->

<svg
   width="219.38998mm"
   height="41.182465mm"
   viewBox="0 0 219.38998 41.182465"
   version="1.1"
   id="svg807"
   inkscape:version="1.2.2 (b0a84865, 2022-12-01)"
   sodipodi:docname="logo.svg"
   xmlns:inkscape="http://www.inkscape.org/namespaces/inkscape"
   xmlns:sodipodi="http://sodipodi.sourceforge.net/DTD/sodipodi-0.dtd"
   xmlns="http://www.w3.org/2000/svg"
   xmlns:svg="http://www.w3.org/2000/svg">
  <sodipodi:namedview
     id="namedview809"
     pagecolor="#ffffff"
     bordercolor="#666666"
     borderopacity="1.0"
     inkscape:showpageshadow="2"
     inkscape:pageopacity="0.0"
     inkscape:pagecheckerboard="0"
     inkscape:deskcolor="#d1d1d1"
     inkscape:document-units="mm"
     showgrid="false"
     inkscape:zoom="0.78127806"
     inkscape:cx="435.82435"
     inkscape:cy="146.55474"
     inkscape:window-width="1920"
     inkscape:window-height="1027"
     inkscape:window-x="0"
     inkscape:window-y="25"
     inkscape:window-maximized="1"
     inkscape:current-layer="layer1" />
  <defs
     id="defs804" />
  <g
     inkscape:label="Layer 1"
     inkscape:groupmode="layer"
     id="layer1"
     transform="translate(10.13057,-67.120283)">
    <path
       d="m 41.78576,91.376657 c -0.03316,0.992717 -0.262467,3.050822 -2.008364,3.897489 -0.02681,0.01658 -0.05327,0.02999 -0.07973,0.03986 -0.279047,0.142875 -0.59443,0.219075 -0.926394,0.219075 -1.155347,0 -2.091619,-0.936273 -2.091619,-2.088092 0,-0.165805 0.02011,-0.325261 0.05997,-0.481189 0.1524,-0.661105 0.617361,-1.208616 1.23825,-1.450975 0.02293,-0.0099 0.337255,-0.142875 0.478014,-0.242358 0.562327,-0.397581 0.94615,-1.039283 0.94615,-1.782586 0,-0.813506 -0.454731,-1.524 -1.122186,-1.88595 -0.23107,-0.121708 -0.687212,-0.258939 -1.02235,-0.258939 h -0.112885 c -0.693914,0 -1.368073,0.155928 -2.018595,0.464608 -0.65405,0.312209 -1.287991,0.657578 -1.905705,1.032581 -0.614186,0.37853 -1.205089,0.693914 -1.766006,0.942975 -0.421569,0.155928 -0.803628,0.235655 -1.152172,0.235655 -0.464961,0 -0.8001,-0.132997 -1.002595,-0.395111 v 15.6203 l 1.254831,1.31127 H 23.695668 L 24.953674,105.244 V 87.379332 l -1.258006,-1.311275 h 6.858706 l -1.254831,1.311275 c 0,0.584553 0.08643,0.99942 0.258939,1.238603 0.172861,0.23883 0.408517,0.358422 0.710495,0.358422 0.335492,0 0.74048,-0.116064 1.218494,-0.351719 0.481189,-0.232481 0.995892,-0.511175 1.546931,-0.833614 0.667455,-0.394759 1.357841,-0.756709 2.065161,-1.085497 0.703792,-0.328437 1.367719,-0.494595 1.991783,-0.494595 0.909461,0 1.656645,0.169333 2.244372,0.511175 0.587728,0.341842 1.052336,0.776817 1.400881,1.301397 0.345369,0.528109 0.604308,1.07562 0.770114,1.643239 0.169333,0.567972 0.295628,1.225197 0.279047,1.709914"
       style="fill:#1d1d1b;fill-opacity:1;fill-rule:nonzero;stroke:none;stroke-width:0.352778"
       id="path100" />
    <path
       d="m 202.28465,104.8449 c -0.57115,0.24236 -1.16558,0.36195 -1.78929,0.36195 -0.63429,0 -1.2453,-0.12629 -1.83938,-0.37853 -0.5909,-0.25224 -1.07562,-0.62406 -1.45415,-1.12219 -0.37853,-0.49812 -0.56445,-1.12889 -0.56445,-1.89582 0,-0.71685 0.18909,-1.34444 0.57433,-1.885603 0.3817,-0.537633 0.86289,-1.025525 1.44427,-1.4605 0.58067,-0.438502 1.18851,-0.846666 1.82245,-1.231899 0.56127,-0.34537 1.08232,-0.693914 1.56386,-1.038931 0.47802,-0.348897 0.86642,-0.720372 1.16523,-1.115836 0.2988,-0.394758 0.44838,-0.829733 0.44838,-1.311275 v 10.019594 c -0.34573,0.46814 -0.80363,0.81986 -1.37125,1.05904 m 0.11606,1.68981 h 6.85871 l -1.25801,-1.31128 V 90.589149 c 0,-0.896408 -0.33514,-1.699683 -1.00577,-2.40665 -0.67063,-0.704144 -1.57374,-1.265061 -2.70898,-1.676752 -1.13912,-0.41522 -2.407,-0.600781 -3.7913,-0.620889 -0.54116,-0.0099 -1.9625,0 -2.83527,0.142875 -0.89641,0.14605 -1.5674,0.345369 -2.15477,0.687211 -0.58773,0.341842 -1.05234,0.776816 -1.40088,1.301397 -0.34537,0.527756 -0.60431,1.075619 -0.77047,1.643239 -0.16933,0.567619 -0.29527,1.225197 -0.27869,1.709914 0.0332,0.992716 0.26211,3.050822 2.00836,3.897489 0.0265,0.01658 0.0533,0.02999 0.0797,0.03986 0.27905,0.142875 0.59408,0.219075 0.92639,0.219075 1.155,0 2.09162,-0.936272 2.09162,-2.088091 0,-0.166159 -0.0201,-0.325614 -0.0596,-0.481542 -0.0931,-0.404989 -0.30585,-0.763411 -0.59795,-1.039283 -0.17251,-0.162278 -0.3616,-0.2921 -0.59091,-0.388408 -0.0748,-0.03175 -0.32208,-0.155928 -0.33196,-0.162631 -0.11148,-0.0635 -0.24165,-0.160514 -0.26917,-0.185914 -0.48119,-0.398286 -0.78634,-1.002594 -0.78634,-1.673225 0,-0.823383 0.4579,-1.537053 1.13524,-1.902178 0.0462,-0.02646 0.0928,-0.04974 0.14287,-0.06985 0.0395,-0.01976 0.0794,-0.03634 0.12277,-0.05292 0.0399,-0.01658 0.0794,-0.02999 0.12277,-0.04339 0.93591,-0.318558 3.49285,-0.657225 5.16925,0.448381 0.0663,0.03986 0.13229,0.08608 0.19896,0.139347 0.24236,0.185914 0.46461,0.404989 0.65723,0.660753 0.38876,0.514702 0.58138,1.195211 0.58138,2.045052 v 0.969434 c 0,1.520472 -0.58138,2.675819 -1.7399,3.466041 -0.54116,0.358422 -1.14194,0.6604 -1.80587,0.899584 -0.66428,0.23883 -1.35467,0.461433 -2.07504,0.663927 -0.93275,0.262467 -1.8228,0.56762 -2.67265,0.916517 -0.84984,0.345017 -1.57021,0.82303 -2.15441,1.434042 -0.6611,0.693913 -1.03258,1.689816 -1.11584,2.981326 0,0.93275 0.27588,1.77271 0.82692,2.51318 0.55103,0.74367 1.28164,1.32787 2.1911,1.75297 0.90946,0.42474 1.89547,0.63746 2.96157,0.63746 0.93592,0 1.88242,-0.19262 2.84833,-0.57468 0.96273,-0.38488 1.87571,-0.99589 2.73579,-1.83233 v 0.66393 z"
       style="fill:#1d1d1b;fill-opacity:1;fill-rule:nonzero;stroke:none;stroke-width:0.352778"
       id="path104" />
    <path
       d="m 71.251665,103.84756 c -0.05997,0.34925 -0.286456,1.04987 -0.738364,1.55081 -0.536222,0.58561 -1.275644,1.2132 -3.291064,1.16064 h -0.0039 c -1.047397,-0.085 -1.883481,-0.30339 -2.514953,-0.65299 -0.846667,-0.46532 -1.425575,-1.06539 -1.746603,-1.79529 -0.313619,-0.7306 -0.472722,-1.49613 -0.472722,-2.30011 V 80.707101 l 2.981325,-3.781425 h 1.364897 v 26.122844 c 0,0.33549 0.04939,0.60713 0.151695,0.81174 0.102305,0.20073 0.22613,0.36301 0.377472,0.48295 0.151694,0.1203 0.299508,0.20602 0.448028,0.25083 0.320675,0.0963 1.111602,0.26035 2.046816,-0.16087 1.305631,-0.58808 1.272822,-2.56998 1.33985,-3.74473 0.07091,-1.220617 0.219781,2.24543 0.0575,3.15912"
       style="fill:#1d1d1b;fill-opacity:1;fill-rule:nonzero;stroke:none;stroke-width:0.352778"
       id="path108" />
    <path
       d="m 79.166937,103.84756 c -0.05997,0.34925 -0.286456,1.04987 -0.738364,1.55081 -0.536222,0.58561 -1.275644,1.2132 -3.291416,1.16064 h -0.0035 c -1.04775,-0.085 -1.883481,-0.30339 -2.514953,-0.65299 -0.847019,-0.46532 -1.425575,-1.06539 -1.746603,-1.79529 -0.313972,-0.7306 -0.472722,-1.49613 -0.472722,-2.30011 V 80.707101 l 2.980972,-3.781425 h 1.36525 v 26.122844 c 0,0.33549 0.04939,0.60713 0.151695,0.81174 0.102305,0.20073 0.225777,0.36301 0.377472,0.48295 0.151694,0.1203 0.299508,0.20602 0.448028,0.25083 0.320675,0.0963 1.111602,0.26035 2.046816,-0.16087 1.305631,-0.58808 1.272822,-2.56998 1.33985,-3.74473 0.07056,-1.220617 0.219781,2.24543 0.0575,3.15912"
       style="fill:#1d1d1b;fill-opacity:1;fill-rule:nonzero;stroke:none;stroke-width:0.352778"
       id="path112" />
    <path
       d="m 141.3478,103.16871 c -0.7553,1.83444 -2.30117,3.42512 -5.35305,3.44276 -0.0741,0 -0.18556,0.0109 -0.25294,0.004 h -6.64598 l 1.25589,-1.30881 v -9.052275 c 0,-1.375834 -0.19438,-2.525889 -0.58209,-3.453695 -0.39193,-0.927805 -0.89958,-1.696861 -1.52752,-2.307166 -0.6283,-0.613834 -1.31234,-1.114778 -2.0567,-1.509889 -0.74083,-0.395111 -1.47108,-0.747889 -2.19075,-1.058333 -1.016,-0.419806 -1.87713,-0.878417 -2.57528,-1.375834 -0.70202,-0.493889 -1.07597,-1.185333 -1.12183,-2.074333 v 20.831525 l 1.27318,1.30881 h -6.87565 l 1.25624,-1.30881 V 78.209682 l -1.25624,-1.308806 h 6.87565 l -1.27318,1.308806 v 3.051527 c 0.0353,1.449917 0.36689,2.589389 0.99448,3.421945 0.6283,0.832555 1.44674,1.485194 2.45216,1.957916 1.00506,0.472723 2.08139,0.881945 3.23144,1.227667 0.95921,0.313972 1.89089,0.659695 2.80071,1.044222 0.91016,0.381 1.73214,0.871361 2.46944,1.471084 0.73766,0.599722 1.33033,1.379361 1.778,2.342444 0.44838,0.963083 0.67381,2.187222 0.67381,3.672417 v 8.907636 l 0.0109,0.0106 c 0.85372,0.39158 2.67406,0.86783 4.88245,-0.66675 2.0708,-1.43934 1.4993,-3.95817 1.58397,-4.28625 0.0808,-0.32809 0.55739,1.86972 0.17286,2.80458"
       style="fill:#1d1d1b;fill-opacity:1;fill-rule:nonzero;stroke:none;stroke-width:0.352778"
       id="path116" />
    <path
       d="m 141.98964,97.813474 c -0.06,-0.564444 -0.0917,-1.139472 -0.0917,-1.725083 0,-1.760361 0.27869,-3.361972 0.82938,-4.801306 0.54998,-1.442861 1.28376,-2.592916 2.20839,-3.450166 0.92039,-0.853723 1.94345,-1.284111 3.06916,-1.284111 1.06504,0 1.9611,0.1905 2.69487,0.567972 0.72673,0.377472 1.28411,0.871361 1.66864,1.488722 0.381,0.617361 0.57538,1.284111 0.57538,2.003778 0,0.596194 -0.13793,1.202972 -0.4131,1.813277 -0.35983,0.694973 -1.06856,1.273528 -2.1269,1.739195 -1.06186,0.469194 -2.21897,0.899583 -3.47521,1.294694 -1.0795,0.324556 -2.06693,0.670278 -2.96298,1.040695 -0.89959,0.370416 -1.5561,0.807861 -1.97591,1.312333 m 15.86794,3.115026 c -1.23789,0.13759 -1.82033,0.41628 -2.68111,0.87842 -0.71931,0.38453 -1.79176,1.32292 -2.34244,1.82386 -0.0247,0.0212 -0.0459,0.0423 -0.0706,0.0635 -0.0384,0.0423 -0.0776,0.0776 -0.11641,0.10936 -0.042,0.0423 -0.0811,0.0776 -0.11995,0.11289 -0.0282,0.0247 -0.0423,0.0388 -0.0423,0.0388 -0.52529,0.46919 -1.016,0.82197 -1.47108,1.05833 -0.55739,0.28575 -1.08268,0.46214 -1.57339,0.52917 -0.49036,0.067 -0.97014,0.0988 -1.43546,0.0988 -1.3409,0 -2.53329,-0.60325 -3.57399,-1.80622 -1.04034,-1.20297 -1.778,-2.76225 -2.20839,-4.677833 0.31045,-0.620889 0.92428,-1.125361 1.8415,-1.516944 0.91405,-0.388056 1.95439,-0.751417 3.11503,-1.086556 1.36525,-0.370416 2.65289,-0.829027 3.87033,-1.372305 1.2132,-0.543278 2.08491,-1.312333 2.6102,-2.307167 0.37042,-0.800805 0.55739,-1.573389 0.55739,-2.31775 0,-0.896055 -0.24307,-1.718027 -0.73731,-2.465916 -0.49001,-0.747889 -1.19944,-1.347611 -2.12725,-1.795639 -0.9278,-0.451556 -2.04258,-0.673806 -3.34751,-0.673806 -2.02177,0 -3.87032,0.469195 -5.53861,1.407584 -1.67252,0.941916 -2.99861,2.204861 -3.98639,3.788833 -0.98813,1.5875 -1.48166,3.344333 -1.48166,5.2705 0,1.926166 0.49353,3.686527 1.48166,5.277559 0.98778,1.59455 2.31387,2.86102 3.98639,3.79941 1.66829,0.93839 3.51684,1.40759 5.53861,1.40759 0.89959,0 1.6436,-0.0988 2.23661,-0.29634 0.59232,-0.19402 1.12501,-0.47977 1.60479,-0.85019 0.48013,-0.37042 0.98778,-0.81492 1.52788,-1.32997 l 0.0882,-0.0811 c 0.0282,-0.0282 0.0631,-0.0564 0.1023,-0.0917 0.0564,-0.0494 0.12312,-0.10937 0.1972,-0.17639 0.0388,-0.0353 0.0815,-0.0741 0.127,-0.11642 0.635,-0.57856 1.67923,-1.53106 2.43417,-1.96144 0.77999,-0.44098 2.75872,-0.88195 1.53458,-0.74084"
       style="fill:#1d1d1b;fill-opacity:1;fill-rule:nonzero;stroke:none;stroke-width:0.352778"
       id="path120" />
    <path
       d="m 117.37993,101.75139 c -0.45861,0.007 -1.59491,0.12665 -2.73332,0.65758 -0.46249,0.2159 -1.21673,0.8008 -1.5875,1.17157 -0.30269,0.30304 -1.51942,1.46121 -2.00272,1.83515 -0.48684,0.37783 -1.02659,0.66358 -1.62243,0.86431 -0.60325,0.19403 -1.35466,0.29633 -2.26483,0.29633 -2.02177,0 -3.86644,-0.46919 -5.53191,-1.41111 -1.661229,-0.93804 -2.988026,-2.20098 -3.975803,-3.78848 -0.987778,-1.584326 -1.481667,-3.341159 -1.481667,-5.270501 0,-1.926166 0.493889,-3.683 1.481667,-5.267325 0.987777,-1.5875 2.314574,-2.853619 3.975803,-3.799416 1.66547,-0.945445 3.51014,-1.404056 5.53191,-1.421342 1.28376,-0.0071 2.62079,0.306564 3.53448,0.821619 1.09749,0.620889 1.55928,1.178278 1.56669,1.181806 0.85689,0.941917 1.37548,2.187222 1.37548,3.55988 0,0.88512 -0.23989,1.802342 -0.59584,2.462389 -0.28964,0.536223 -0.4378,0.701675 -0.5648,0.835731 -0.254,0.275166 -0.56445,0.518583 -0.94545,0.705555 -0.0247,0.01411 -0.0529,0.02822 -0.0773,0.03916 -0.27869,0.140758 -0.59654,0.218369 -0.9278,0.218369 -1.15394,0 -2.09233,-0.934861 -2.09233,-2.088444 0,-0.165453 0.0215,-0.324556 0.06,-0.479778 0.0423,-0.193675 0.11289,-0.373944 0.20849,-0.539397 0.21485,-0.381 0.54681,-0.691797 0.95215,-0.875242 0.067,-0.03175 0.19791,-0.0635 0.30692,-0.112889 0.75882,-0.352778 1.26647,-1.083028 1.26647,-1.957564 0,-0.51188 -0.18344,-0.98813 -0.48683,-1.355019 -0.007,-0.0071 -0.28893,-0.373592 -0.56445,-0.582083 -0.31009,-0.236361 -0.69109,-0.465667 -1.18533,-0.638528 -0.49036,-0.172861 -1.10067,-0.257528 -1.83056,-0.257528 -0.0639,0 -0.12383,0 -0.1838,0.0071 -0.81457,0.0321 -1.58397,0.299861 -2.29976,0.807861 -0.19791,0.144639 -0.38841,0.299861 -0.57891,0.47625 -0.16898,0.159103 -0.33478,0.328436 -0.49353,0.508 -0.39547,0.448028 -0.75142,0.956027 -1.06575,1.527527 -0.24694,0.437445 -0.46178,0.91052 -0.65581,1.421695 -0.55421,1.443214 -0.82938,3.044825 -0.82938,4.801658 0,1.760008 0.27517,3.361619 0.82938,4.804486 0.54998,1.43933 1.29081,2.58974 2.21509,3.44664 0.92781,0.85725 1.95086,1.28411 3.06247,1.28411 0.47589,0 0.96273,-0.0314 1.45344,-0.0984 0.49001,-0.067 1.016,-0.24342 1.56951,-0.52917 0.51153,-0.26458 1.06221,-0.67416 1.65135,-1.23155 0.049,-0.0494 0.37218,-0.33161 0.42475,-0.3817 0.37994,-0.36478 1.0869,-0.7747 1.38183,-0.94016 1.56068,-0.87489 3.72992,-0.98636 3.72992,-0.98636 0,0 0.46213,0.27022 0,0.27728"
       style="fill:#1d1d1b;fill-opacity:1;fill-rule:nonzero;stroke:none;stroke-width:0.352778"
       id="path124" />
    <path
       d="m 176.36928,101.75139 c -0.45896,0.007 -1.59491,0.12665 -2.73332,0.65758 -0.46249,0.2159 -1.21673,0.8008 -1.5875,1.17157 -0.30304,0.30304 -1.51942,1.46121 -2.00272,1.83515 -0.48683,0.37783 -1.02658,0.66358 -1.62278,0.86431 -0.60325,0.19403 -1.35467,0.29633 -2.26483,0.29633 -2.02142,0 -3.86645,-0.46919 -5.53156,-1.41111 -1.66158,-0.93804 -2.98803,-2.20098 -3.9758,-3.78848 -0.98778,-1.584326 -1.48167,-3.341159 -1.48167,-5.270501 0,-1.926166 0.49389,-3.683 1.48167,-5.267325 0.98777,-1.5875 2.31422,-2.853619 3.9758,-3.799416 1.66511,-0.945445 3.51014,-1.404056 5.53156,-1.421342 1.28411,-0.0071 2.62114,0.306564 3.53483,0.821619 1.09714,0.620889 1.55928,1.178278 1.56633,1.181806 0.85725,0.941917 1.37584,2.187222 1.37584,3.55988 0,0.88512 -0.23989,1.802342 -0.5962,2.462389 -0.28927,0.536223 -0.43744,0.701675 -0.56444,0.835731 -0.254,0.275166 -0.56445,0.518583 -0.94545,0.705555 -0.0247,0.01411 -0.0529,0.02822 -0.0776,0.03916 -0.27869,0.140758 -0.59619,0.218369 -0.9278,0.218369 -1.15359,0 -2.09197,-0.934861 -2.09197,-2.088444 0,-0.165453 0.0212,-0.324556 0.06,-0.479778 0.0423,-0.193675 0.11289,-0.373944 0.20814,-0.539397 0.21519,-0.381 0.5468,-0.691797 0.9525,-0.875242 0.067,-0.03175 0.19755,-0.0635 0.30691,-0.112889 0.75848,-0.352778 1.26648,-1.083028 1.26648,-1.957564 0,-0.51188 -0.18345,-0.98813 -0.48684,-1.355019 -0.007,-0.0071 -0.28928,-0.373592 -0.56444,-0.582083 -0.31045,-0.236361 -0.69145,-0.465667 -1.18534,-0.638528 -0.49036,-0.172861 -1.10066,-0.257528 -1.83091,-0.257528 -0.0635,0 -0.12347,0 -0.18345,0.0071 -0.81491,0.0321 -1.58397,0.299861 -2.30011,0.807861 -0.19755,0.144639 -0.38805,0.299861 -0.57855,0.47625 -0.16934,0.159103 -0.33514,0.328436 -0.49389,0.508 -0.39511,0.448028 -0.75142,0.956027 -1.06539,1.527527 -0.24695,0.437445 -0.46214,0.91052 -0.65617,1.421695 -0.55386,1.443214 -0.82903,3.044825 -0.82903,4.801658 0,1.760008 0.27517,3.361619 0.82903,4.804486 0.55034,1.43933 1.29117,2.58974 2.21545,3.44664 0.9278,0.85725 1.95086,1.28411 3.06211,1.28411 0.47625,0 0.96308,-0.0314 1.45344,-0.0984 0.49036,-0.067 1.016,-0.24342 1.56986,-0.52917 0.51153,-0.26458 1.06186,-0.67416 1.651,-1.23155 0.0494,-0.0494 0.37254,-0.33161 0.4251,-0.3817 0.37994,-0.36478 1.08691,-0.7747 1.38183,-0.94016 1.56069,-0.87489 3.72992,-0.98636 3.72992,-0.98636 0,0 0.46214,0.27022 0,0.27728"
       style="fill:#1d1d1b;fill-opacity:1;fill-rule:nonzero;stroke:none;stroke-width:0.352778"
       id="path128" />
    <path
       d="m 193.22715,102.27971 c -0.45861,0.007 -0.54681,-0.0776 -1.01953,0.0564 -0.42686,0.12348 -1.34126,0.87348 -1.71203,1.24425 -0.30303,0.30304 -1.51941,1.46156 -2.00272,1.8355 -0.48683,0.37748 -1.02658,0.66323 -1.62278,0.86431 -0.60289,0.19403 -1.35466,0.29633 -2.26448,0.29633 -2.02177,0 -3.86644,-0.46919 -5.5319,-1.41111 -1.66159,-0.93839 -2.98803,-2.20133 -3.97581,-3.78883 -0.98742,-1.583974 -1.48167,-3.340808 -1.48167,-5.270502 0,-1.926167 0.49425,-3.683 1.48167,-5.266972 0.98778,-1.5875 2.31422,-2.853972 3.97581,-3.799417 1.66546,-0.945444 3.51013,-1.404055 5.5319,-1.421694 1.28376,-0.0071 2.62079,0.306917 3.53448,0.821972 1.09714,0.620889 1.55928,1.178278 1.56669,1.181806 0.8569,0.941916 1.37548,2.187222 1.37548,3.559527 0,0.885473 -0.23989,1.802695 -0.59619,2.462389 -0.28928,0.536222 -0.43745,0.702028 -0.56445,0.836084 -0.254,0.275166 -0.56444,0.518583 -0.94544,0.705555 -0.0247,0.01411 -0.0529,0.02822 -0.0776,0.03881 -0.2787,0.141111 -0.5962,0.218722 -0.92746,0.218722 -1.15393,0 -2.09232,-0.934861 -2.09232,-2.088445 0,-0.165805 0.0212,-0.324555 0.06,-0.479777 0.0423,-0.194028 0.11289,-0.373945 0.20814,-0.53975 0.21519,-0.381 0.54681,-0.691445 0.9525,-0.874889 0.067,-0.03175 0.19756,-0.0635 0.30692,-0.112889 0.75847,-0.352778 1.26647,-1.083028 1.26647,-1.957917 0,-0.511527 -0.18345,-0.987777 -0.48683,-1.354666 -0.007,-0.0071 -0.28928,-0.373945 -0.56445,-0.582084 -0.31044,-0.236361 -0.69144,-0.465666 -1.18533,-0.638527 -0.49036,-0.172862 -1.10067,-0.257528 -1.83057,-0.257528 -0.0639,0 -0.12382,0 -0.18379,0.0071 -0.81492,0.03175 -1.58398,0.299861 -2.29976,0.807861 -0.19791,0.144639 -0.38841,0.299862 -0.57891,0.47625 -0.16933,0.15875 -0.33514,0.328084 -0.49389,0.508 -0.39511,0.448028 -0.75106,0.956028 -1.06539,1.527528 -0.24694,0.437445 -0.46214,0.910167 -0.65581,1.421695 -0.55422,1.442861 -0.82938,3.044472 -0.82938,4.801305 0,1.760361 0.27516,3.361972 0.82938,4.804833 0.54998,1.43934 1.29081,2.58939 2.21509,3.44664 0.92781,0.85725 1.95086,1.28411 3.06246,1.28411 0.4759,0 0.96273,-0.0318 1.4531,-0.0988 0.49036,-0.067 1.01635,-0.24341 1.56986,-0.52916 0.51152,-0.26459 1.06186,-0.67381 1.65135,-1.2312 0.049,-0.0494 0.37218,-0.33196 0.42474,-0.38206 0.37995,-0.36441 0.9451,-0.7754 1.24002,-0.94085 1.56069,-0.87489 2.47297,-0.30692 2.47297,-0.30692 0,0 0.27199,0.11994 -0.1905,0.127"
       style="fill:#1d1d1b;fill-opacity:1;fill-rule:nonzero;stroke:none;stroke-width:0.352778"
       id="path132" />
    <path
       d="m 21.845207,92.500607 v 14.071953 c -1.833387,0.79587 -3.769431,1.26541 -5.781675,1.52894 -1.667934,0.21907 -4.404431,0.25929 -5.643034,0.12065 -11.28148026,-1.26506 -20.551068,-9.20221 -20.551068,-20.550718 0,-11.353094 9.19797474,-20.582466 20.551068,-20.551069 3.049764,0.0092 5.218289,0.366536 6.760986,0.84067 0.227895,0.05821 0.75565,0.255058 0.795867,0.272697 1.972028,0.845255 3.353506,2.799291 3.353506,5.079647 0,1.994253 -1.055159,3.738386 -2.638073,4.713111 -0.0088,0.0042 -0.01764,0.0134 -0.02681,0.01764 -0.12065,0.06703 -0.245886,0.134055 -0.366536,0.201436 -0.05821,0.03104 -0.116416,0.05786 -0.174272,0.08502 -1.846792,0.925336 -3.706989,1.207206 -5.889272,1.971675 -4.5741163,1.600906 -4.8739783,3.993092 -4.8605723,4.681714 0.02258,1.175808 0.724606,2.181931 1.748367,2.607028 0.103011,0.02681 0.205669,0.05821 0.30868,0.102658 0.8314973,0.339725 1.4622643,1.064331 1.6679333,1.954036 0.05362,0.210256 0.08043,0.424745 0.08043,0.648406 0,1.551516 -1.2608273,2.812697 -2.8169303,2.812697 -0.447322,0 -0.872066,-0.103011 -1.247775,-0.295275 -0.04022,-0.01341 -0.07161,-0.0314 -0.107244,-0.05362 -2.351969,-1.140178 -2.664883,-3.916892 -2.709686,-5.25392 -0.01341,-0.420511 0.05362,-0.939094 0.165453,-1.462264 0.0314,-0.178858 0.06703,-0.357716 0.11183,-0.545394 0.259292,-1.091142 0.974725,-2.812697 2.383367,-3.908072 2.159705,-1.677106 4.4086633,-2.508603 6.3672853,-3.331281 1.663348,-0.693208 3.116439,-1.38183 4.131734,-2.571397 0.250119,-0.245533 0.456141,-0.536575 0.603602,-0.858308 0.174273,-0.366536 0.268464,-0.778228 0.268464,-1.211792 0,-1.352902 -0.928511,-2.477558 -2.18193,-2.803525 -0.09313,-0.02434 -0.376061,-0.06279 -0.559153,-0.08079 -0.876653,-0.107244 -1.766358,-0.12065 -2.329744,-0.12065 -0.800453,0 -1.591734,0.05362 -2.365375,0.16122 -8.6568143,1.153583 -15.3373663,8.562975 -15.3373663,17.537288 0,9.774414 7.927975,17.702392 17.7027413,17.702392 0.9525,0 1.891241,-0.0762 2.803524,-0.2279 V 94.266613 l -1.690158,-1.766006 z"
       style="fill:#1d1d1b;fill-opacity:1;fill-rule:nonzero;stroke:none;stroke-width:0.352778"
       id="path136" />
    <path
       d="m 54.236311,103.86721 c -0.345722,0.46919 -0.804333,0.82197 -1.372306,1.05833 -0.5715,0.24342 -1.164166,0.36336 -1.788583,0.36336 -0.635,0 -1.245305,-0.127 -1.8415,-0.37747 -0.589139,-0.254 -1.075972,-0.62441 -1.453444,-1.12183 -0.377472,-0.49742 -0.564445,-1.12889 -0.564445,-1.89795 0,-0.71613 0.1905,-1.34408 0.575028,-1.88383 0.381,-0.53975 0.864306,-1.026583 1.442861,-1.4605 0.582084,-0.440972 1.188861,-0.846666 1.823861,-1.231194 0.560917,-0.345722 1.083028,-0.694972 1.562806,-1.040695 0.479778,-0.34925 0.867833,-0.719666 1.167694,-1.114777 0.296334,-0.395111 0.448028,-0.829028 0.448028,-1.312334 z m 10.759722,-3.50308 c -0.08114,0.32808 0.490361,2.84691 -1.580444,4.28625 -2.120195,1.47461 -3.887611,1.09361 -4.780139,0.71261 h -0.0035 l -0.05292,-0.0564 V 90.669793 c 0,-0.896056 -0.335139,-1.696861 -1.005416,-2.405945 -0.670278,-0.702028 -1.573389,-1.262944 -2.709334,-1.675694 -1.135944,-0.416278 -2.405944,-0.599722 -3.788833,-0.620889 -0.543278,-0.01058 -1.961444,0 -2.836333,0.141111 -0.896056,0.148167 -1.566333,0.345722 -2.155472,0.687917 -0.585611,0.342194 -1.051278,0.776111 -1.400528,1.30175 -0.345722,0.529166 -0.60325,1.075972 -0.769056,1.643944 -0.169333,0.567972 -0.296333,1.224139 -0.278694,1.710972 0.03175,0.991306 0.261056,3.048 2.007306,3.894667 0.02822,0.01764 0.05292,0.03175 0.08114,0.04233 0.278695,0.141111 0.592667,0.218722 0.924278,0.218722 1.157111,0 2.091972,-0.938388 2.091972,-2.088444 0,-0.165806 -0.02117,-0.324556 -0.05997,-0.483306 -0.09172,-0.402166 -0.303389,-0.762 -0.596194,-1.037166 -0.17289,-0.162275 -0.36339,-0.292803 -0.592696,-0.388053 -0.07408,-0.03175 -0.321028,-0.155222 -0.331611,-0.162278 -0.109361,-0.0635 -0.239889,-0.162277 -0.268111,-0.186972 -0.483306,-0.398639 -0.786695,-1.001889 -0.786695,-1.672166 0,-0.8255 0.458612,-1.538111 1.135945,-1.905 0.04586,-0.02469 0.09172,-0.04939 0.141111,-0.06703 0.04233,-0.02117 0.08114,-0.03881 0.123472,-0.05292 0.03881,-0.01764 0.08114,-0.03175 0.123472,-0.04586 0.934861,-0.3175 3.4925,-0.656167 5.168195,0.448028 0.06703,0.04233 0.134055,0.08819 0.201083,0.141111 0.239889,0.186972 0.462139,0.405694 0.656167,0.659694 0.388055,0.515056 0.582083,1.195917 0.582083,2.046112 v 0.970138 c 0,1.520473 -0.582083,2.674056 -1.742722,3.464278 -0.53975,0.359833 -1.139472,0.663222 -1.802695,0.899583 -0.66675,0.239889 -1.354666,0.462139 -2.077861,0.663223 -0.931333,0.264583 -1.820333,0.567972 -2.670527,0.917222 -0.850195,0.345722 -1.569861,0.8255 -2.155473,1.435805 -0.659694,0.691445 -1.033638,1.689813 -1.114777,2.980973 0,0.93134 0.275166,1.77095 0.8255,2.51178 0.550333,0.74436 1.280583,1.32997 2.19075,1.75331 0.910166,0.42686 1.897944,0.63853 2.963333,0.63853 0.934861,0 1.880305,-0.19403 2.846917,-0.57503 0.963083,-0.38453 1.876777,-0.99484 2.737555,-1.83092 v 0.66322 l -1.255889,1.30881 h 6.586361 c 0.09137,10e-4 0.159808,-0.001 0.233892,-0.001 3.05188,-0.0176 4.616802,-1.61114 5.371747,-3.44558 0.384528,-0.93486 -0.09172,-3.13267 -0.176389,-2.80459"
       style="fill:#1d1d1b;fill-opacity:1;fill-rule:nonzero;stroke:none;stroke-width:0.352778"
       id="path140" />
    <path
       d="m 89.274338,103.86721 c -0.345722,0.46919 -0.804333,0.82197 -1.372306,1.05833 -0.5715,0.24342 -1.164166,0.36336 -1.788583,0.36336 -0.635,0 -1.245305,-0.127 -1.8415,-0.37747 -0.589139,-0.254 -1.075972,-0.62441 -1.453444,-1.12183 -0.377472,-0.49742 -0.564445,-1.12889 -0.564445,-1.89795 0,-0.71613 0.1905,-1.34408 0.575028,-1.88383 0.381,-0.53975 0.864306,-1.026583 1.442861,-1.4605 0.582084,-0.440972 1.188861,-0.846666 1.823861,-1.231194 0.560917,-0.345722 1.083028,-0.694972 1.562806,-1.040695 0.479778,-0.34925 0.867833,-0.719666 1.167694,-1.114777 0.296334,-0.395111 0.448028,-0.829028 0.448028,-1.312334 z m 10.759722,-3.50308 c -0.08114,0.32808 0.49036,2.84691 -1.580444,4.28625 -2.120195,1.47461 -3.887611,1.09361 -4.780139,0.71261 h -0.0035 l -0.05292,-0.0564 V 90.669793 c 0,-0.896056 -0.335139,-1.696861 -1.005416,-2.405945 -0.670278,-0.702028 -1.573389,-1.262944 -2.709334,-1.675694 -1.135944,-0.416278 -2.405944,-0.599722 -3.788833,-0.620889 -0.543278,-0.01058 -1.961444,0 -2.836333,0.141111 -0.896056,0.148167 -1.566333,0.345722 -2.155472,0.687917 -0.585611,0.342194 -1.051278,0.776111 -1.400528,1.30175 -0.345722,0.529166 -0.60325,1.075972 -0.769056,1.643944 -0.169333,0.567972 -0.296333,1.224139 -0.278694,1.710972 0.03175,0.991306 0.261056,3.048 2.007306,3.894667 0.02822,0.01764 0.05292,0.03175 0.08114,0.04233 0.278695,0.141111 0.592667,0.218722 0.924278,0.218722 1.157111,0 2.091972,-0.938388 2.091972,-2.088444 0,-0.165806 -0.02117,-0.324556 -0.05997,-0.483306 -0.09172,-0.402166 -0.303389,-0.762 -0.596194,-1.037166 -0.17289,-0.162275 -0.36339,-0.292803 -0.592696,-0.388053 -0.07408,-0.03175 -0.321028,-0.155222 -0.331611,-0.162278 -0.109361,-0.0635 -0.239889,-0.162277 -0.268111,-0.186972 -0.483306,-0.398639 -0.786695,-1.001889 -0.786695,-1.672166 0,-0.8255 0.458612,-1.538111 1.135945,-1.905 0.04586,-0.02469 0.09172,-0.04939 0.141111,-0.06703 0.04233,-0.02117 0.08114,-0.03881 0.123472,-0.05292 0.03881,-0.01764 0.08114,-0.03175 0.123472,-0.04586 0.934861,-0.3175 3.4925,-0.656167 5.168195,0.448028 0.06703,0.04233 0.134055,0.08819 0.201083,0.141111 0.239889,0.186972 0.462139,0.405694 0.656167,0.659694 0.388055,0.515056 0.582083,1.195917 0.582083,2.046112 v 0.970138 c 0,1.520473 -0.582083,2.674056 -1.742722,3.464278 -0.53975,0.359833 -1.139472,0.663222 -1.802695,0.899583 -0.66675,0.239889 -1.354666,0.462139 -2.077861,0.663223 -0.931333,0.264583 -1.820333,0.567972 -2.670527,0.917222 -0.850195,0.345722 -1.569861,0.8255 -2.155473,1.435805 -0.659694,0.691445 -1.033638,1.689813 -1.114777,2.980973 0,0.93134 0.275166,1.77095 0.8255,2.51178 0.550333,0.74436 1.280583,1.32997 2.19075,1.75331 0.910166,0.42686 1.897944,0.63853 2.963333,0.63853 0.934861,0 1.880305,-0.19403 2.846917,-0.57503 0.963083,-0.38453 1.876777,-0.99484 2.737555,-1.83092 v 0.66322 l -1.255889,1.30881 h 6.586361 c 0.09137,10e-4 0.159808,-0.001 0.234245,-0.001 3.051527,-0.0176 4.616449,-1.61114 5.371395,-3.44558 0.38453,-0.93486 -0.0917,-3.13267 -0.17639,-2.80459"
       style="fill:#1d1d1b;fill-opacity:1;fill-rule:nonzero;stroke:none;stroke-width:0.352778"
       id="path144" />
    <path
       d="m 25.949847,74.486221 c -0.05644,0.411692 0.03845,0.865364 0.199672,1.261533 0.164394,0.402167 0.412397,0.764823 0.687916,1.099961 0.570795,0.662164 1.297517,1.180748 2.06622,1.617839 0.772583,0.434622 1.589969,0.798689 2.439106,1.08832 0.841375,0.303741 1.707797,0.551744 2.580922,0.772583 0.875594,0.212725 1.759655,0.397581 2.651477,0.550333 0.442031,0.09031 0.89147,0.153811 1.338792,0.223309 0.447322,0.0695 0.893586,0.141816 1.345495,0.191558 l 1.35008,0.1651 1.356431,0.127706 c 0.902052,0.09807 1.812572,0.147108 2.717447,0.223308 0.908755,0.05151 1.817158,0.102658 2.726972,0.142169 l 2.731911,0.08643 c 0.91193,0.01482 1.823155,0.04198 2.735439,0.04727 l 2.737555,7.06e-4 c 0.913342,-0.01905 1.826331,-0.02716 2.73932,-0.02928 0.913341,-0.0085 1.827036,-0.04198 2.740377,-0.06138 0.913342,-0.02328 1.827742,-0.02293 2.741789,-0.0374 0.912636,-0.03175 1.825272,-0.0695 2.73932,-0.08714 1.829152,-0.02752 3.653013,-0.136172 5.481813,-0.206375 0.915106,-0.02858 1.825978,-0.11183 2.739673,-0.166158 0.912636,-0.06879 1.828799,-0.10407 2.739319,-0.202847 l 2.736144,-0.259292 c 0.911931,-0.09031 1.819981,-0.218369 2.7305,-0.325614 1.822803,-0.2032 3.632553,-0.512233 5.4483,-0.7747 7.252053,-1.140883 14.465653,-2.59715 21.752983,-3.684411 7.28169,-1.125361 14.62264,-1.81363 21.9643,-2.351617 3.66783,-0.307622 7.3533,-0.487891 11.03489,-0.614891 3.68229,-0.142875 7.36882,-0.173567 11.05535,-0.152047 3.68653,0.01305 7.37411,0.135113 11.05958,0.338666 3.68547,0.207434 7.36847,0.531636 11.03701,1.026584 3.66183,0.519994 7.33072,1.170163 10.87226,2.389011 0.88441,0.305152 1.75295,0.668513 2.59538,1.094669 0.83926,0.430036 1.65876,0.929569 2.37314,1.582561 0.70626,0.643467 1.31903,1.497542 1.46755,2.490258 0.15311,0.99307 -0.18485,1.953684 -0.65793,2.747434 l -0.20214,-0.108303 c 0.38876,-0.809272 0.59584,-1.719439 0.38947,-2.549878 -0.18944,-0.833614 -0.76059,-1.525411 -1.44145,-2.060928 -0.68545,-0.53975 -1.48132,-0.951088 -2.30258,-1.297516 -0.82339,-0.346781 -1.68169,-0.619831 -2.54776,-0.868186 -1.73567,-0.491067 -3.52178,-0.826911 -5.31636,-1.105253 -1.79564,-0.278342 -3.60539,-0.486128 -5.42044,-0.648406 -7.2644,-0.653697 -14.58912,-0.727427 -21.90256,-0.677333 -3.6583,0.0321 -7.31696,0.141111 -10.97527,0.248003 -1.8288,0.05997 -3.65724,0.135819 -5.48498,0.221544 -1.8281,0.07091 -3.65619,0.172509 -5.48535,0.275167 -1.82844,0.109008 -3.66006,0.182386 -5.4871,0.307622 l -5.48181,0.373239 -5.47724,0.434269 -5.47687,0.467431 c -7.30391,0.631825 -14.584893,1.597378 -21.831301,2.811639 -7.248877,1.170164 -14.515041,2.502958 -21.884216,3.079044 -7.357533,0.573617 -14.760575,0.604661 -22.143508,-0.103011 -1.844322,-0.194733 -3.68688,-0.415572 -5.516386,-0.763764 -1.830211,-0.331258 -3.652308,-0.740128 -5.434894,-1.316214 -1.778,-0.57538 -3.540478,-1.288697 -5.114925,-2.363963 -0.78352,-0.535509 -1.509889,-1.185679 -2.067983,-1.976254 -0.538692,-0.790222 -0.906287,-1.776236 -0.671689,-2.755547 z"
       style="fill:#1d1d1b;fill-opacity:1;fill-rule:nonzero;stroke:none;stroke-width:0.352778"
       id="path148" />
  </g>
</svg>
