<svg width="27" height="19" viewBox="0 0 27 19" fill="none" xmlns="http://www.w3.org/2000/svg">
<path d="M27 2C26.9023 1.45427 26.6209 0.958358 26.2025 0.594568C25.7842 0.230777 25.254 0.0209818 24.7 0L2.3 0C1.74654 0.0227879 1.2173 0.233219 0.799302 0.596697C0.381303 0.960175 0.0994209 1.45506 5.6345e-07 2C-0.0147402 2.13961 -0.0147402 2.28039 5.6345e-07 2.42V16.52C-0.00396251 16.8434 0.0561513 17.1644 0.176874 17.4645C0.297597 17.7645 0.476539 18.0377 0.703378 18.2683C0.930217 18.4988 1.20046 18.6822 1.49852 18.8078C1.79659 18.9334 2.11656 18.9987 2.44 19H24.55C24.8743 19 25.1953 18.9357 25.4946 18.8107C25.7938 18.6857 26.0652 18.5025 26.2931 18.2718C26.521 18.0411 26.7008 17.7675 26.8222 17.4668C26.9435 17.1661 27.004 16.8443 27 16.52V2.45C27.0169 2.30048 27.0169 2.14952 27 2ZM24 2L13.63 10.34C13.5938 10.371 13.5477 10.388 13.5 10.388C13.4523 10.388 13.4062 10.371 13.37 10.34L3.05 2H24ZM25 16.52C24.9974 16.6376 24.9488 16.7495 24.8647 16.8318C24.7806 16.914 24.6676 16.96 24.55 16.96H2.44C2.32331 16.96 2.21139 16.9136 2.12887 16.8311C2.04636 16.7486 2 16.6367 2 16.52V3.73L12.11 11.9C12.504 12.2169 12.9944 12.3897 13.5 12.39C14.0049 12.3858 14.4941 12.2134 14.89 11.9L25 3.73V16.52Z" fill="black"/>
</svg>
